<?xml version="1.0" standalone="no"?>
<!DOCTYPE svg PUBLIC "-//W3C//DTD SVG 1.1//EN" "http://www.w3.org/Graphics/SVG/1.1/DTD/svg11.dtd" >
<svg xmlns="http://www.w3.org/2000/svg" xmlns:xlink="http://www.w3.org/1999/xlink" version="1.1">
<metadata>
Created by FontForge 20170731 at Mon Jul  7 16:43:15 2014
 By Aleksey,,,
Copyright (c) 2014 Indian Type Foundry (info@indiantypefoundry.com)
</metadata>
<defs>
<font id="Rajdhani-Medium" horiz-adv-x="233" >
  <font-face 
    font-family="Rajdhani Medium"
    font-weight="500"
    font-stretch="normal"
    units-per-em="1000"
    panose-1="2 0 0 0 0 0 0 0 0 0"
    ascent="750"
    descent="-250"
    x-height="510"
    cap-height="643"
    bbox="-429 -323 2022 900"
    underline-thickness="50"
    underline-position="-150"
    unicode-range="U+000D-F6C3"
  />
<missing-glyph horiz-adv-x="600" 
d="M170 536v-490h260v490h-260zM120 0v582h360v-582h-360z" />
    <glyph glyph-name=".notdef" horiz-adv-x="600" 
d="M170 536v-490h260v490h-260zM120 0v582h360v-582h-360z" />
    <glyph glyph-name=".null" horiz-adv-x="0" 
 />
    <glyph glyph-name="nonmarkingreturn" horiz-adv-x="333" 
 />
    <glyph glyph-name="NULL" horiz-adv-x="0" 
 />
    <glyph glyph-name="NULL" horiz-adv-x="0" 
 />
    <glyph glyph-name="CR" unicode="&#xd;" horiz-adv-x="0" 
 />
    <glyph glyph-name="space" unicode=" " horiz-adv-x="254" 
 />
    <glyph glyph-name="exclam" unicode="!" horiz-adv-x="237" 
d="M78 513v116q0 14 14 14h53q14 0 14 -14v-116q0 -95 -6 -185t-8 -102t-13 -12h-27q-13 0 -14 15q-4 39 -8.5 137t-4.5 147zM157 135v-121q0 -14 -14 -14h-48q-13 0 -13 15v120q0 13 13 13h48q14 0 14 -13z" />
    <glyph glyph-name="quotedbl" unicode="&#x22;" horiz-adv-x="337" 
d="M94 429h-8q-13 0 -15 16l-16 184q0 14 13 14h44q14 0 12 -14l-15 -185q-1 -15 -15 -15zM251 429h-9q-12 0 -14 16l-16 184q0 14 13 14h44q14 0 12 -14l-15 -185q-2 -15 -15 -15z" />
    <glyph glyph-name="numbersign" unicode="#" horiz-adv-x="675" 
d="M612 485q14 0 14 -14v-33q0 -14 -14 -14h-100l-55 -205h93q14 0 14 -14v-33q0 -14 -14 -14h-110l-38 -143q-4 -15 -17 -15h-34q-14 0 -10 18l38 140h-168l-38 -143q-4 -15 -18 -15h-32q-16 0 -10 18l38 140h-88q-14 0 -14 14v33q0 14 14 14h104l55 205h-97q-15 0 -15 14
v33q0 14 15 14h114l38 143q3 15 16 15h32q18 0 12 -18l-38 -140h168l38 143q5 15 19 15h30q16 0 12 -18l-38 -140h84zM395 219l55 205h-167l-55 -205h167z" />
    <glyph glyph-name="dollar" unicode="$" horiz-adv-x="511" 
d="M281 -98h-34q-14 0 -14 14v84h-24q-67 0 -106.5 40t-39.5 108v28q0 14 13 14h46q13 0 13 -14v-22q0 -90 89 -90h63q89 0 89 92v47q0 47 -26 66t-79 21l-55 1q-72 3 -113 35t-41 115v55q0 69 39.5 108.5t107.5 39.5h24v85q0 14 14 14h34q14 0 14 -14v-85h7q65 0 104 -40
t39 -108v-25q0 -15 -14 -15h-45q-14 0 -14 15v19q0 90 -89 90h-59q-89 0 -89 -94v-47q0 -45 25.5 -62.5t78.5 -19.5l62 -2q68 -3 108 -36t40 -113v-58q0 -69 -39.5 -108.5t-107.5 -39.5h-7v-84q0 -14 -14 -14z" />
    <glyph glyph-name="percent" unicode="%" horiz-adv-x="724" 
d="M555 252h-19q-38 0 -52 -15.5t-14 -54.5v-65q0 -38 14 -54t52 -16h19q37 0 51 16t14 54v65q0 39 -14 54.5t-51 15.5zM527 299h35q112 0 112 -114v-70q0 -115 -112 -115h-35q-112 0 -112 115v70q0 114 112 114zM189 599h-19q-37 0 -51 -15.5t-14 -53.5v-66q0 -39 14 -54.5
t51 -15.5h19q37 0 51 16t14 54v66q0 38 -14 53.5t-51 15.5zM162 646h35q112 0 112 -114v-70q0 -114 -112 -114h-35q-112 0 -112 114v70q0 114 112 114zM242 0h-29q-16 0 -9 16q14 37 129.5 306.5t129.5 305.5q7 15 18 15h29q16 0 9 -17l-258 -611q-6 -15 -19 -15z" />
    <glyph glyph-name="ampersand" unicode="&#x26;" horiz-adv-x="603" 
d="M218 65h66q67 0 77 60l-157 183q-72 -4 -72 -89v-70q0 -84 86 -84zM284 0h-75q-69 0 -108 38.5t-39 107.5v77q0 50 26 87.5t78 40.5q-44 53 -44 117v29q0 69 41 107.5t110 38.5h27q69 0 108 -38.5t39 -107.5v-42q0 -15 -13 -15h-45q-14 0 -14 15v41q0 85 -80 85h-16
q-83 0 -83 -85v-29q0 -49 44 -98l58 -67h234q15 0 15 -14v-37q0 -13 -15 -13h-180l194 -227q3 -3 2 -7t-6 -4h-58q-14 0 -23 10l-54 63q-25 -73 -123 -73z" />
    <glyph glyph-name="quotesingle" unicode="'" horiz-adv-x="186" 
d="M98 445h-10q-13 0 -14 13l-15 157q-1 13 13 13h42q14 0 13 -13l-14 -157q-4 -13 -15 -13z" />
    <glyph glyph-name="parenleft" unicode="(" horiz-adv-x="290" 
d="M213 588h-3q-46 0 -71 -29t-25 -83v-411q0 -54 25 -83t72 -29h2q14 0 14 -13v-31q0 -11 -14 -11h-3q-73 0 -115 44t-42 129v399q0 85 42 129t115 44h4q13 0 13 -11v-31q0 -13 -14 -13z" />
    <glyph glyph-name="parenright" unicode=")" horiz-adv-x="290" 
d="M53 -91v31q0 13 13 13h3q45 0 70.5 29t25.5 83v411q0 54 -25.5 83t-70.5 29h-3q-13 0 -13 13v31q0 11 13 11h3q73 0 115.5 -44t42.5 -129v-399q0 -85 -42.5 -129t-115.5 -44h-3q-13 0 -13 11z" />
    <glyph glyph-name="asterisk" unicode="*" horiz-adv-x="404" 
d="M173 616v14q0 13 13 13h30q14 0 14 -13v-14q0 -67 -28 -117q57 50 102 64l14 4q13 4 17 -8l9 -29q5 -13 -9 -17l-13 -4q-64 -21 -120 -10q1 -1 13 -8t24 -15q39 -28 64 -66q7 -10 -3 -18l-25 -18q-11 -6 -19 3l-7 11q-41 54 -47 111q0 -5 -8 -31q-15 -51 -37 -81l-8 -12
q-7 -10 -19 -2l-24 18q-11 6 -3 19l8 10q34 48 91 79q-78 -5 -120 8l-14 4q-13 5 -8 17l10 29q3 12 17 8q73 -25 115 -66q0 1 -4 9.5t-7.5 19.5t-8.5 24q-9 29 -9 64z" />
    <glyph glyph-name="plus" unicode="+" horiz-adv-x="535" 
d="M300 352h150q15 0 15 -15v-32q0 -14 -15 -14h-150v-152q0 -16 -15 -16h-34q-15 0 -15 16v152h-151q-15 0 -15 14v32q0 15 15 15h151v151q0 16 15 16h34q15 0 15 -16v-151z" />
    <glyph glyph-name="comma" unicode="," horiz-adv-x="194" 
d="M136 135v-79q0 -22 -15 -58l-40 -94q-5 -8 -12 -8q-10 0 -10 13v226q0 13 13 13h51q13 0 13 -13z" />
    <glyph glyph-name="hyphen" unicode="-" horiz-adv-x="312" 
d="M258 289h-204q-14 0 -14 14v33q0 14 14 14h204q14 0 14 -14v-33q0 -14 -14 -14z" />
    <glyph glyph-name="period" unicode="." horiz-adv-x="194" 
d="M136 135v-121q0 -14 -13 -14h-51q-13 0 -13 14v121q0 13 13 13h51q13 0 13 -13z" />
    <glyph glyph-name="slash" unicode="/" horiz-adv-x="400" 
d="M106 0h-41q-18 0 -12 16q16 40 113.5 310.5t109.5 301.5q6 15 19 15h42q17 0 10 -17l-222 -611q-5 -15 -19 -15z" />
    <glyph glyph-name="zero" unicode="0" horiz-adv-x="520" 
d="M219 64h82q84 0 84 87v341q0 87 -84 87h-82q-83 0 -83 -87v-341q0 -87 83 -87zM310 0h-100q-68 0 -107.5 39t-39.5 109v347q0 69 39.5 108.5t107.5 39.5h100q68 0 107.5 -39.5t39.5 -108.5v-347q0 -70 -39.5 -109t-107.5 -39z" />
    <glyph glyph-name="one" unicode="1" horiz-adv-x="322" 
d="M33 505v40q0 15 12 22l116 67q16 9 26 9h42q14 0 14 -14v-615q0 -14 -14 -14h-45q-14 0 -14 14v551l-119 -68q-18 -10 -18 8z" />
    <glyph glyph-name="two" unicode="2" horiz-adv-x="482" 
d="M57 14v90q0 67 56 110l193 152q50 38 50 94v36q0 85 -86 85h-61q-84 0 -84 -85v-41q0 -15 -14 -15h-45q-13 0 -13 15v42q0 69 39 107.5t108 38.5h80q69 0 108 -38.5t39 -107.5v-41q0 -78 -62 -127l-196 -155q-33 -26 -33 -63v-46h279q14 0 14 -14v-37q0 -14 -14 -14h-344
q-14 0 -14 14z" />
    <glyph glyph-name="three" unicode="3" horiz-adv-x="500" 
d="M223 354h58q85 0 85 85v57q0 85 -85 85h-69q-84 0 -84 -85v-32q0 -15 -14 -15h-45q-14 0 -14 15v33q0 69 39.5 107.5t108.5 38.5h87q69 0 108.5 -38.5t39.5 -107.5v-59q0 -89 -82 -115q82 -21 82 -114v-63q0 -69 -39.5 -107.5t-108.5 -38.5h-87q-69 0 -108.5 38.5
t-39.5 107.5v40q0 15 14 15h45q14 0 14 -15v-39q0 -85 84 -85h69q85 0 85 85v61q0 85 -85 85h-58q-14 0 -14 14v33q0 14 14 14z" />
    <glyph glyph-name="four" unicode="4" horiz-adv-x="526" 
d="M342 191v393l-226 -393h226zM397 0h-42q-13 0 -13 14v113h-278q-21 0 -21 21v24q0 17 7 30l244 421q9 20 30 20h65q22 0 22 -21v-431h74q14 0 14 -13v-36q0 -15 -14 -15h-74v-113q0 -14 -14 -14z" />
    <glyph glyph-name="five" unicode="5" horiz-adv-x="489" 
d="M278 352h-74q-42 0 -55 -24.5t-26 -24.5h-46q-14 0 -14 14v312q0 14 14 14h331q15 0 15 -14v-40q0 -14 -15 -14h-272v-213q19 50 85 50h72q68 0 105.5 -37t37.5 -106v-121q0 -70 -39 -109t-108 -39h-82q-69 0 -108.5 39t-39.5 109v31q0 15 14 15h45q14 0 14 -15v-30
q0 -87 83 -87h65q85 0 85 87v111q0 47 -21 69.5t-66 22.5z" />
    <glyph glyph-name="six" unicode="6" horiz-adv-x="505" 
d="M213 64h77q84 0 84 87v88q0 87 -84 87h-161v-175q0 -87 84 -87zM299 0h-95q-69 0 -108.5 39.5t-39.5 108.5v347q0 69 39.5 108.5t108.5 39.5h194q14 0 14 -14v-37q0 -13 -14 -13h-185q-84 0 -84 -87v-102h170q69 0 108 -39t39 -109v-94q0 -70 -39 -109t-108 -39z" />
    <glyph glyph-name="seven" unicode="7" horiz-adv-x="395" 
d="M135 0h-47q-16 0 -8 17l217 559h-266q-14 0 -14 14v39q0 14 14 14h330q14 0 14 -14v-42q0 -16 -8 -32l-209 -542q-5 -13 -23 -13z" />
    <glyph glyph-name="eight" unicode="8" horiz-adv-x="526" 
d="M219 64h88q84 0 84 84v60q0 86 -84 86h-88q-84 0 -84 -86v-60q0 -84 84 -84zM219 353h88q84 0 84 87v55q0 84 -84 84h-88q-84 0 -84 -84v-55q0 -87 84 -87zM316 0h-106q-69 0 -108 37.5t-39 105.5v61q0 90 70 120q-70 27 -70 120v56q0 69 39 106t108 37h106q69 0 108 -37
t39 -106v-56q0 -46 -19 -77.5t-51 -42.5q70 -29 70 -121v-60q0 -68 -39 -105.5t-108 -37.5z" />
    <glyph glyph-name="nine" unicode="9" horiz-adv-x="505" 
d="M209 314h161v178q0 87 -84 87h-77q-83 0 -83 -87v-92q0 -86 83 -86zM295 0h-197q-15 0 -15 14v37q0 13 15 13h188q84 0 84 87v99h-170q-68 0 -107.5 39t-39.5 108v98q0 69 39.5 108.5t107.5 39.5h95q69 0 108 -39.5t39 -108.5v-347q0 -70 -39 -109t-108 -39z" />
    <glyph glyph-name="colon" unicode=":" horiz-adv-x="194" 
d="M136 497v-121q0 -14 -13 -14h-51q-13 0 -13 15v119q0 14 13 14h51q13 0 13 -13zM136 135v-121q0 -14 -13 -14h-51q-13 0 -13 15v120q0 13 13 13h51q13 0 13 -13z" />
    <glyph glyph-name="semicolon" unicode=";" horiz-adv-x="194" 
d="M136 135v-79q0 -22 -15 -58l-40 -94q-5 -8 -12 -8q-10 0 -10 13v226q0 13 13 13h51q13 0 13 -13zM136 497v-121q0 -14 -13 -14h-51q-13 0 -13 15v119q0 14 13 14h51q13 0 13 -13z" />
    <glyph glyph-name="less" unicode="&#x3c;" horiz-adv-x="528" 
d="M462 486v-36q0 -15 -13 -19l-321 -107l321 -108q13 -2 13 -18v-37q0 -16 -17 -10l-362 131q-17 7 -17 24v35q0 18 17 24l362 131q17 6 17 -10z" />
    <glyph glyph-name="equal" unicode="=" horiz-adv-x="542" 
d="M88 444h365q16 0 16 -15v-31q0 -15 -16 -15h-365q-15 0 -15 15v31q0 15 15 15zM88 259h365q16 0 16 -15v-30q0 -15 -16 -15h-365q-15 0 -15 15v30q0 15 15 15z" />
    <glyph glyph-name="greater" unicode="&#x3e;" horiz-adv-x="542" 
d="M73 450v36q0 16 17 10l362 -131q17 -6 17 -24v-35q0 -17 -17 -24l-362 -131q-17 -6 -17 10v37q0 16 13 18l321 108l-321 107q-13 4 -13 19z" />
    <glyph glyph-name="question" unicode="?" horiz-adv-x="471" 
d="M276 135v-121q0 -14 -13 -14h-51q-13 0 -13 15v120q0 13 13 13h51q13 0 13 -13zM274 262v-34q0 -14 -14 -14h-42q-14 0 -14 14v32q0 39 11.5 60.5t43.5 48.5l42 36q37 31 37 69v21q0 85 -86 85h-34q-84 0 -84 -85v-36q0 -14 -14 -14h-45q-13 0 -13 14v37q0 69 39 107.5
t108 38.5h52q69 0 108.5 -38.5t39.5 -107.5v-26q0 -52 -47 -91l-52 -44q-23 -20 -29.5 -34t-6.5 -39z" />
    <glyph glyph-name="at" unicode="@" horiz-adv-x="751" 
d="M508 -58h-181q-104 0 -178 67t-74 180v165q0 111 72 180t172 69h198q73 0 118 -43.5t45 -112.5v-230q0 -60 -37 -97t-97 -37h-39q-19 0 -32 10.5t-13 28.5v15h-4q-25 -53 -104 -53q-61 0 -98 38t-37 106v84q0 69 38 108.5t102 39.5h151q14 0 14 -14v-305q0 -10 14 -10h5
q88 0 88 91v221q0 54 -32 83.5t-86 29.5h-191q-85 0 -141.5 -56t-56.5 -149v-157q0 -93 58 -149t144 -56h182q14 0 14 -13v-20q0 -14 -14 -14zM462 233v160q0 10 -10 10h-84q-84 0 -84 -87v-88q0 -87 84 -87h2q45 0 68.5 24t23.5 68z" />
    <glyph glyph-name="A" unicode="A" horiz-adv-x="540" 
d="M87 0h-50q-13 0 -9 14l187 615q4 14 19 14h72q15 0 19 -14l187 -615q4 -14 -9 -14h-51q-11 0 -14 14l-47 146h-242l-47 -146q-4 -14 -15 -14zM268 568l-103 -346h210l-103 346h-4z" />
    <glyph glyph-name="B" unicode="B" horiz-adv-x="549" 
d="M162 62h164q86 0 86 85v65q0 85 -92 85h-158q-10 0 -10 -9v-216q0 -10 10 -10zM162 358h154q88 0 88 85v53q0 85 -85 85h-157q-10 0 -10 -10v-204q0 -9 10 -9zM79 14v615q0 14 14 14h235q69 0 108 -38.5t39 -107.5v-55q0 -89 -84 -115q38 -3 65 -33.5t27 -80.5v-67
q0 -69 -39.5 -107.5t-108.5 -38.5h-242q-14 0 -14 14z" />
    <glyph glyph-name="C" unicode="C" horiz-adv-x="541" 
d="M337 0h-120q-69 0 -108.5 39t-39.5 109v347q0 70 39.5 109t108.5 39h120q69 0 108.5 -39t39.5 -109v-49q0 -14 -14 -14h-45q-14 0 -14 14v46q0 87 -84 87h-103q-83 0 -83 -87v-341q0 -87 83 -87h103q84 0 84 87v46q0 14 14 14h45q14 0 14 -14v-49q0 -70 -39.5 -109
t-108.5 -39z" />
    <glyph glyph-name="D" unicode="D" horiz-adv-x="556" 
d="M162 64h168q84 0 84 87v341q0 87 -84 87h-168q-10 0 -10 -9v-497q0 -9 10 -9zM79 14v615q0 14 14 14h246q69 0 108.5 -39.5t39.5 -108.5v-347q0 -69 -39.5 -108.5t-108.5 -39.5h-246q-14 0 -14 14z" />
    <glyph glyph-name="E" unicode="E" horiz-adv-x="480" 
d="M407 0h-314q-14 0 -14 14v615q0 14 14 14h314q14 0 14 -14v-36q0 -14 -14 -14h-245q-10 0 -10 -9v-202q0 -9 10 -9h214q14 0 14 -14v-36q0 -14 -14 -14h-214q-10 0 -10 -9v-213q0 -9 10 -9h245q14 0 14 -14v-36q0 -14 -14 -14z" />
    <glyph glyph-name="F" unicode="F" horiz-adv-x="457" 
d="M138 0h-45q-14 0 -14 14v615q0 14 14 14h311q14 0 14 -14v-36q0 -14 -14 -14h-242q-10 0 -10 -9v-218q0 -9 10 -9h214q14 0 14 -14v-36q0 -14 -14 -14h-214q-10 0 -10 -10v-255q0 -14 -14 -14z" />
    <glyph glyph-name="G" unicode="G" horiz-adv-x="541" 
d="M325 0h-108q-69 0 -108.5 39t-39.5 109v347q0 70 39.5 109t108.5 39h108q69 0 108 -39.5t39 -108.5v-41q0 -15 -14 -15h-45q-14 0 -14 15v38q0 87 -83 87h-91q-83 0 -83 -87v-341q0 -87 83 -87h91q83 0 83 87v112q0 10 -9 10h-99q-14 0 -14 13v37q0 14 14 14h161
q20 0 20 -21v-168q0 -70 -39 -109t-108 -39z" />
    <glyph glyph-name="H" unicode="H" horiz-adv-x="572" 
d="M138 0h-45q-14 0 -14 14v615q0 14 14 14h45q14 0 14 -14v-263q0 -9 10 -9h248q10 0 10 9v263q0 14 14 14h45q14 0 14 -14v-615q0 -14 -14 -14h-45q-14 0 -14 14v270q0 9 -10 9h-248q-10 0 -10 -9v-270q0 -14 -14 -14z" />
    <glyph glyph-name="I" unicode="I" horiz-adv-x="241" 
d="M157 629v-615q0 -14 -14 -14h-45q-14 0 -14 14v615q0 14 14 14h45q14 0 14 -14z" />
    <glyph glyph-name="J" unicode="J" horiz-adv-x="505" 
d="M373 643h45q13 0 13 -13v-482q0 -70 -39.5 -109t-107.5 -39h-100q-69 0 -108.5 39.5t-39.5 108.5v86q0 14 14 14h45q14 0 14 -14v-83q0 -87 84 -87h82q84 0 84 87v478q0 14 14 14z" />
    <glyph glyph-name="K" unicode="K" horiz-adv-x="538" 
d="M138 0h-45q-14 0 -14 14v615q0 14 14 14h45q14 0 14 -14v-345h3q7 21 22 41l224 304q9 14 26 14h54q17 0 5 -15l-198 -268l226 -344q11 -16 -9 -16h-41q-21 0 -29 14l-192 293l-91 -109v-184q0 -14 -14 -14z" />
    <glyph glyph-name="L" unicode="L" horiz-adv-x="451" 
d="M414 0h-321q-14 0 -14 14v615q0 14 14 14h45q14 0 14 -14v-554q0 -9 10 -9h252q14 0 14 -15v-37q0 -14 -14 -14z" />
    <glyph glyph-name="M" unicode="M" horiz-adv-x="705" 
d="M531 643h81q14 0 14 -14v-615q0 -14 -14 -14h-44q-14 0 -14 14v531h-4l-155 -392q-6 -13 -18 -13h-48q-13 0 -17 13l-158 393h-4v-532q0 -14 -13 -14h-44q-14 0 -14 14v615q0 14 14 14h81q9 0 12 -8l164 -414h5l164 414q2 8 12 8z" />
    <glyph glyph-name="N" unicode="N" horiz-adv-x="581" 
d="M137 0h-44q-14 0 -14 14v615q0 14 14 14h41q12 0 16 -8l276 -485h4v479q0 14 14 14h44q14 0 14 -14v-615q0 -14 -14 -14h-37q-11 0 -21 13l-275 480h-4v-479q0 -14 -14 -14z" />
    <glyph glyph-name="O" unicode="O" horiz-adv-x="553" 
d="M225 64h102q84 0 84 87v341q0 87 -84 87h-102q-83 0 -83 -87v-341q0 -87 83 -87zM336 0h-119q-69 0 -108.5 39t-39.5 109v347q0 70 39.5 109t108.5 39h119q69 0 108.5 -39.5t39.5 -108.5v-347q0 -69 -39.5 -108.5t-108.5 -39.5z" />
    <glyph glyph-name="P" unicode="P" horiz-adv-x="526" 
d="M138 0h-45q-14 0 -14 14v615q0 14 14 14h234q69 0 108 -39.5t39 -108.5v-111q0 -70 -39 -109t-108 -39h-165q-10 0 -10 -9v-213q0 -14 -14 -14zM162 301h155q84 0 84 86v105q0 87 -84 87h-155q-10 0 -10 -9v-260q0 -9 10 -9z" />
    <glyph glyph-name="Q" unicode="Q" horiz-adv-x="560" 
d="M229 64h102q84 0 84 87v341q0 87 -84 87h-102q-83 0 -83 -87v-341q0 -87 83 -87zM421 -133h-41q-18 0 -26 14l-72 119h-62q-68 0 -107.5 39t-39.5 109v347q0 69 39.5 108.5t107.5 39.5h119q69 0 108.5 -39t39.5 -109v-347q0 -64 -34 -102.5t-94 -43.5l71 -119
q4 -7 1 -11.5t-10 -4.5z" />
    <glyph glyph-name="R" unicode="R" horiz-adv-x="537" 
d="M138 0h-45q-14 0 -14 14v615q0 14 14 14h230q69 0 109 -39.5t40 -108.5v-91q0 -56 -27 -92.5t-75 -48.5v-4l116 -243q9 -16 -10 -16h-45q-17 0 -25 14l-112 242h-132q-10 0 -10 -9v-233q0 -14 -14 -14zM162 317h151q86 0 86 86v89q0 87 -86 87h-151q-10 0 -10 -9v-244
q0 -9 10 -9z" />
    <glyph glyph-name="S" unicode="S" horiz-adv-x="555" 
d="M72 148v32q0 14 14 14h45q14 0 14 -14v-26q0 -90 89 -90h88q89 0 89 92v34q0 72 -119 94q-50 9 -100 21t-85 46.5t-35 94.5v49q0 69 39.5 108.5t108.5 39.5h111q68 0 108 -39.5t40 -108.5v-25q0 -15 -13 -15h-46q-13 0 -13 15v18q0 91 -89 91h-85q-89 0 -89 -95v-40
q0 -51 67 -70q30 -8 66 -14.5t72.5 -17t66.5 -26t48.5 -47t18.5 -76.5v-45q0 -69 -40 -108.5t-108 -39.5h-115q-68 0 -108 39.5t-40 108.5z" />
    <glyph glyph-name="T" unicode="T" horiz-adv-x="427" 
d="M236 0h-45q-14 0 -14 14v556q0 9 -10 9h-136q-15 0 -15 14v36q0 14 15 14h365q15 0 15 -14v-36q0 -14 -15 -14h-136q-10 0 -10 -9v-556q0 -14 -14 -14z" />
    <glyph glyph-name="U" unicode="U" horiz-adv-x="554" 
d="M421 643h45q14 0 14 -13v-482q0 -70 -39 -109t-108 -39h-111q-69 0 -108.5 39t-39.5 109v481q0 14 14 14h45q14 0 14 -14v-478q0 -87 83 -87h94q84 0 84 87v478q0 14 13 14z" />
    <glyph glyph-name="V" unicode="V" horiz-adv-x="506" 
d="M289 0h-71q-13 0 -17 14l-177 614q-3 15 13 15h49q13 0 16 -14l149 -547h4l149 547q3 14 16 14h50q15 0 12 -15l-177 -614q-4 -14 -16 -14z" />
    <glyph glyph-name="W" unicode="W" horiz-adv-x="797" 
d="M249 0h-77q-14 0 -17 14l-128 615q-3 14 13 14h54q15 0 16 -14l101 -551h6l135 552q3 13 16 13h60q13 0 16 -13l137 -552h6l100 550q3 15 17 15h54q16 0 13 -15l-129 -614q-3 -14 -16 -14h-77q-14 0 -17 14l-131 537h-4l-132 -537q-3 -14 -16 -14z" />
    <glyph glyph-name="X" unicode="X" horiz-adv-x="514" 
d="M93 0h-52q-7 0 -9.5 4.5t0.5 10.5l175 321l-166 292q-4 6 -1 10.5t10 4.5h50q16 0 22 -14l134 -246h4l132 246q8 14 22 14h52q7 0 9.5 -4.5t-0.5 -10.5l-167 -291l174 -322q4 -6 1.5 -10.5t-9.5 -4.5h-53q-14 0 -19 13l-143 268h-4l-142 -268q-7 -13 -20 -13z" />
    <glyph glyph-name="Y" unicode="Y" horiz-adv-x="500" 
d="M272 0h-45q-14 0 -14 14v227l-190 387q-3 7 0 11t9 4h56q11 0 17 -14l143 -303h5l142 303q4 14 16 14h57q17 0 9 -15l-191 -387v-227q0 -14 -14 -14z" />
    <glyph glyph-name="Z" unicode="Z" horiz-adv-x="493" 
d="M44 14v36q0 18 6 26l310 495v4h-289q-14 0 -14 14v40q0 14 14 14h354q14 0 14 -14v-48q0 -16 -8 -28l-302 -481v-4h306q14 0 14 -13v-40q0 -15 -14 -15h-377q-14 0 -14 14z" />
    <glyph glyph-name="bracketleft" unicode="[" horiz-adv-x="297" 
d="M217 -100h-136q-14 0 -14 14v715q0 14 14 14h136q14 0 14 -14v-25q0 -14 -14 -14h-78q-10 0 -10 -10v-617q0 -10 10 -10h78q14 0 14 -14v-26q0 -13 -14 -13z" />
    <glyph glyph-name="backslash" unicode="\" horiz-adv-x="400" 
d="M63 643h43q12 0 19 -15q14 -37 111 -306.5t111 -305.5q6 -16 -11 -16h-42q-12 0 -19 15l-222 611q-6 17 10 17z" />
    <glyph glyph-name="bracketright" unicode="]" horiz-adv-x="297" 
d="M60 -87v26q0 14 14 14h78q10 0 10 10v617q0 10 -10 10h-78q-14 0 -14 14v25q0 14 14 14h136q13 0 13 -14v-715q0 -14 -13 -14h-136q-14 0 -14 13z" />
    <glyph glyph-name="asciicircum" unicode="^" horiz-adv-x="479" 
d="M105 364h-40q-19 0 -10 16l128 243q9 20 30 20h52q21 0 30 -20l128 -243q9 -16 -10 -16h-40q-12 0 -20 14l-114 219l-114 -219q-8 -14 -20 -14z" />
    <glyph glyph-name="underscore" unicode="_" horiz-adv-x="372" 
d="M358 -103h-344q-14 0 -14 14v18q0 14 14 14h344q14 0 14 -14v-18q0 -14 -14 -14z" />
    <glyph glyph-name="grave" unicode="`" horiz-adv-x="277" 
d="M206 574h-33q-12 0 -20 10l-87 105q-4 6 -2 10t8 4h61q14 0 21 -13l58 -102q8 -14 -6 -14z" />
    <glyph glyph-name="a" unicode="a" horiz-adv-x="507" 
d="M259 0h-52q-69 0 -108.5 39t-39.5 109v214q0 70 39.5 109t108.5 39h217q14 0 14 -14v-482q0 -14 -14 -14h-45q-14 0 -14 14v39h-4q-25 -53 -102 -53zM365 156v281q0 9 -10 9h-140q-83 0 -83 -87v-208q0 -87 83 -87h57q45 0 69 24t24 68z" />
    <glyph glyph-name="b" unicode="b" horiz-adv-x="510" 
d="M152 64h142q85 0 85 87v214q0 87 -85 87h-59q-45 0 -69 -24t-24 -67v-288q0 -9 10 -9zM69 14v675q0 14 14 14h45q14 0 14 -14v-226h4q25 53 102 53h56q68 0 107.5 -39t39.5 -108v-221q0 -70 -39.5 -109t-107.5 -39h-221q-14 0 -14 14z" />
    <glyph glyph-name="c" unicode="c" horiz-adv-x="399" 
d="M366 50v-37q0 -13 -14 -13h-145q-69 0 -108.5 39t-39.5 109v214q0 70 39.5 109t108.5 39h145q14 0 14 -14v-37q0 -13 -14 -13h-137q-83 0 -83 -87v-208q0 -87 83 -87h137q14 0 14 -14z" />
    <glyph glyph-name="d" unicode="d" horiz-adv-x="510" 
d="M262 0h-59q-68 0 -106 39t-38 109v214q0 70 38 109t106 39h59q78 0 103 -53h4v232q0 14 13 14h46q13 0 13 -14v-675q0 -14 -13 -14h-46q-13 0 -13 14v39h-4q-25 -53 -103 -53zM369 156v198q0 44 -24 68t-69 24h-61q-83 0 -83 -87v-208q0 -87 83 -87h61q45 0 69 24t24 68z
" />
    <glyph glyph-name="e" unicode="e" horiz-adv-x="492" 
d="M419 0h-212q-69 0 -108.5 39t-39.5 109v214q0 70 39.5 109t108.5 39h84q69 0 108 -39t39 -109v-127q0 -15 -14 -15h-283q-10 0 -10 -9v-61q0 -87 84 -87h204q14 0 14 -14v-36q0 -13 -14 -13zM141 273h216q10 0 10 10v77q0 86 -84 86h-68q-84 0 -84 -86v-77q0 -10 10 -10z
" />
    <glyph glyph-name="f" unicode="f" horiz-adv-x="318" 
d="M197 510h88q15 0 15 -13v-37q0 -14 -15 -14h-88q-9 0 -9 -9v-423q0 -14 -15 -14h-44q-14 0 -14 14v423q0 9 -10 9h-59q-14 0 -14 14v37q0 13 14 13h59q10 0 10 9v37q0 71 35 109t102 38h34q14 0 14 -13v-37q0 -14 -14 -14h-25q-41 0 -57 -20.5t-16 -65.5v-34q0 -9 9 -9z
" />
    <glyph glyph-name="g" unicode="g" horiz-adv-x="510" 
d="M262 27h-56q-68 0 -106 39t-38 109v187q0 70 39.5 109t108.5 39h217q14 0 14 -14v-496q0 -69 -39.5 -108.5t-108.5 -39.5h-184q-15 0 -15 14v37q0 14 15 14h175q84 0 84 86v77h-4q-26 -53 -102 -53zM368 183v254q0 9 -10 9h-139q-84 0 -84 -87v-181q0 -87 84 -87h56
q45 0 69 24t24 68z" />
    <glyph glyph-name="h" unicode="h" horiz-adv-x="512" 
d="M128 0h-45q-14 0 -14 14v675q0 14 14 14h45q14 0 14 -14v-232h4q25 53 102 53h56q68 0 106 -39t38 -109v-348q0 -14 -14 -14h-45q-14 0 -14 14v345q0 87 -84 87h-56q-45 0 -69 -24t-24 -68v-340q0 -14 -14 -14z" />
    <glyph glyph-name="i" unicode="i" horiz-adv-x="221" 
d="M74 594v94q0 14 13 14h46q14 0 14 -14v-94q0 -14 -14 -14h-46q-13 0 -13 14zM74 14v482q0 14 13 14h46q14 0 14 -14v-482q0 -14 -14 -14h-45q-14 0 -14 14z" />
    <glyph glyph-name="j" unicode="j" horiz-adv-x="221" 
d="M74 594v94q0 14 13 14h46q14 0 14 -14v-94q0 -14 -14 -14h-46q-13 0 -13 14zM-1 -148h-41q-14 0 -14 14v37q0 14 14 14h23q93 0 93 94v485q0 14 14 14h45q14 0 14 -14v-495q0 -69 -39.5 -109t-108.5 -40z" />
    <glyph glyph-name="k" unicode="k" horiz-adv-x="443" 
d="M358 510h50q8 0 10.5 -4.5t-2.5 -11.5l-147 -228v-4l162 -246q4 -7 1 -11.5t-11 -4.5h-47q-19 0 -28 14l-154 238q-6 10 0 21l142 224q6 13 24 13zM128 0h-45q-14 0 -14 14v675q0 14 14 14h45q14 0 14 -14v-675q0 -14 -14 -14z" />
    <glyph glyph-name="l" unicode="l" horiz-adv-x="221" 
d="M133 0h-45q-14 0 -14 14v675q0 14 14 14h45q14 0 14 -14v-675q0 -14 -14 -14z" />
    <glyph glyph-name="m" unicode="m" horiz-adv-x="777" 
d="M128 0h-45q-14 0 -14 14v482q0 14 14 14h45q14 0 14 -14v-39h4q28 53 106 53h37q88 0 122 -68q16 33 50.5 50.5t72.5 17.5h35q68 0 106 -39t38 -109v-348q0 -14 -14 -14h-45q-14 0 -14 14v345q0 87 -84 87h-33q-45 0 -69.5 -25.5t-24.5 -69.5v-337q0 -14 -14 -14h-45
q-14 0 -14 14v345q0 87 -84 87h-37q-45 0 -69 -24t-24 -68v-340q0 -14 -14 -14z" />
    <glyph glyph-name="n" unicode="n" horiz-adv-x="512" 
d="M128 0h-45q-14 0 -14 14v482q0 14 14 14h45q14 0 14 -14v-39h4q25 53 102 53h56q68 0 106 -39t38 -109v-348q0 -14 -14 -14h-45q-14 0 -14 14v345q0 87 -84 87h-56q-45 0 -69 -24t-24 -68v-340q0 -14 -14 -14z" />
    <glyph glyph-name="o" unicode="o" horiz-adv-x="500" 
d="M293 0h-86q-69 0 -108.5 39t-39.5 109v214q0 70 39.5 109t108.5 39h86q69 0 108.5 -39t39.5 -109v-214q0 -70 -39.5 -109t-108.5 -39zM215 64h70q84 0 84 86v210q0 86 -84 86h-70q-84 0 -84 -86v-210q0 -86 84 -86z" />
    <glyph glyph-name="p" unicode="p" horiz-adv-x="510" 
d="M128 -146h-45q-14 0 -14 14v628q0 14 14 14h45q14 0 14 -14v-39h4q25 53 102 53h60q68 0 105.5 -39t37.5 -109v-214q0 -70 -37.5 -109t-105.5 -39h-60q-77 0 -102 53h-4v-185q0 -14 -14 -14zM235 64h59q85 0 85 87v208q0 87 -85 87h-59q-45 0 -69 -24t-24 -68v-198
q0 -44 24 -68t69 -24z" />
    <glyph glyph-name="q" unicode="q" horiz-adv-x="507" 
d="M365 159v278q0 9 -10 9h-140q-83 0 -83 -87v-208q0 -87 83 -87h55q46 0 70.5 25.5t24.5 69.5zM256 0h-49q-69 0 -108.5 39t-39.5 109v214q0 70 39.5 109t108.5 39h217q14 0 14 -14v-628q0 -14 -14 -14h-45q-14 0 -14 14v186h-4q-29 -54 -105 -54z" />
    <glyph glyph-name="r" unicode="r" horiz-adv-x="323" 
d="M128 0h-45q-14 0 -14 14v482q0 14 14 14h45q14 0 14 -14v-40h4q10 22 38 38t66 16h39q13 0 13 -14v-37q0 -7 -3 -10.5t-10 -2.5h-54q-45 0 -69 -27t-24 -74v-331q0 -14 -14 -14z" />
    <glyph glyph-name="s" unicode="s" horiz-adv-x="433" 
d="M242 0h-178q-14 0 -14 14v35q0 13 14 13h168q78 0 78 58v19q0 53 -51 73l-118 50q-51 21 -73 49.5t-22 75.5q0 123 135 123h164q14 0 14 -14v-35q0 -13 -14 -13h-151q-36 0 -54.5 -15t-18.5 -35v-17q0 -42 57 -64l118 -53q52 -20 70.5 -53t18.5 -91q0 -120 -143 -120z
" />
    <glyph glyph-name="t" unicode="t" horiz-adv-x="349" 
d="M88 446h-55q-14 0 -14 13v37q0 14 14 14h55q10 0 10 9v86q0 14 14 14h45q13 0 13 -14v-86q0 -9 11 -9h106q15 0 15 -14v-37q0 -13 -15 -13h-106q-11 0 -11 -9v-288q0 -85 88 -85h39q15 0 15 -14v-37q0 -13 -15 -13h-48q-69 0 -110 38.5t-41 107.5v291q0 9 -10 9z" />
    <glyph glyph-name="u" unicode="u" horiz-adv-x="512" 
d="M264 0h-56q-68 0 -106 39t-38 109v348q0 14 14 14h45q14 0 14 -14v-345q0 -87 83 -87h57q45 0 69 24t24 68v340q0 14 14 14h45q14 0 14 -14v-482q0 -14 -14 -14h-45q-14 0 -14 14v39h-4q-25 -53 -102 -53z" />
    <glyph glyph-name="v" unicode="v" horiz-adv-x="431" 
d="M30 510h47q13 0 16 -14l120 -423h5l119 423q4 14 17 14h47q14 0 10 -14l-144 -481q-3 -15 -18 -15h-68q-14 0 -18 15l-143 481q-4 14 10 14z" />
    <glyph glyph-name="w" unicode="w" horiz-adv-x="686" 
d="M227 0h-61q-14 0 -17 14l-128 482q-3 14 10 14h51q13 0 16 -14l97 -408h6l103 408q3 14 16 14h46q14 0 18 -14l100 -408h6l98 408q3 14 16 14h51q13 0 10 -14l-128 -482q-3 -14 -17 -14h-62q-13 0 -16 14l-97 398h-5l-96 -398q-3 -14 -17 -14z" />
    <glyph glyph-name="x" unicode="x" horiz-adv-x="427" 
d="M89 0h-56q-16 0 -8 14l140 246l-135 236q-8 14 7 14h56q13 0 21 -14l98 -189h4l93 189q7 14 21 14h55q17 0 7 -14l-131 -235l142 -247q9 -14 -7 -14h-58q-11 0 -19 14l-103 197h-4l-103 -197q-6 -14 -20 -14z" />
    <glyph glyph-name="y" unicode="y" horiz-adv-x="463" 
d="M110 -157h-44q-14 0 -14 14v37q0 14 14 14h25q64 0 90 36q21 29 38 83h-29q-12 0 -17 14l-147 455q-4 14 10 14h48q13 0 17 -14l129 -412h4l129 412q3 14 16 14h46q17 0 12 -15l-149 -475q-25 -85 -63.5 -131t-114.5 -46z" />
    <glyph glyph-name="z" unicode="z" horiz-adv-x="418" 
d="M33 14v19q0 18 10 31l247 378v4h-235q-14 0 -14 15v35q0 14 14 14h307q15 0 15 -14v-33q0 -18 -9 -27l-239 -368v-4h242q14 0 14 -15v-35q0 -14 -14 -14h-323q-15 0 -15 14z" />
    <glyph glyph-name="braceleft" unicode="{" horiz-adv-x="303" 
d="M227 643h5q14 0 14 -14v-27q0 -14 -14 -14h-3q-37 0 -51 -21t-14 -66v-134q0 -78 -57 -97q57 -16 57 -96v-134q0 -45 14 -66t51 -21h3q14 0 14 -14v-27q0 -14 -14 -14h-5q-124 0 -124 148v123q0 69 -56 69q-14 0 -14 14v36q0 14 14 14q56 0 56 70v123q0 148 124 148z" />
    <glyph glyph-name="bar" unicode="|" horiz-adv-x="214" 
d="M134 629v-615q0 -14 -14 -14h-27q-13 0 -13 14v615q0 14 13 14h27q14 0 14 -14z" />
    <glyph glyph-name="braceright" unicode="}" horiz-adv-x="303" 
d="M176 495v-123q0 -70 56 -70q14 0 14 -14v-36q0 -14 -14 -14q-56 0 -56 -69v-123q0 -148 -124 -148h-5q-14 0 -14 14v27q0 14 14 14h3q36 0 50.5 21t14.5 66v134q0 80 57 96q-57 19 -57 97v134q0 45 -14.5 66t-50.5 21h-3q-14 0 -14 14v27q0 14 14 14h5q124 0 124 -148z
" />
    <glyph glyph-name="asciitilde" unicode="~" horiz-adv-x="535" 
d="M264.5 294q-66.5 15 -93.5 15t-57 -12t-33 -12q-11 0 -11 12v30q0 15 21 25q37 15 74.5 15t102.5 -15.5t94.5 -15.5t59.5 12.5t33 12.5q10 0 10 -12v-31q0 -15 -21 -24q-37 -15 -75 -15t-104.5 15z" />
    <glyph glyph-name="uni00A0" unicode="&#xa0;" horiz-adv-x="254" 
 />
    <glyph glyph-name="exclamdown" unicode="&#xa1;" horiz-adv-x="237" 
d="M143 495h-48q-13 0 -13 13v120q0 15 13 15h48q14 0 14 -14v-121q0 -13 -14 -13zM105 429h27q11 0 13 -12t5 -57q9 -135 9 -230v-116q0 -14 -14 -14h-53q-14 0 -14 14v116q0 95 6 185t7 99q1 15 14 15z" />
    <glyph glyph-name="cent" unicode="&#xa2;" horiz-adv-x="419" 
d="M276 -91h-36q-13 0 -13 14v77h-26q-66 0 -104 40t-38 108v214q0 68 38 108t104 40h26v87q0 14 13 14h36q13 0 13 -13v-88h71q22 0 22 -14v-37q0 -13 -15 -13h-152q-83 0 -83 -87v-208q0 -87 83 -87h152q15 0 15 -13v-37q0 -14 -15 -14h-78v-78q0 -13 -13 -13z" />
    <glyph glyph-name="sterling" unicode="&#xa3;" horiz-adv-x="536" 
d="M140 61h316q13 0 13 -14v-33q0 -14 -13 -14h-409q-14 0 -14 14v33q0 14 14 14h10q19 0 33 19.5t14 48.5v137h-57q-14 0 -14 15v33q0 13 14 13h57v170q0 69 39.5 107.5t108.5 38.5h65q69 0 108 -38.5t39 -107.5v-27q0 -14 -14 -14h-45q-14 0 -14 14v26q0 85 -84 85h-46
q-86 0 -86 -85v-169h147q14 0 14 -13v-33q0 -15 -14 -15h-147v-128q0 -35 -11 -54t-24 -19v-4z" />
    <glyph glyph-name="yen" unicode="&#xa5;" horiz-adv-x="512" 
d="M278 0h-45q-14 0 -14 14v151h-165q-15 0 -15 15v23q0 15 15 15h163v27l-31 65h-132q-15 0 -15 14v24q0 15 15 15h106l-132 266q-6 14 8 14h59q9 0 15 -14l143 -309h4l144 309q6 14 16 14h58q15 0 8 -14l-131 -266h105q15 0 15 -15v-24q0 -14 -15 -14h-131l-32 -65v-27
h163q15 0 15 -15v-23q0 -15 -15 -15h-165v-151q0 -14 -14 -14z" />
    <glyph glyph-name="brokenbar" unicode="&#xa6;" horiz-adv-x="209" 
d="M133 629v-241q0 -14 -14 -14h-29q-14 0 -14 14v241q0 14 14 14h29q14 0 14 -14zM133 255v-241q0 -14 -14 -14h-29q-14 0 -14 14v241q0 14 14 14h29q14 0 14 -14z" />
    <glyph glyph-name="section" unicode="&#xa7;" horiz-adv-x="464" 
d="M336 302q0 30 -16 45.5t-49 22.5l-80 15q-40 10 -63 27v-66q0 -58 64 -72l80 -15q42 -8 64 -24v67zM258 0h-174q-14 0 -14 14v37q0 13 14 13h170q45 0 61 19t16 50.5t-17 45.5t-55 22l-100 19q-99 20 -99 122v173q0 58 33.5 93t105.5 35h163q14 0 14 -14v-37
q0 -13 -14 -13h-161q-68 0 -68 -67q0 -29 15 -44.5t56 -23.5l100 -19q100 -20 100 -119v-171q0 -135 -146 -135z" />
    <glyph glyph-name="dieresis" unicode="&#xa8;" horiz-adv-x="366" 
d="M63 588v101q0 14 13 14h42q14 0 14 -13v-102q0 -14 -14 -14h-42q-13 0 -13 14zM233 588v101q0 14 14 14h42q14 0 14 -13v-102q0 -14 -14 -14h-42q-14 0 -14 14z" />
    <glyph glyph-name="copyright" unicode="&#xa9;" horiz-adv-x="717" 
d="M493 402v-22q0 -11 -10 -11h-32q-10 0 -10 11v16q0 43 -16 57.5t-60 14.5h-14q-44 0 -60 -14.5t-16 -57.5v-152q0 -43 16 -57.5t60 -14.5h14q44 0 60 14.5t16 57.5v19q0 11 10 11h32q10 0 10 -11v-26q0 -112 -118 -112h-34q-118 0 -118 112v165q0 112 118 112h34
q118 0 118 -112zM211 48h295q89 0 89 90v367q0 90 -89 90h-295q-89 0 -89 -90v-367q0 -90 89 -90zM200 643h317q60 0 95.5 -35t35.5 -96v-381q0 -61 -35.5 -96t-95.5 -35h-317q-60 0 -95 35t-35 96v381q0 60 35 95.5t95 35.5z" />
    <glyph glyph-name="guillemotleft" unicode="&#xab;" horiz-adv-x="438" 
d="M379 129v-33q0 -9 -4.5 -11.5t-11.5 3.5l-140 128q-14 12 -14 27v26q0 14 14 26l140 128q7 6 11.5 3.5t4.5 -10.5v-33q0 -12 -12 -20l-115 -107l115 -107q12 -8 12 -20zM228 129v-33q0 -9 -4 -11.5t-11 3.5l-140 128q-14 11 -14 27v26q0 14 14 26l140 128q7 6 11 3.5
t4 -10.5v-33q0 -11 -11 -20l-115 -107l115 -107q11 -9 11 -20z" />
    <glyph glyph-name="registered" unicode="&#xae;" horiz-adv-x="450" 
d="M240 615h-39v-60h39q16 0 16 17v28q0 15 -16 15zM168 473v159q0 13 13 13h61q47 0 47 -45v-29q0 -32 -24 -41l26 -54q7 -16 -8 -16h-10q-9 0 -13 9l-27 59h-32v-55q0 -13 -13 -13h-7q-13 0 -13 13zM174 424h102q71 0 71 74v108q0 73 -71 73h-102q-72 0 -72 -73v-108
q0 -74 72 -74zM281 391h-113q-47 0 -74.5 27.5t-27.5 73.5v119q0 47 28 74.5t74 27.5h113q47 0 74.5 -27.5t27.5 -74.5v-119q0 -47 -27.5 -74t-74.5 -27z" />
    <glyph glyph-name="macron" unicode="&#xaf;" horiz-adv-x="355" 
d="M278 613h-201q-14 0 -14 14v24q0 14 14 14h201q14 0 14 -14v-24q0 -14 -14 -14z" />
    <glyph glyph-name="degree" unicode="&#xb0;" horiz-adv-x="321" 
d="M184 511h-48q-49 0 -49 49v97q0 47 49 47h48q23 0 36.5 -12.5t13.5 -34.5v-97q0 -23 -13.5 -36t-36.5 -13zM167 545q17 0 23 6t6 23v65q0 18 -6 23.5t-23 5.5h-13q-18 0 -23.5 -5.5t-5.5 -23.5v-65q0 -17 5.5 -23t23.5 -6h13z" />
    <glyph glyph-name="plusminus" unicode="&#xb1;" horiz-adv-x="535" 
d="M300 406h150q15 0 15 -15v-30q0 -15 -15 -15h-150v-98q0 -15 -15 -15h-34q-15 0 -15 15v98h-151q-15 0 -15 15v30q0 15 15 15h151v97q0 16 15 16h34q15 0 15 -16v-97zM85 183h365q15 0 15 -14v-31q0 -15 -15 -15h-365q-15 0 -15 15v31q0 14 15 14z" />
    <glyph glyph-name="acute" unicode="&#xb4;" horiz-adv-x="277" 
d="M145 703h60q7 0 9 -4t-2 -10l-88 -105q-8 -10 -20 -10h-32q-13 0 -7 14l58 102q7 13 22 13z" />
    <glyph glyph-name="paragraph" unicode="&#xb6;" horiz-adv-x="522" 
d="M221 0h-35q-13 0 -13 14v307q-57 0 -90 29.5t-33 90.5v82q0 120 134 120h241q15 0 15 -13v-616q0 -14 -14 -14h-34q-14 0 -14 14v562q0 9 -10 9h-123q-11 0 -11 -9v-562q0 -14 -13 -14z" />
    <glyph glyph-name="periodcentered" unicode="&#xb7;" horiz-adv-x="207" 
d="M142 379v-121q0 -14 -13 -14h-51q-13 0 -13 14v120q0 14 13 14h51q13 0 13 -13z" />
    <glyph glyph-name="cedilla" unicode="&#xb8;" horiz-adv-x="259" 
d="M120 -47q76 0 76 -64v-14q0 -63 -85 -63h-31q-13 0 -13 13v14q0 13 13 13h24q28 0 39 6.5t11 22.5v2q0 18 -10.5 24.5t-39.5 6.5h-16q-18 0 -24 15t6 29l55 62h54l-59 -63v-4z" />
    <glyph glyph-name="guillemotright" unicode="&#xbb;" horiz-adv-x="438" 
d="M209 383v33q0 8 4.5 10.5t10.5 -3.5l141 -128q14 -12 14 -26v-26q0 -15 -14 -27l-141 -128q-6 -6 -10.5 -3t-4.5 11v33q0 12 12 20l115 107l-115 107q-12 8 -12 20zM59 383v33q0 8 4 10.5t11 -3.5l140 -128q14 -12 14 -26v-26q0 -16 -14 -27l-140 -128q-7 -6 -11 -3.5
t-4 11.5v33q0 11 11 20l115 107l-115 107q-11 9 -11 20z" />
    <glyph glyph-name="questiondown" unicode="&#xbf;" horiz-adv-x="471" 
d="M195 507v121q0 14 13 14h51q13 0 13 -15v-120q0 -13 -13 -13h-51q-13 0 -13 13zM197 380v34q0 14 13 14h43q14 0 14 -14v-32q0 -38 -11.5 -60t-43.5 -49l-42 -36q-37 -30 -37 -69v-21q0 -85 85 -85h34q84 0 84 85v36q0 14 14 14h45q14 0 14 -14v-37q0 -69 -39.5 -107.5
t-108.5 -38.5h-52q-69 0 -108 38.5t-39 107.5v26q0 51 46 91l53 44q23 20 29.5 34.5t6.5 38.5z" />
    <glyph glyph-name="Agrave" unicode="&#xc0;" horiz-adv-x="539" 
d="M283 707h-33q-12 0 -20 10l-87 105q-4 6 -2 10t9 4h60q15 0 21 -13l58 -102q8 -14 -6 -14zM87 0h-50q-13 0 -9 14l187 615q4 14 19 14h72q15 0 19 -14l187 -615q4 -14 -9 -14h-51q-11 0 -14 14l-47 146h-242l-47 -146q-4 -14 -15 -14zM268 568l-103 -346h210l-103 346h-4
z" />
    <glyph glyph-name="Aacute" unicode="&#xc1;" horiz-adv-x="539" 
d="M328 836h60q7 0 9 -4t-2 -10l-87 -105q-10 -10 -20 -10h-33q-14 0 -6 14l58 102q6 13 21 13zM87 0h-50q-13 0 -9 14l187 615q4 14 19 14h72q15 0 19 -14l187 -615q4 -14 -9 -14h-51q-11 0 -14 14l-47 146h-242l-47 -146q-4 -14 -15 -14zM268 568l-103 -346h210l-103 346
h-4z" />
    <glyph glyph-name="Acircumflex" unicode="&#xc2;" horiz-adv-x="539" 
d="M365 707h-34q-10 0 -14 8l-47 88l-48 -88q-3 -8 -13 -8h-34q-13 0 -6 12l63 107q7 10 21 10h34q13 0 20 -10l64 -107q7 -12 -6 -12zM87 0h-50q-13 0 -9 14l187 615q4 14 19 14h72q15 0 19 -14l187 -615q4 -14 -9 -14h-51q-11 0 -14 14l-47 146h-242l-47 -146
q-4 -14 -15 -14zM268 568l-103 -346h210l-103 346h-4z" />
    <glyph glyph-name="Atilde" unicode="&#xc3;" horiz-adv-x="539" 
d="M216 702q-56 0 -56 77v39q0 10 9 10h21q9 0 9 -10v-26q0 -29 5 -39t17.5 -10t19 8t19 35.5t24.5 36.5t40 9q57 0 57 -78v-39q0 -11 -9 -11h-22q-9 0 -9 11v27q0 29 -5 38.5t-18 9.5t-18 -6t-10 -18q-21 -45 -33.5 -54.5t-40.5 -9.5zM87 0h-50q-13 0 -9 14l187 615
q4 14 19 14h72q15 0 19 -14l187 -615q4 -14 -9 -14h-51q-11 0 -14 14l-47 146h-242l-47 -146q-4 -14 -15 -14zM268 568l-103 -346h210l-103 346h-4z" />
    <glyph glyph-name="Adieresis" unicode="&#xc4;" horiz-adv-x="539" 
d="M150 721v101q0 14 13 14h43q12 0 12 -13v-102q0 -14 -12 -14h-43q-13 0 -13 14zM321 721v101q0 14 13 14h43q12 0 12 -13v-102q0 -14 -12 -14h-43q-13 0 -13 14zM87 0h-50q-13 0 -9 14l187 615q4 14 19 14h72q15 0 19 -14l187 -615q4 -14 -9 -14h-51q-11 0 -14 14
l-47 146h-242l-47 -146q-4 -14 -15 -14zM268 568l-103 -346h210l-103 346h-4z" />
    <glyph glyph-name="Aring" unicode="&#xc5;" horiz-adv-x="539" 
d="M284 697h-31q-66 0 -66 68v41q0 66 66 66h31q32 0 49.5 -17.5t17.5 -48.5v-41q0 -32 -17.5 -50t-49.5 -18zM262 730h12q40 0 40 43v23q0 43 -39 43h-13q-40 0 -40 -43v-23q0 -43 40 -43zM87 0h-50q-13 0 -9 14l187 615q4 14 19 14h72q15 0 19 -14l187 -615q4 -14 -9 -14
h-51q-11 0 -14 14l-47 146h-242l-47 -146q-4 -14 -15 -14zM268 568l-103 -346h210l-103 346h-4z" />
    <glyph glyph-name="AE" unicode="&#xc6;" horiz-adv-x="775" 
d="M63 0h-51q-16 0 -8 15l320 614q8 14 23 14h356q13 0 13 -14v-36q0 -14 -13 -14h-245q-11 0 -11 -9v-202q0 -9 11 -9h213q15 0 15 -14v-36q0 -14 -15 -14h-213q-11 0 -11 -9v-213q0 -9 11 -9h245q13 0 13 -14v-36q0 -14 -13 -14h-315q-13 0 -13 14v147h-216l-78 -147
q-6 -14 -18 -14zM375 226v344h-4l-182 -344h186z" />
    <glyph glyph-name="Ccedilla" unicode="&#xc7;" horiz-adv-x="541" 
d="M471 432h-45q-14 0 -14 14v46q0 87 -84 87h-103q-83 0 -83 -87v-341q0 -87 83 -87h103q84 0 84 87v46q0 14 14 14h45q14 0 14 -14v-49q0 -70 -39.5 -109t-108.5 -39h-14l-44 -46v-4q77 0 77 -65v-13q0 -64 -86 -64h-31q-13 0 -13 13v14q0 13 13 13h24q29 0 40 6.5
t11 22.5v3q0 18 -10.5 24t-40.5 6h-16q-18 0 -23.5 15t6.5 29l40 46h-53q-69 0 -108.5 39t-39.5 109v347q0 70 39.5 109t108.5 39h120q69 0 108.5 -39t39.5 -109v-49q0 -14 -14 -14z" />
    <glyph glyph-name="Egrave" unicode="&#xc8;" horiz-adv-x="480" 
d="M273 707h-33q-12 0 -20 10l-87 105q-4 6 -2 10t9 4h60q15 0 21 -13l58 -102q8 -14 -6 -14zM407 0h-314q-14 0 -14 14v615q0 14 14 14h314q14 0 14 -14v-36q0 -14 -14 -14h-245q-10 0 -10 -9v-202q0 -9 10 -9h214q14 0 14 -14v-36q0 -14 -14 -14h-214q-10 0 -10 -9v-213
q0 -9 10 -9h245q14 0 14 -14v-36q0 -14 -14 -14z" />
    <glyph glyph-name="Eacute" unicode="&#xc9;" horiz-adv-x="480" 
d="M297 836h60q7 0 9 -4t-2 -10l-88 -105q-8 -10 -19 -10h-33q-14 0 -6 14l57 102q7 13 22 13zM407 0h-314q-14 0 -14 14v615q0 14 14 14h314q14 0 14 -14v-36q0 -14 -14 -14h-245q-10 0 -10 -9v-202q0 -9 10 -9h214q14 0 14 -14v-36q0 -14 -14 -14h-214q-10 0 -10 -9v-213
q0 -9 10 -9h245q14 0 14 -14v-36q0 -14 -14 -14z" />
    <glyph glyph-name="Ecircumflex" unicode="&#xca;" horiz-adv-x="480" 
d="M345 707h-35q-10 0 -13 8l-48 88l-47 -88q-4 -8 -14 -8h-34q-13 0 -6 12l64 107q7 10 20 10h34q14 0 21 -10l63 -107q7 -12 -5 -12zM407 0h-314q-14 0 -14 14v615q0 14 14 14h314q14 0 14 -14v-36q0 -14 -14 -14h-245q-10 0 -10 -9v-202q0 -9 10 -9h214q14 0 14 -14v-36
q0 -14 -14 -14h-214q-10 0 -10 -9v-213q0 -9 10 -9h245q14 0 14 -14v-36q0 -14 -14 -14z" />
    <glyph glyph-name="Edieresis" unicode="&#xcb;" horiz-adv-x="480" 
d="M130 721v101q0 14 13 14h43q13 0 13 -13v-102q0 -14 -13 -14h-43q-13 0 -13 14zM301 721v101q0 14 13 14h43q13 0 13 -13v-102q0 -14 -13 -14h-43q-13 0 -13 14zM407 0h-314q-14 0 -14 14v615q0 14 14 14h314q14 0 14 -14v-36q0 -14 -14 -14h-245q-10 0 -10 -9v-202
q0 -9 10 -9h214q14 0 14 -14v-36q0 -14 -14 -14h-214q-10 0 -10 -9v-213q0 -9 10 -9h245q14 0 14 -14v-36q0 -14 -14 -14z" />
    <glyph glyph-name="Igrave" unicode="&#xcc;" horiz-adv-x="241" 
d="M137 707h-33q-11 0 -19 10l-87 105q-4 6 -2 10t8 4h60q15 0 22 -13l58 -102q8 -14 -7 -14zM157 629v-615q0 -14 -14 -14h-45q-14 0 -14 14v615q0 14 14 14h45q14 0 14 -14z" />
    <glyph glyph-name="Iacute" unicode="&#xcd;" horiz-adv-x="241" 
d="M176 836h61q7 0 9 -4t-3 -10l-87 -105q-8 -10 -20 -10h-33q-12 0 -6 14l58 102q7 13 21 13zM157 629v-615q0 -14 -14 -14h-45q-14 0 -14 14v615q0 14 14 14h45q14 0 14 -14z" />
    <glyph glyph-name="Icircumflex" unicode="&#xce;" horiz-adv-x="240" 
d="M215 707h-34q-10 0 -14 8l-47 88l-47 -88q-4 -8 -15 -8h-33q-13 0 -6 12l63 107q7 10 21 10h34q13 0 20 -10l63 -107q7 -12 -5 -12zM157 629v-615q0 -14 -14 -14h-45q-14 0 -14 14v615q0 14 14 14h45q14 0 14 -14z" />
    <glyph glyph-name="Idieresis" unicode="&#xcf;" horiz-adv-x="240" 
d="M0 721v101q0 14 13 14h43q13 0 13 -13v-102q0 -14 -13 -14h-43q-13 0 -13 14zM171 721v101q0 14 13 14h43q13 0 13 -13v-102q0 -14 -13 -14h-43q-13 0 -13 14zM157 629v-615q0 -14 -14 -14h-45q-14 0 -14 14v615q0 14 14 14h45q14 0 14 -14z" />
    <glyph glyph-name="Eth" unicode="&#xd0;" horiz-adv-x="529" 
d="M168 64h168q84 0 84 87v341q0 87 -84 87h-168q-10 0 -10 -9v-208q0 -9 10 -9h126q14 0 14 -14v-30q0 -13 -14 -13h-126q-10 0 -10 -10v-213q0 -9 10 -9zM345 0h-246q-14 0 -14 14v272q0 10 -10 10h-37q-14 0 -14 13v30q0 14 14 14h37q10 0 10 9v267q0 14 14 14h246
q69 0 108.5 -39t39.5 -109v-347q0 -70 -39.5 -109t-108.5 -39z" />
    <glyph glyph-name="Ntilde" unicode="&#xd1;" horiz-adv-x="581" 
d="M236 702q-55 0 -55 77v39q0 10 9 10h21q9 0 9 -10v-26q0 -29 5 -39t17.5 -10t19 8t19 35.5t25 36.5t40.5 9q56 0 56 -78v-39q0 -11 -10 -11h-21q-9 0 -9 11v27q0 29 -5 38.5t-18 9.5t-18 -6t-11 -18q-20 -45 -33 -54.5t-41 -9.5zM137 0h-44q-14 0 -14 14v615q0 14 14 14
h41q12 0 16 -8l276 -485h4v479q0 14 14 14h44q14 0 14 -14v-615q0 -14 -14 -14h-37q-11 0 -21 13l-275 480h-4v-479q0 -14 -14 -14z" />
    <glyph glyph-name="Ograve" unicode="&#xd2;" horiz-adv-x="553" 
d="M296 707h-34q-11 0 -19 10l-87 105q-10 14 6 14h60q15 0 22 -13l58 -102q8 -14 -6 -14zM225 64h102q84 0 84 87v341q0 87 -84 87h-102q-83 0 -83 -87v-341q0 -87 83 -87zM336 0h-119q-69 0 -108.5 39t-39.5 109v347q0 70 39.5 109t108.5 39h119q69 0 108.5 -39.5
t39.5 -108.5v-347q0 -69 -39.5 -108.5t-108.5 -39.5z" />
    <glyph glyph-name="Oacute" unicode="&#xd3;" horiz-adv-x="553" 
d="M324 836h61q6 0 8 -4t-2 -10l-87 -105q-8 -10 -20 -10h-33q-14 0 -6 14l58 102q6 13 21 13zM225 64h102q84 0 84 87v341q0 87 -84 87h-102q-83 0 -83 -87v-341q0 -87 83 -87zM336 0h-119q-69 0 -108.5 39t-39.5 109v347q0 70 39.5 109t108.5 39h119q69 0 108.5 -39.5
t39.5 -108.5v-347q0 -69 -39.5 -108.5t-108.5 -39.5z" />
    <glyph glyph-name="Ocircumflex" unicode="&#xd4;" horiz-adv-x="553" 
d="M373 707h-34q-11 0 -14 8l-48 88l-47 -88q-4 -8 -14 -8h-34q-12 0 -5 12l63 107q7 10 20 10h35q13 0 20 -10l63 -107q7 -12 -5 -12zM225 64h102q84 0 84 87v341q0 87 -84 87h-102q-83 0 -83 -87v-341q0 -87 83 -87zM336 0h-119q-69 0 -108.5 39t-39.5 109v347
q0 70 39.5 109t108.5 39h119q69 0 108.5 -39.5t39.5 -108.5v-347q0 -69 -39.5 -108.5t-108.5 -39.5z" />
    <glyph glyph-name="Otilde" unicode="&#xd5;" horiz-adv-x="553" 
d="M263.5 712q-13.5 -10 -41.5 -10q-56 0 -56 77v39q0 10 9 10h21q9 0 9 -10v-26q0 -29 5 -39t17.5 -10t19 8t19 35.5t25 36.5t40.5 9q55 0 55 -78v-39q0 -11 -8 -11h-21q-10 0 -10 11v27q0 29 -5 38.5t-18 9.5t-18 -6t-10.5 -18t-6.5 -13q-12 -31 -25.5 -41zM225 64h102
q84 0 84 87v341q0 87 -84 87h-102q-83 0 -83 -87v-341q0 -87 83 -87zM336 0h-119q-69 0 -108.5 39t-39.5 109v347q0 70 39.5 109t108.5 39h119q69 0 108.5 -39.5t39.5 -108.5v-347q0 -69 -39.5 -108.5t-108.5 -39.5z" />
    <glyph glyph-name="Odieresis" unicode="&#xd6;" horiz-adv-x="553" 
d="M156 721v101q0 14 13 14h43q13 0 13 -13v-102q0 -14 -13 -14h-43q-13 0 -13 14zM327 721v101q0 14 13 14h43q13 0 13 -13v-102q0 -14 -13 -14h-43q-13 0 -13 14zM225 64h102q84 0 84 87v341q0 87 -84 87h-102q-83 0 -83 -87v-341q0 -87 83 -87zM336 0h-119
q-69 0 -108.5 39t-39.5 109v347q0 70 39.5 109t108.5 39h119q69 0 108.5 -39.5t39.5 -108.5v-347q0 -69 -39.5 -108.5t-108.5 -39.5z" />
    <glyph glyph-name="multiply" unicode="&#xd7;" horiz-adv-x="501" 
d="M295 321l110 -110q12 -11 0 -21l-24 -24q-10 -10 -22 0l-109 110l-110 -110q-10 -10 -21 0l-24 24q-12 10 -1 21l110 110l-109 110q-11 11 0 21l24 24q10 12 21 0l110 -109l109 109q12 12 22 0l24 -24q11 -10 0 -21z" />
    <glyph glyph-name="Oslash" unicode="&#xd8;" horiz-adv-x="565" 
d="M491 495v-347q0 -70 -39.5 -109t-107.5 -39h-123q-70 0 -111 41l-23 -32q-9 -12 -21 -4l-14 11q-11 8 -2 21l34 47q-11 30 -11 64v347q0 70 39.5 109t108.5 39h123q71 0 110 -42l23 32q10 12 21 4l15 -10q11 -7 2 -21l-34 -48q10 -30 10 -63zM146 492v-321l264 368
q-20 40 -75 40h-105q-84 0 -84 -87zM419 151v321l-264 -368q18 -40 75 -40h105q84 0 84 87z" />
    <glyph glyph-name="Ugrave" unicode="&#xd9;" horiz-adv-x="554" 
d="M301 707h-33q-12 0 -20 10l-87 105q-4 6 -2 10t8 4h61q14 0 21 -13l58 -102q8 -14 -6 -14zM421 643h45q14 0 14 -13v-482q0 -70 -39 -109t-108 -39h-111q-69 0 -108.5 39t-39.5 109v481q0 14 14 14h45q14 0 14 -14v-478q0 -87 83 -87h94q84 0 84 87v478q0 14 13 14z" />
    <glyph glyph-name="Uacute" unicode="&#xda;" horiz-adv-x="554" 
d="M328 836h60q7 0 9 -4t-2 -10l-88 -105q-7 -10 -19 -10h-33q-14 0 -6 14l57 102q7 13 22 13zM421 643h45q14 0 14 -13v-482q0 -70 -39 -109t-108 -39h-111q-69 0 -108.5 39t-39.5 109v481q0 14 14 14h45q14 0 14 -14v-478q0 -87 83 -87h94q84 0 84 87v478q0 14 13 14z" />
    <glyph glyph-name="Ucircumflex" unicode="&#xdb;" horiz-adv-x="554" 
d="M374 707h-34q-10 0 -14 8l-48 88l-47 -88q-4 -8 -14 -8h-33q-14 0 -7 12l64 107q7 10 20 10h34q14 0 21 -10l63 -107q7 -12 -5 -12zM421 643h45q14 0 14 -13v-482q0 -70 -39 -109t-108 -39h-111q-69 0 -108.5 39t-39.5 109v481q0 14 14 14h45q14 0 14 -14v-478
q0 -87 83 -87h94q84 0 84 87v478q0 14 13 14z" />
    <glyph glyph-name="Udieresis" unicode="&#xdc;" horiz-adv-x="554" 
d="M157 721v101q0 14 13 14h43q13 0 13 -13v-102q0 -14 -13 -14h-43q-13 0 -13 14zM328 721v101q0 14 13 14h43q13 0 13 -13v-102q0 -14 -13 -14h-43q-13 0 -13 14zM421 643h45q14 0 14 -13v-482q0 -70 -39 -109t-108 -39h-111q-69 0 -108.5 39t-39.5 109v481q0 14 14 14h45
q14 0 14 -14v-478q0 -87 83 -87h94q84 0 84 87v478q0 14 13 14z" />
    <glyph glyph-name="Yacute" unicode="&#xdd;" horiz-adv-x="500" 
d="M301 836h61q6 0 8.5 -4t-2.5 -10l-87 -105q-8 -10 -20 -10h-33q-14 0 -6 14l58 102q7 13 21 13zM272 0h-45q-14 0 -14 14v227l-190 387q-3 7 0 11t9 4h56q11 0 17 -14l143 -303h5l142 303q4 14 16 14h57q17 0 9 -15l-191 -387v-227q0 -14 -14 -14z" />
    <glyph glyph-name="Thorn" unicode="&#xde;" horiz-adv-x="502" 
d="M187 197h97q84 0 84 86v76q0 87 -84 87h-97q-10 0 -10 -9v-231q0 -9 10 -9zM164 0h-46q-13 0 -13 14v615q0 14 13 14h46q13 0 13 -14v-110q0 -9 11 -9h106q68 0 107.5 -39t39.5 -109v-82q0 -70 -39.5 -109t-107.5 -39h-106q-11 0 -11 -9v-109q0 -14 -13 -14z" />
    <glyph glyph-name="germandbls" unicode="&#xdf;" horiz-adv-x="541" 
d="M263 354h42q42 0 66 22.5t24 64.5v53q0 86 -85 86h-81q-84 0 -84 -86v-480q0 -14 -14 -14h-45q-14 0 -14 14v481q0 70 39.5 109t108.5 39h99q69 0 108.5 -39.5t39.5 -109.5v-56q0 -83 -75 -115q39 -9 62 -42t23 -77v-60q0 -69 -39.5 -106.5t-108.5 -37.5h-84
q-14 0 -14 13v36q0 13 14 13h75q85 0 85 87v55q0 42 -26.5 64.5t-69.5 22.5h-46q-14 0 -14 13v36q0 14 14 14z" />
    <glyph glyph-name="agrave" unicode="&#xe0;" horiz-adv-x="507" 
d="M301 574h-34q-11 0 -19 10l-87 105q-5 6 -2.5 10t8.5 4h61q14 0 21 -13l58 -102q8 -14 -6 -14zM259 0h-52q-69 0 -108.5 39t-39.5 109v214q0 70 39.5 109t108.5 39h217q14 0 14 -14v-482q0 -14 -14 -14h-45q-14 0 -14 14v39h-4q-25 -53 -102 -53zM365 156v281q0 9 -10 9
h-140q-83 0 -83 -87v-208q0 -87 83 -87h57q45 0 69 24t24 68z" />
    <glyph glyph-name="aacute" unicode="&#xe1;" horiz-adv-x="507" 
d="M316 703h60q7 0 9 -4t-2 -10l-87 -105q-10 -10 -21 -10h-32q-14 0 -6 14l58 102q6 13 21 13zM259 0h-52q-69 0 -108.5 39t-39.5 109v214q0 70 39.5 109t108.5 39h217q14 0 14 -14v-482q0 -14 -14 -14h-45q-14 0 -14 14v39h-4q-25 -53 -102 -53zM365 156v281q0 9 -10 9
h-140q-83 0 -83 -87v-208q0 -87 83 -87h57q45 0 69 24t24 68z" />
    <glyph glyph-name="acircumflex" unicode="&#xe2;" horiz-adv-x="507" 
d="M360 574h-34q-10 0 -14 8l-47 88l-48 -88q-3 -8 -14 -8h-33q-13 0 -6 12l63 107q7 10 21 10h34q13 0 20 -10l63 -107q7 -12 -5 -12zM259 0h-52q-69 0 -108.5 39t-39.5 109v214q0 70 39.5 109t108.5 39h217q14 0 14 -14v-482q0 -14 -14 -14h-45q-14 0 -14 14v39h-4
q-25 -53 -102 -53zM365 156v281q0 9 -10 9h-140q-83 0 -83 -87v-208q0 -87 83 -87h57q45 0 69 24t24 68z" />
    <glyph glyph-name="atilde" unicode="&#xe3;" horiz-adv-x="508" 
d="M161 653v38q0 11 10 11h21q9 0 9 -11v-26q0 -28 5 -38t17.5 -10t19 8t19 35t24.5 36t40 9q56 0 56 -77v-40q0 -11 -9 -11h-21q-9 0 -9 11v27q0 29 -5 39t-15.5 10t-14 -1t-8 -7t-6.5 -10.5t-12 -27.5t-23 -32.5t-41 -9.5q-57 0 -57 77zM259 0h-52q-69 0 -108.5 39
t-39.5 109v214q0 70 39.5 109t108.5 39h217q14 0 14 -14v-482q0 -14 -14 -14h-45q-14 0 -14 14v39h-4q-25 -53 -102 -53zM365 156v281q0 9 -10 9h-140q-83 0 -83 -87v-208q0 -87 83 -87h57q45 0 69 24t24 68z" />
    <glyph glyph-name="adieresis" unicode="&#xe4;" horiz-adv-x="507" 
d="M150 588v101q0 14 12 14h43q13 0 13 -13v-102q0 -14 -13 -14h-43q-12 0 -12 14zM321 588v101q0 14 12 14h43q13 0 13 -13v-102q0 -14 -13 -14h-43q-12 0 -12 14zM259 0h-52q-69 0 -108.5 39t-39.5 109v214q0 70 39.5 109t108.5 39h217q14 0 14 -14v-482q0 -14 -14 -14
h-45q-14 0 -14 14v39h-4q-25 -53 -102 -53zM365 156v281q0 9 -10 9h-140q-83 0 -83 -87v-208q0 -87 83 -87h57q45 0 69 24t24 68z" />
    <glyph glyph-name="aring" unicode="&#xe5;" horiz-adv-x="507" 
d="M365 156v281q0 9 -10 9h-140q-83 0 -83 -87v-208q0 -87 83 -87h57q45 0 69 24t24 68zM259 0h-52q-69 0 -108.5 39t-39.5 109v214q0 70 39.5 109t108.5 39h217q14 0 14 -14v-482q0 -14 -14 -14h-45q-14 0 -14 14v39h-4q-25 -53 -102 -53zM211 659v-36q0 -22 9 -30t31 -8
h15q22 0 31 8t9 30v36q0 22 -9 30t-31 8h-15q-22 0 -31 -8t-9 -30zM179 615v54q0 58 63 58h33q65 0 65 -58v-54q0 -59 -65 -59h-33q-63 0 -63 59z" />
    <glyph glyph-name="ae" unicode="&#xe6;" horiz-adv-x="784" 
d="M432 194v-43q0 -87 84 -87h196q14 0 14 -14v-37q0 -13 -14 -13h-205q-88 0 -122 64q-32 -64 -132 -64h-48q-68 0 -108 38.5t-40 106.5v20q0 69 39 107t109 38h146q8 0 8 8v42q0 86 -83 86h-157q-14 0 -14 14v36q0 14 14 14h155q91 0 123 -63q31 63 121 63h61
q69 0 108 -39t39 -109v-144q0 -15 -14 -15h-270q-10 0 -10 -9zM661 266v93q0 87 -84 87h-56q-89 0 -89 -84v-96q0 -10 10 -10h209q10 0 10 10zM360 152v93q0 9 -10 9h-136q-88 0 -88 -87v-18q0 -88 88 -88h53q93 0 93 91z" />
    <glyph glyph-name="ccedilla" unicode="&#xe7;" horiz-adv-x="399" 
d="M352 446h-137q-83 0 -83 -87v-208q0 -87 83 -87h137q14 0 14 -14v-37q0 -13 -14 -13h-66l-41 -43v-4q77 0 77 -64v-14q0 -63 -86 -63h-30q-13 0 -13 13v14q0 8 2.5 10.5t10.5 2.5h23q29 0 40 6.5t11 22.5v2q0 18 -11 24.5t-40 6.5h-16q-18 0 -23.5 15t6.5 29l37 42h-26
q-69 0 -108.5 39t-39.5 109v214q0 70 39.5 109t108.5 39h145q14 0 14 -14v-37q0 -13 -14 -13z" />
    <glyph glyph-name="egrave" unicode="&#xe8;" horiz-adv-x="492" 
d="M275 574h-33q-12 0 -19 10l-88 105q-4 6 -2 10t9 4h60q15 0 22 -13l57 -102q8 -14 -6 -14zM419 0h-212q-69 0 -108.5 39t-39.5 109v214q0 70 39.5 109t108.5 39h84q69 0 108 -39t39 -109v-127q0 -15 -14 -15h-283q-10 0 -10 -9v-61q0 -87 84 -87h204q14 0 14 -14v-36
q0 -13 -14 -13zM141 273h216q10 0 10 10v77q0 86 -84 86h-68q-84 0 -84 -86v-77q0 -10 10 -10z" />
    <glyph glyph-name="eacute" unicode="&#xe9;" horiz-adv-x="492" 
d="M294 703h60q7 0 9 -4t-2 -10l-87 -105q-10 -10 -20 -10h-33q-14 0 -6 14l58 102q6 13 21 13zM419 0h-212q-69 0 -108.5 39t-39.5 109v214q0 70 39.5 109t108.5 39h84q69 0 108 -39t39 -109v-127q0 -15 -14 -15h-283q-10 0 -10 -9v-61q0 -87 84 -87h204q14 0 14 -14v-36
q0 -13 -14 -13zM141 273h216q10 0 10 10v77q0 86 -84 86h-68q-84 0 -84 -86v-77q0 -10 10 -10z" />
    <glyph glyph-name="ecircumflex" unicode="&#xea;" horiz-adv-x="492" 
d="M346 574h-34q-10 0 -14 8l-47 88l-47 -88q-4 -8 -14 -8h-34q-13 0 -6 12l63 107q7 10 21 10h34q13 0 20 -10l64 -107q7 -12 -6 -12zM419 0h-212q-69 0 -108.5 39t-39.5 109v214q0 70 39.5 109t108.5 39h84q69 0 108 -39t39 -109v-127q0 -15 -14 -15h-283q-10 0 -10 -9
v-61q0 -87 84 -87h204q14 0 14 -14v-36q0 -13 -14 -13zM141 273h216q10 0 10 10v77q0 86 -84 86h-68q-84 0 -84 -86v-77q0 -10 10 -10z" />
    <glyph glyph-name="edieresis" unicode="&#xeb;" horiz-adv-x="492" 
d="M131 588v101q0 14 13 14h43q13 0 13 -13v-102q0 -14 -13 -14h-43q-13 0 -13 14zM302 588v101q0 14 13 14h43q13 0 13 -13v-102q0 -14 -13 -14h-43q-13 0 -13 14zM419 0h-212q-69 0 -108.5 39t-39.5 109v214q0 70 39.5 109t108.5 39h84q69 0 108 -39t39 -109v-127
q0 -15 -14 -15h-283q-10 0 -10 -9v-61q0 -87 84 -87h204q14 0 14 -14v-36q0 -13 -14 -13zM141 273h216q10 0 10 10v77q0 86 -84 86h-68q-84 0 -84 -86v-77q0 -10 10 -10z" />
    <glyph glyph-name="igrave" unicode="&#xec;" horiz-adv-x="221" 
d="M126 574h-33q-11 0 -19 10l-87 105q-4 6 -2 10t8 4h60q15 0 22 -13l58 -102q8 -14 -7 -14zM74 14v482q0 14 13 14h46q14 0 14 -14v-482q0 -14 -14 -14h-45q-14 0 -14 14z" />
    <glyph glyph-name="iacute" unicode="&#xed;" horiz-adv-x="220" 
d="M167 703h59q7 0 9 -4t-2 -10l-87 -105q-8 -10 -20 -10h-33q-14 0 -6 14l58 102q7 13 22 13zM74 14v482q0 14 13 14h46q14 0 14 -14v-482q0 -14 -14 -14h-45q-14 0 -14 14z" />
    <glyph glyph-name="icircumflex" unicode="&#xee;" horiz-adv-x="220" 
d="M206 574h-35q-10 0 -13 8l-48 88l-47 -88q-4 -8 -14 -8h-34q-13 0 -6 12l64 107q7 10 20 10h34q14 0 21 -10l63 -107q7 -12 -5 -12zM74 14v482q0 14 13 14h46q14 0 14 -14v-482q0 -14 -14 -14h-45q-14 0 -14 14z" />
    <glyph glyph-name="idieresis" unicode="&#xef;" horiz-adv-x="220" 
d="M-10 588v101q0 14 13 14h43q13 0 13 -13v-102q0 -14 -13 -14h-43q-13 0 -13 14zM161 588v101q0 14 13 14h43q13 0 13 -13v-102q0 -14 -13 -14h-43q-13 0 -13 14zM74 14v482q0 14 13 14h46q14 0 14 -14v-482q0 -14 -14 -14h-45q-14 0 -14 14z" />
    <glyph glyph-name="eth" unicode="&#xf0;" horiz-adv-x="494" 
d="M434 336v-188q0 -70 -39 -109t-108 -39h-80q-69 0 -108.5 39t-39.5 109v114q0 70 39.5 109t108.5 39h52q38 0 66.5 -14.5t39.5 -38.5h4q-3 38 -29 70l-99 111l-94 -78q-10 -7 -19 2l-16 20q-8 9 2 19l91 77l-73 82q-12 14 2 25l22 16q12 10 23 -3l73 -80l96 81
q13 8 20 -1l16 -20q8 -12 -1 -21l-95 -79l105 -117q41 -45 41 -125zM361 151v103q0 92 -89 92h-53q-42 0 -64.5 -22.5t-22.5 -64.5v-108q0 -87 83 -87h62q84 0 84 87z" />
    <glyph glyph-name="ntilde" unicode="&#xf1;" horiz-adv-x="512" 
d="M144 653v38q0 11 9 11h21q9 0 9 -11v-26q0 -28 5 -38t17.5 -10t19 8t19 35t24.5 36t40 9q56 0 56 -77v-40q0 -11 -8 -11h-21q-10 0 -10 11v27q0 29 -5 39t-15.5 10t-14 -1t-8 -7t-6.5 -10.5t-11.5 -27.5t-23 -32.5t-41.5 -9.5q-56 0 -56 77zM128 0h-45q-14 0 -14 14v482
q0 14 14 14h45q14 0 14 -14v-39h4q25 53 102 53h56q68 0 106 -39t38 -109v-348q0 -14 -14 -14h-45q-14 0 -14 14v345q0 87 -84 87h-56q-45 0 -69 -24t-24 -68v-340q0 -14 -14 -14z" />
    <glyph glyph-name="ograve" unicode="&#xf2;" horiz-adv-x="500" 
d="M270 574h-33q-10 0 -20 10l-87 105q-4 6 -2 10t9 4h60q15 0 22 -13l57 -102q8 -14 -6 -14zM293 0h-86q-69 0 -108.5 39t-39.5 109v214q0 70 39.5 109t108.5 39h86q69 0 108.5 -39t39.5 -109v-214q0 -70 -39.5 -109t-108.5 -39zM215 64h70q84 0 84 86v210q0 86 -84 86h-70
q-84 0 -84 -86v-210q0 -86 84 -86z" />
    <glyph glyph-name="oacute" unicode="&#xf3;" horiz-adv-x="500" 
d="M305 703h61q6 0 8 -4t-2 -10l-87 -105q-10 -10 -20 -10h-33q-14 0 -6 14l58 102q7 13 21 13zM293 0h-86q-69 0 -108.5 39t-39.5 109v214q0 70 39.5 109t108.5 39h86q69 0 108.5 -39t39.5 -109v-214q0 -70 -39.5 -109t-108.5 -39zM215 64h70q84 0 84 86v210q0 86 -84 86
h-70q-84 0 -84 -86v-210q0 -86 84 -86z" />
    <glyph glyph-name="ocircumflex" unicode="&#xf4;" horiz-adv-x="500" 
d="M345 574h-34q-10 0 -14 8l-47 88l-48 -88q-3 -8 -14 -8h-33q-13 0 -6 12l63 107q7 10 21 10h34q13 0 20 -10l63 -107q7 -12 -5 -12zM293 0h-86q-69 0 -108.5 39t-39.5 109v214q0 70 39.5 109t108.5 39h86q69 0 108.5 -39t39.5 -109v-214q0 -70 -39.5 -109t-108.5 -39z
M215 64h70q84 0 84 86v210q0 86 -84 86h-70q-84 0 -84 -86v-210q0 -86 84 -86z" />
    <glyph glyph-name="otilde" unicode="&#xf5;" horiz-adv-x="500" 
d="M136 653v38q0 11 9 11h21q9 0 9 -11v-26q0 -28 5 -38t17.5 -10t19 8t19 35t24.5 36t40 9q56 0 56 -77v-40q0 -11 -8 -11h-21q-10 0 -10 11v27q0 29 -5 39t-15.5 10t-14 -1t-8 -7t-6.5 -10.5t-11.5 -27.5t-23 -32.5t-41.5 -9.5q-56 0 -56 77zM293 0h-86q-69 0 -108.5 39
t-39.5 109v214q0 70 39.5 109t108.5 39h86q69 0 108.5 -39t39.5 -109v-214q0 -70 -39.5 -109t-108.5 -39zM215 64h70q84 0 84 86v210q0 86 -84 86h-70q-84 0 -84 -86v-210q0 -86 84 -86z" />
    <glyph glyph-name="odieresis" unicode="&#xf6;" horiz-adv-x="500" 
d="M130 588v101q0 14 13 14h43q13 0 13 -13v-102q0 -14 -13 -14h-43q-13 0 -13 14zM301 588v101q0 14 13 14h43q13 0 13 -13v-102q0 -14 -13 -14h-43q-13 0 -13 14zM293 0h-86q-69 0 -108.5 39t-39.5 109v214q0 70 39.5 109t108.5 39h86q69 0 108.5 -39t39.5 -109v-214
q0 -70 -39.5 -109t-108.5 -39zM215 64h70q84 0 84 86v210q0 86 -84 86h-70q-84 0 -84 -86v-210q0 -86 84 -86z" />
    <glyph glyph-name="divide" unicode="&#xf7;" horiz-adv-x="496" 
d="M221 151v57q0 14 14 14h27q14 0 14 -14v-57q0 -14 -14 -14h-27q-14 0 -14 14zM409 294h-321q-15 0 -15 14v26q0 13 15 13h321q14 0 14 -13v-26q0 -14 -14 -14zM221 433v58q0 14 14 14h27q14 0 14 -14v-58q0 -14 -14 -14h-27q-14 0 -14 14z" />
    <glyph glyph-name="oslash" unicode="&#xf8;" horiz-adv-x="521" 
d="M452 362v-214q0 -69 -39.5 -108.5t-108.5 -39.5h-87q-84 0 -123 56l-34 -34q-11 -10 -20 0l-12 12q-10 10 0 20l47 47q-6 21 -6 47v214q0 69 39.5 108.5t108.5 39.5h87q84 0 123 -57l34 34q10 11 20 1l12 -12q10 -10 0 -20l-47 -47q6 -21 6 -47zM142 359v-191l230 230
q-15 48 -77 48h-69q-84 0 -84 -87zM378 151v190l-230 -231q17 -46 78 -46h69q83 0 83 87z" />
    <glyph glyph-name="ugrave" unicode="&#xf9;" horiz-adv-x="512" 
d="M274 574h-33q-12 0 -20 10l-87 105q-4 6 -2 10t9 4h60q15 0 21 -13l58 -102q8 -14 -6 -14zM264 0h-56q-68 0 -106 39t-38 109v348q0 14 14 14h45q14 0 14 -14v-345q0 -87 83 -87h57q45 0 69 24t24 68v340q0 14 14 14h45q14 0 14 -14v-482q0 -14 -14 -14h-45q-14 0 -14 14
v39h-4q-25 -53 -102 -53z" />
    <glyph glyph-name="uacute" unicode="&#xfa;" horiz-adv-x="512" 
d="M306 703h61q6 0 8 -4t-2 -10l-87 -105q-10 -10 -20 -10h-33q-14 0 -6 14l58 102q6 13 21 13zM264 0h-56q-68 0 -106 39t-38 109v348q0 14 14 14h45q14 0 14 -14v-345q0 -87 83 -87h57q45 0 69 24t24 68v340q0 14 14 14h45q14 0 14 -14v-482q0 -14 -14 -14h-45
q-14 0 -14 14v39h-4q-25 -53 -102 -53z" />
    <glyph glyph-name="ucircumflex" unicode="&#xfb;" horiz-adv-x="512" 
d="M349 574h-34q-11 0 -14 8l-48 88l-47 -88q-4 -8 -14 -8h-34q-12 0 -5 12l63 107q7 10 21 10h33q14 0 21 -10l63 -107q7 -12 -5 -12zM264 0h-56q-68 0 -106 39t-38 109v348q0 14 14 14h45q14 0 14 -14v-345q0 -87 83 -87h57q45 0 69 24t24 68v340q0 14 14 14h45
q14 0 14 -14v-482q0 -14 -14 -14h-45q-14 0 -14 14v39h-4q-25 -53 -102 -53z" />
    <glyph glyph-name="udieresis" unicode="&#xfc;" horiz-adv-x="512" 
d="M134 588v101q0 14 12 14h43q13 0 13 -13v-102q0 -14 -13 -14h-43q-12 0 -12 14zM305 588v101q0 14 12 14h43q13 0 13 -13v-102q0 -14 -13 -14h-43q-12 0 -12 14zM264 0h-56q-68 0 -106 39t-38 109v348q0 14 14 14h45q14 0 14 -14v-345q0 -87 83 -87h57q45 0 69 24t24 68
v340q0 14 14 14h45q14 0 14 -14v-482q0 -14 -14 -14h-45q-14 0 -14 14v39h-4q-25 -53 -102 -53z" />
    <glyph glyph-name="yacute" unicode="&#xfd;" horiz-adv-x="463" 
d="M287 703h60q7 0 9 -4t-2 -10l-88 -105q-8 -10 -20 -10h-32q-13 0 -7 14l58 102q7 13 22 13zM110 -157h-44q-14 0 -14 14v37q0 14 14 14h25q64 0 90 36q21 29 38 83h-29q-12 0 -17 14l-147 455q-4 14 10 14h48q13 0 17 -14l129 -412h4l129 412q3 14 16 14h46q17 0 12 -15
l-149 -475q-25 -85 -63.5 -131t-114.5 -46z" />
    <glyph glyph-name="thorn" unicode="&#xfe;" horiz-adv-x="514" 
d="M238 64h60q84 0 84 87v208q0 87 -84 87h-60q-45 0 -69 -24t-24 -68v-198q0 -44 24 -68t69 -24zM145 53v-172q0 -14 -14 -14h-45q-14 0 -14 14v808q0 14 14 14h45q14 0 14 -14v-232h4q25 53 102 53h56q69 0 108.5 -39.5t39.5 -108.5v-214q0 -69 -39.5 -108.5t-108.5 -39.5
h-56q-77 0 -102 53h-4z" />
    <glyph glyph-name="ydieresis" unicode="&#xff;" horiz-adv-x="463" 
d="M112 588v101q0 14 13 14h43q13 0 13 -13v-102q0 -14 -13 -14h-43q-13 0 -13 14zM283 588v101q0 14 13 14h43q13 0 13 -13v-102q0 -14 -13 -14h-43q-13 0 -13 14zM110 -157h-44q-14 0 -14 14v37q0 14 14 14h25q64 0 90 36q21 29 38 83h-29q-12 0 -17 14l-147 455
q-4 14 10 14h48q13 0 17 -14l129 -412h4l129 412q3 14 16 14h46q17 0 12 -15l-149 -475q-25 -85 -63.5 -131t-114.5 -46z" />
    <glyph glyph-name="Amacron" unicode="&#x100;" horiz-adv-x="539" 
d="M370 746h-201q-14 0 -14 14v26q0 14 14 14h201q14 0 14 -14v-26q0 -14 -14 -14zM87 0h-50q-13 0 -9 14l187 615q4 14 19 14h72q15 0 19 -14l187 -615q4 -14 -9 -14h-51q-11 0 -14 14l-47 146h-242l-47 -146q-4 -14 -15 -14zM268 568l-103 -346h210l-103 346h-4z" />
    <glyph glyph-name="amacron" unicode="&#x101;" horiz-adv-x="507" 
d="M378 613h-201q-14 0 -14 14v24q0 14 14 14h201q14 0 14 -14v-24q0 -14 -14 -14zM259 0h-52q-69 0 -108.5 39t-39.5 109v214q0 70 39.5 109t108.5 39h217q14 0 14 -14v-482q0 -14 -14 -14h-45q-14 0 -14 14v39h-4q-25 -53 -102 -53zM365 156v281q0 9 -10 9h-140
q-83 0 -83 -87v-208q0 -87 83 -87h57q45 0 69 24t24 68z" />
    <glyph glyph-name="Abreve" unicode="&#x102;" horiz-adv-x="539" 
d="M165 825q0 11 11 11h27q11 0 11 -11v-10q0 -37 12 -52.5t41 -15.5h5q30 0 42.5 15.5t12.5 52.5v10q0 10 10 10h26q11 0 11 -10v-12q0 -106 -96 -106h-18q-95 0 -95 106v12zM87 0h-50q-13 0 -9 14l187 615q4 14 19 14h72q15 0 19 -14l187 -615q4 -14 -9 -14h-51
q-11 0 -14 14l-47 146h-242l-47 -146q-4 -14 -15 -14zM268 568l-103 -346h210l-103 346h-4z" />
    <glyph glyph-name="abreve" unicode="&#x103;" horiz-adv-x="507" 
d="M365 156v281q0 9 -10 9h-140q-83 0 -83 -87v-208q0 -87 83 -87h57q45 0 69 24t24 68zM259 0h-52q-69 0 -108.5 39t-39.5 109v214q0 70 39.5 109t108.5 39h217q14 0 14 -14v-482q0 -14 -14 -14h-45q-14 0 -14 14v39h-4q-25 -53 -102 -53zM167 680v12q0 11 11 11h27
q11 0 11 -11v-10q0 -37 12 -52.5t41 -15.5h5q30 0 42 15.5t12 52.5v10q0 10 11 10h26q11 0 11 -10v-12q0 -106 -96 -106h-18q-95 0 -95 106z" />
    <glyph glyph-name="Aogonek" unicode="&#x104;" horiz-adv-x="539" 
d="M503 0h-38l-48 -67h39q16 0 21 -3t5 -11q0 -13 -25 -21.5t-52 -8.5t-34.5 14t4.5 30l61 86l-45 141h-242l-47 -146q-4 -14 -15 -14h-50q-13 0 -9 14l187 615q4 14 19 14h72q15 0 19 -14l187 -615q4 -14 -9 -14zM165 222h210l-103 346h-4z" />
    <glyph glyph-name="aogonek" unicode="&#x105;" horiz-adv-x="507" 
d="M207 510h217q14 0 14 -14v-482q0 -14 -14 -14h-31q-50 -69 -46 -69q26 0 40 2q14 0 19 -3t4 -10q-1 -14 -25.5 -24t-50 -10t-30.5 19.5t8 34.5l53 77v36h-4q-25 -53 -102 -53h-52q-69 0 -108.5 39t-39.5 109v214q0 70 39.5 109t108.5 39zM215 64h57q45 0 69 24t24 68v281
q0 9 -10 9h-140q-83 0 -83 -87v-208q0 -87 83 -87z" />
    <glyph glyph-name="Cacute" unicode="&#x106;" horiz-adv-x="541" 
d="M337 0h-120q-69 0 -108.5 39t-39.5 109v347q0 70 39.5 109t108.5 39h120q69 0 108.5 -39t39.5 -109v-49q0 -14 -14 -14h-45q-14 0 -14 14v46q0 87 -84 87h-103q-83 0 -83 -87v-341q0 -87 83 -87h103q84 0 84 87v46q0 14 14 14h45q14 0 14 -14v-49q0 -70 -39.5 -109
t-108.5 -39zM323 836h60q7 0 9 -4t-2 -10l-87 -105q-8 -10 -20 -10h-33q-14 0 -6 14l57 102q7 13 22 13z" />
    <glyph glyph-name="cacute" unicode="&#x107;" horiz-adv-x="399" 
d="M278 703h60q7 0 9 -4t-2 -10l-87 -105q-10 -10 -20 -10h-33q-14 0 -6 14l57 102q9 13 22 13zM366 50v-37q0 -13 -14 -13h-145q-69 0 -108.5 39t-39.5 109v214q0 70 39.5 109t108.5 39h145q14 0 14 -14v-37q0 -13 -14 -13h-137q-83 0 -83 -87v-208q0 -87 83 -87h137
q14 0 14 -14z" />
    <glyph glyph-name="Cdotaccent" unicode="&#x10a;" horiz-adv-x="541" 
d="M337 0h-120q-69 0 -108.5 39t-39.5 109v347q0 70 39.5 109t108.5 39h120q69 0 108.5 -39t39.5 -109v-49q0 -14 -14 -14h-45q-14 0 -14 14v46q0 87 -84 87h-103q-83 0 -83 -87v-341q0 -87 83 -87h103q84 0 84 87v46q0 14 14 14h45q14 0 14 -14v-49q0 -70 -39.5 -109
t-108.5 -39zM241 725v97q0 14 13 14h46q13 0 13 -14v-97q0 -14 -13 -14h-46q-13 0 -13 14z" />
    <glyph glyph-name="cdotaccent" unicode="&#x10b;" horiz-adv-x="399" 
d="M197 590v97q0 14 13 14h46q13 0 13 -13v-98q0 -14 -13 -14h-46q-13 0 -13 14zM366 50v-37q0 -13 -14 -13h-145q-69 0 -108.5 39t-39.5 109v214q0 70 39.5 109t108.5 39h145q14 0 14 -14v-37q0 -13 -14 -13h-137q-83 0 -83 -87v-208q0 -87 83 -87h137q14 0 14 -14z" />
    <glyph glyph-name="Ccaron" unicode="&#x10c;" horiz-adv-x="541" 
d="M337 0h-120q-69 0 -108.5 39t-39.5 109v347q0 70 39.5 109t108.5 39h120q69 0 108.5 -39t39.5 -109v-49q0 -14 -14 -14h-45q-14 0 -14 14v46q0 87 -84 87h-103q-83 0 -83 -87v-341q0 -87 83 -87h103q84 0 84 87v46q0 14 14 14h45q14 0 14 -14v-49q0 -70 -39.5 -109
t-108.5 -39zM295 707h-33q-14 0 -21 10l-63 107q-7 12 6 12h33q11 0 14 -8l48 -88l47 88q4 8 14 8h34q12 0 5 -12l-63 -107q-7 -10 -21 -10z" />
    <glyph glyph-name="ccaron" unicode="&#x10d;" horiz-adv-x="399" 
d="M220 574q-14 0 -21 10l-63 107q-7 12 6 12h34q10 0 14 -8l47 -88l47 88q4 8 14 8h34q13 0 6 -12l-64 -107q-7 -10 -20 -10h-34zM366 50v-37q0 -13 -14 -13h-145q-69 0 -108.5 39t-39.5 109v214q0 70 39.5 109t108.5 39h145q14 0 14 -14v-37q0 -13 -14 -13h-137
q-83 0 -83 -87v-208q0 -87 83 -87h137q14 0 14 -14z" />
    <glyph glyph-name="Dcaron" unicode="&#x10e;" horiz-adv-x="556" 
d="M258 707q-14 0 -21 10l-63 107q-7 12 6 12h33q10 0 14 -8l47 -88l48 88q4 8 14 8h34q12 0 5 -12l-63 -107q-7 -10 -20 -10h-34zM162 64h168q84 0 84 87v341q0 87 -84 87h-168q-10 0 -10 -9v-497q0 -9 10 -9zM79 14v615q0 14 14 14h246q69 0 108.5 -39.5t39.5 -108.5v-347
q0 -69 -39.5 -108.5t-108.5 -39.5h-246q-14 0 -14 14z" />
    <glyph glyph-name="dcaron" unicode="&#x10f;" horiz-adv-x="563" 
d="M568 690v-58q0 -25 -15 -65l-33 -95q-4 -7 -11 -7q-11 0 -11 12v212q0 14 13 14h44q13 0 13 -13zM262 0h-59q-68 0 -106 39t-38 109v214q0 70 38 109t106 39h59q78 0 103 -53h4v232q0 14 13 14h46q13 0 13 -14v-675q0 -14 -13 -14h-46q-13 0 -13 14v39h-4
q-25 -53 -103 -53zM369 156v198q0 44 -24 68t-69 24h-61q-83 0 -83 -87v-208q0 -87 83 -87h61q45 0 69 24t24 68z" />
    <glyph glyph-name="Dcroat" unicode="&#x110;" horiz-adv-x="529" 
d="M168 64h168q84 0 84 87v341q0 87 -84 87h-168q-10 0 -10 -9v-165q0 -10 10 -10h126q14 0 14 -13v-30q0 -13 -14 -13h-126q-10 0 -10 -10v-256q0 -9 10 -9zM345 0h-246q-14 0 -14 14v315q0 10 -10 10h-37q-14 0 -14 13v30q0 13 14 13h37q10 0 10 10v224q0 14 14 14h246
q69 0 108.5 -39t39.5 -109v-347q0 -70 -39.5 -109t-108.5 -39z" />
    <glyph glyph-name="dcroat" unicode="&#x111;" horiz-adv-x="546" 
d="M262 0h-55q-69 0 -108.5 39t-39.5 109v152q0 69 39.5 108t108.5 39h55q78 0 103 -53h4v146q0 10 -11 10h-152q-13 0 -13 13v30q0 13 13 13h152q11 0 11 10v73q0 14 13 14h46q13 0 13 -14v-73q0 -10 11 -10h60q15 0 15 -13v-30q0 -13 -15 -13h-60q-11 0 -11 -10v-526
q0 -14 -13 -14h-46q-13 0 -13 14v39h-4q-25 -53 -103 -53zM369 156v136q0 43 -24 67t-69 24h-61q-83 0 -83 -87v-145q0 -87 83 -87h61q45 0 69 24t24 68z" />
    <glyph glyph-name="Emacron" unicode="&#x112;" horiz-adv-x="480" 
d="M350 746h-201q-14 0 -14 14v26q0 14 14 14h201q14 0 14 -14v-26q0 -14 -14 -14zM407 0h-314q-14 0 -14 14v615q0 14 14 14h314q14 0 14 -14v-36q0 -14 -14 -14h-245q-10 0 -10 -9v-202q0 -9 10 -9h214q14 0 14 -14v-36q0 -14 -14 -14h-214q-10 0 -10 -9v-213q0 -9 10 -9
h245q14 0 14 -14v-36q0 -14 -14 -14z" />
    <glyph glyph-name="emacron" unicode="&#x113;" horiz-adv-x="492" 
d="M351 613h-201q-14 0 -14 14v24q0 14 14 14h201q15 0 15 -14v-24q0 -14 -15 -14zM419 0h-212q-69 0 -108.5 39t-39.5 109v214q0 70 39.5 109t108.5 39h84q69 0 108 -39t39 -109v-127q0 -15 -14 -15h-283q-10 0 -10 -9v-61q0 -87 84 -87h204q14 0 14 -14v-36q0 -13 -14 -13
zM141 273h216q10 0 10 10v77q0 86 -84 86h-68q-84 0 -84 -86v-77q0 -10 10 -10z" />
    <glyph glyph-name="Ebreve" unicode="&#x114;" horiz-adv-x="480" 
d="M141 825q0 11 11 11h28q10 0 10 -11v-10q0 -37 12 -52.5t41 -15.5h5q30 0 42.5 15.5t12.5 52.5v10q0 10 10 10h26q11 0 11 -10v-12q0 -106 -96 -106h-17q-96 0 -96 106v12zM407 0h-314q-14 0 -14 14v615q0 14 14 14h314q14 0 14 -14v-36q0 -14 -14 -14h-245q-10 0 -10 -9
v-202q0 -9 10 -9h214q14 0 14 -14v-36q0 -14 -14 -14h-214q-10 0 -10 -9v-213q0 -9 10 -9h245q14 0 14 -14v-36q0 -14 -14 -14z" />
    <glyph glyph-name="ebreve" unicode="&#x115;" horiz-adv-x="492" 
d="M141 273h216q10 0 10 10v77q0 86 -84 86h-68q-84 0 -84 -86v-77q0 -10 10 -10zM419 0h-212q-69 0 -108.5 39t-39.5 109v214q0 70 39.5 109t108.5 39h84q69 0 108 -39t39 -109v-127q0 -15 -14 -15h-283q-10 0 -10 -9v-61q0 -87 84 -87h204q14 0 14 -14v-36q0 -13 -14 -13z
M144 680v12q0 11 11 11h27q10 0 10 -11v-10q0 -37 12 -52.5t41 -15.5h6q29 0 41.5 15.5t12.5 52.5v10q0 10 11 10h26q11 0 11 -10v-12q0 -106 -96 -106h-18q-95 0 -95 106z" />
    <glyph glyph-name="Edotaccent" unicode="&#x116;" horiz-adv-x="492" 
d="M213 725v97q0 14 14 14h46q13 0 13 -14v-97q0 -14 -13 -14h-46q-14 0 -14 14zM407 0h-314q-14 0 -14 14v615q0 14 14 14h314q14 0 14 -14v-36q0 -14 -14 -14h-245q-10 0 -10 -9v-202q0 -9 10 -9h214q14 0 14 -14v-36q0 -14 -14 -14h-214q-10 0 -10 -9v-213q0 -9 10 -9
h245q14 0 14 -14v-36q0 -14 -14 -14z" />
    <glyph glyph-name="edotaccent" unicode="&#x117;" horiz-adv-x="492" 
d="M215 590v97q0 14 13 14h46q14 0 14 -13v-98q0 -14 -14 -14h-46q-13 0 -13 14zM419 0h-212q-69 0 -108.5 39t-39.5 109v214q0 70 39.5 109t108.5 39h84q69 0 108 -39t39 -109v-127q0 -15 -14 -15h-283q-10 0 -10 -9v-61q0 -87 84 -87h204q14 0 14 -14v-36q0 -13 -14 -13z
M141 273h216q10 0 10 10v77q0 86 -84 86h-68q-84 0 -84 -86v-77q0 -10 10 -10z" />
    <glyph glyph-name="Eogonek" unicode="&#x118;" horiz-adv-x="480" 
d="M407 579h-245q-10 0 -10 -9v-202q0 -9 10 -9h214q14 0 14 -14v-36q0 -14 -14 -14h-214q-10 0 -10 -9v-213q0 -9 10 -9h245q14 0 14 -14v-36q0 -14 -14 -14h-48l-49 -67h40q16 0 21 -3t5 -11q0 -13 -25.5 -21.5t-53 -8.5t-34.5 14t6 30l48 67h-224q-14 0 -14 14v615
q0 14 14 14h314q14 0 14 -14v-36q0 -14 -14 -14z" />
    <glyph glyph-name="eogonek" unicode="&#x119;" horiz-adv-x="492" 
d="M207 510h84q69 0 108 -39t39 -109v-127q0 -15 -14 -15h-283q-10 0 -10 -9v-61q0 -87 84 -87h204q14 0 14 -14v-36q0 -13 -14 -13h-56q-50 -69 -46 -69q26 0 40 2q14 0 19 -2.5t4 -10.5q-1 -14 -26 -24t-49.5 -10t-29.5 19.5t7 34.5l41 60h-116q-69 0 -108.5 39t-39.5 109
v214q0 70 39.5 109t108.5 39zM367 283v77q0 86 -84 86h-68q-84 0 -84 -86v-77q0 -10 10 -10h216q10 0 10 10z" />
    <glyph glyph-name="Ecaron" unicode="&#x11a;" horiz-adv-x="480" 
d="M235 707q-13 0 -20 10l-63 107q-7 12 6 12h33q10 0 14 -8l48 -88l47 88q4 8 14 8h34q12 0 5 -12l-63 -107q-7 -10 -20 -10h-35zM407 0h-314q-14 0 -14 14v615q0 14 14 14h314q14 0 14 -14v-36q0 -14 -14 -14h-245q-10 0 -10 -9v-202q0 -9 10 -9h214q14 0 14 -14v-36
q0 -14 -14 -14h-214q-10 0 -10 -9v-213q0 -9 10 -9h245q14 0 14 -14v-36q0 -14 -14 -14z" />
    <glyph glyph-name="ecaron" unicode="&#x11b;" horiz-adv-x="492" 
d="M234 574q-14 0 -21 10l-63 107q-7 12 6 12h34q10 0 14 -8l47 -88l47 88q4 8 14 8h34q13 0 6 -12l-64 -107q-7 -10 -20 -10h-34zM419 0h-212q-69 0 -108.5 39t-39.5 109v214q0 70 39.5 109t108.5 39h84q69 0 108 -39t39 -109v-127q0 -15 -14 -15h-283q-10 0 -10 -9v-61
q0 -87 84 -87h204q14 0 14 -14v-36q0 -13 -14 -13zM141 273h216q10 0 10 10v77q0 86 -84 86h-68q-84 0 -84 -86v-77q0 -10 10 -10z" />
    <glyph glyph-name="Gcircumflex" unicode="&#x11c;" horiz-adv-x="541" 
d="M367 707h-34q-10 0 -14 8l-47 88l-48 -88q-3 -8 -14 -8h-33q-13 0 -6 12l63 107q7 10 20 10h35q13 0 20 -10l63 -107q7 -12 -5 -12zM325 0h-108q-69 0 -108.5 39t-39.5 109v347q0 70 39.5 109t108.5 39h108q69 0 108 -39.5t39 -108.5v-41q0 -15 -14 -15h-45q-14 0 -14 15
v38q0 87 -83 87h-91q-83 0 -83 -87v-341q0 -87 83 -87h91q83 0 83 87v112q0 10 -9 10h-99q-14 0 -14 13v37q0 14 14 14h161q20 0 20 -21v-168q0 -70 -39 -109t-108 -39z" />
    <glyph glyph-name="gcircumflex" unicode="&#x11d;" horiz-adv-x="510" 
d="M365 574h-34q-10 0 -14 8l-47 88l-47 -88q-4 -8 -14 -8h-34q-13 0 -6 12l63 107q7 10 21 10h34q13 0 20 -10l64 -107q7 -12 -6 -12zM262 27h-56q-68 0 -106 39t-38 109v187q0 70 39.5 109t108.5 39h217q14 0 14 -14v-496q0 -69 -39.5 -108.5t-108.5 -39.5h-184
q-15 0 -15 14v37q0 14 15 14h175q84 0 84 86v77h-4q-26 -53 -102 -53zM368 183v254q0 9 -10 9h-139q-84 0 -84 -87v-181q0 -87 84 -87h56q45 0 69 24t24 68z" />
    <glyph glyph-name="Gbreve" unicode="&#x11e;" horiz-adv-x="541" 
d="M167 825q0 11 10 11h28q10 0 10 -11v-10q0 -37 12 -52.5t41 -15.5h6q29 0 41.5 15.5t12.5 52.5v10q0 10 10 10h26q11 0 11 -10v-12q0 -106 -96 -106h-17q-95 0 -95 106v12zM325 0h-108q-69 0 -108.5 39t-39.5 109v347q0 70 39.5 109t108.5 39h108q69 0 108 -39.5
t39 -108.5v-41q0 -15 -14 -15h-45q-14 0 -14 15v38q0 87 -83 87h-91q-83 0 -83 -87v-341q0 -87 83 -87h91q83 0 83 87v112q0 10 -9 10h-99q-14 0 -14 13v37q0 14 14 14h161q20 0 20 -21v-168q0 -70 -39 -109t-108 -39z" />
    <glyph glyph-name="gbreve" unicode="&#x11f;" horiz-adv-x="510" 
d="M368 183v254q0 9 -10 9h-139q-84 0 -84 -87v-181q0 -87 84 -87h56q45 0 69 24t24 68zM262 27h-56q-68 0 -106 39t-38 109v187q0 70 39.5 109t108.5 39h217q14 0 14 -14v-496q0 -69 -39.5 -108.5t-108.5 -39.5h-184q-15 0 -15 14v37q0 14 15 14h175q84 0 84 86v77h-4
q-26 -53 -102 -53zM174 680v12q0 11 11 11h27q11 0 11 -11v-10q0 -37 11.5 -52.5t40.5 -15.5h6q29 0 41.5 15.5t12.5 52.5v10q0 10 11 10h26q11 0 11 -10v-12q0 -106 -97 -106h-17q-95 0 -95 106z" />
    <glyph glyph-name="Gdotaccent" unicode="&#x120;" horiz-adv-x="541" 
d="M234 725v97q0 14 13 14h46q13 0 13 -14v-97q0 -14 -13 -14h-46q-13 0 -13 14zM325 0h-108q-69 0 -108.5 39t-39.5 109v347q0 70 39.5 109t108.5 39h108q69 0 108 -39.5t39 -108.5v-41q0 -15 -14 -15h-45q-14 0 -14 15v38q0 87 -83 87h-91q-83 0 -83 -87v-341
q0 -87 83 -87h91q83 0 83 87v112q0 10 -9 10h-99q-14 0 -14 13v37q0 14 14 14h161q20 0 20 -21v-168q0 -70 -39 -109t-108 -39z" />
    <glyph glyph-name="gdotaccent" unicode="&#x121;" horiz-adv-x="510" 
d="M238 590v97q0 14 13 14h47q13 0 13 -13v-98q0 -14 -13 -14h-47q-13 0 -13 14zM262 27h-56q-68 0 -106 39t-38 109v187q0 70 39.5 109t108.5 39h217q14 0 14 -14v-496q0 -69 -39.5 -108.5t-108.5 -39.5h-184q-15 0 -15 14v37q0 14 15 14h175q84 0 84 86v77h-4
q-26 -53 -102 -53zM368 183v254q0 9 -10 9h-139q-84 0 -84 -87v-181q0 -87 84 -87h56q45 0 69 24t24 68z" />
    <glyph glyph-name="uni0122" unicode="&#x122;" horiz-adv-x="541" 
d="M321 -45v-47q0 -28 -15 -58l-33 -80q-5 -8 -11 -8q-11 0 -11 12v180q0 14 13 14h44q13 0 13 -13zM325 0h-108q-69 0 -108.5 39t-39.5 109v347q0 70 39.5 109t108.5 39h108q69 0 108 -39.5t39 -108.5v-41q0 -15 -14 -15h-45q-14 0 -14 15v38q0 87 -83 87h-91
q-83 0 -83 -87v-341q0 -87 83 -87h91q83 0 83 87v112q0 10 -9 10h-99q-14 0 -14 13v37q0 14 14 14h161q20 0 20 -21v-168q0 -70 -39 -109t-108 -39z" />
    <glyph glyph-name="uni0123" unicode="&#x123;" horiz-adv-x="510" 
d="M262 27h-56q-68 0 -106 39t-38 109v187q0 70 39.5 109t108.5 39h217q14 0 14 -14v-496q0 -69 -39.5 -108.5t-108.5 -39.5h-184q-15 0 -15 14v37q0 14 15 14h175q84 0 84 86v77h-4q-26 -53 -102 -53zM368 183v254q0 9 -10 9h-139q-84 0 -84 -87v-181q0 -87 84 -87h56
q45 0 69 24t24 68zM238 587v47q0 28 15 58l33 80q5 8 11 8q11 0 11 -13v-180q0 -13 -13 -13h-44q-13 0 -13 13z" />
    <glyph glyph-name="hcircumflex" unicode="&#x125;" horiz-adv-x="512" 
d="M383 641h-34q-10 0 -14 8l-47 87l-48 -87q-4 -8 -13 -8h-34q-13 0 -6 11l63 108q7 10 21 10h34q13 0 20 -10l64 -108q7 -11 -6 -11zM128 0h-45q-14 0 -14 14v675q0 14 14 14h45q14 0 14 -14v-232h4q25 53 102 53h56q68 0 106 -39t38 -109v-348q0 -14 -14 -14h-45
q-14 0 -14 14v345q0 87 -84 87h-56q-45 0 -69 -24t-24 -68v-340q0 -14 -14 -14z" />
    <glyph glyph-name="Hbar" unicode="&#x126;" horiz-adv-x="548" 
d="M148 0h-45q-14 0 -14 14v434q0 9 -10 9h-41q-14 0 -14 14v29q0 14 14 14h41q10 0 10 10v105q0 14 14 14h45q14 0 14 -14v-105q0 -10 10 -10h248q10 0 10 9v106q0 14 14 14h44q15 0 15 -14v-105q0 -10 10 -10h41q14 0 14 -14v-29q0 -14 -14 -14h-41q-10 0 -10 -9v-434
q0 -14 -15 -14h-44q-14 0 -14 14v262q0 9 -10 9h-248q-10 0 -10 -9v-262q0 -14 -14 -14zM172 349h248q10 0 10 10v89q0 9 -10 9h-248q-10 0 -10 -9v-89q0 -10 10 -10z" />
    <glyph glyph-name="hbar" unicode="&#x127;" horiz-adv-x="552" 
d="M163 0h-45q-14 0 -14 14v526q0 10 -10 10h-61q-14 0 -14 13v30q0 13 14 13h61q10 0 10 10v73q0 14 14 14h45q14 0 14 -14v-73q0 -10 10 -10h152q14 0 14 -13v-30q0 -13 -14 -13h-152q-10 0 -10 -10v-142h4q23 53 102 53h56q69 0 108.5 -39.5t39.5 -108.5v-289
q0 -14 -15 -14h-44q-14 0 -14 14v286q0 87 -84 87h-60q-45 0 -69 -24t-24 -68v-281q0 -14 -14 -14z" />
    <glyph glyph-name="Itilde" unicode="&#x128;" horiz-adv-x="240" 
d="M107.5 712q-13.5 -10 -41.5 -10q-56 0 -56 77v39q0 10 9 10h21q9 0 9 -10v-26q0 -29 5 -39t17.5 -10t19 8t19.5 35.5t25 36.5t41 9q55 0 55 -78v-39q0 -11 -9 -11h-21q-10 0 -10 11v27q0 29 -5 38.5t-18 9.5t-17.5 -6t-17 -34t-26 -38zM157 629v-615q0 -14 -14 -14h-45
q-14 0 -14 14v615q0 14 14 14h45q14 0 14 -14z" />
    <glyph glyph-name="itilde" unicode="&#x129;" horiz-adv-x="221" 
d="M0 653v38q0 11 9 11h21q9 0 9 -11v-26q0 -28 5 -38t17.5 -10t19 8t19 35t24.5 36t41 9q56 0 56 -77v-40q0 -11 -9 -11h-21q-10 0 -10 11v27q0 29 -5 39t-18 10t-17.5 -6t-17 -34.5t-26 -38t-41.5 -9.5q-56 0 -56 77zM74 14v482q0 14 13 14h46q14 0 14 -14v-482
q0 -14 -14 -14h-45q-14 0 -14 14z" />
    <glyph glyph-name="Imacron" unicode="&#x12a;" horiz-adv-x="240" 
d="M221 746h-201q-14 0 -14 14v26q0 14 14 14h201q14 0 14 -14v-26q0 -14 -14 -14zM157 629v-615q0 -14 -14 -14h-45q-14 0 -14 14v615q0 14 14 14h45q14 0 14 -14z" />
    <glyph glyph-name="imacron" unicode="&#x12b;" horiz-adv-x="219" 
d="M210 613h-201q-14 0 -14 14v24q0 14 14 14h201q14 0 14 -14v-24q0 -14 -14 -14zM74 14v482q0 14 13 14h46q14 0 14 -14v-482q0 -14 -14 -14h-45q-14 0 -14 14z" />
    <glyph glyph-name="Ibreve" unicode="&#x12c;" horiz-adv-x="241" 
d="M16 825q0 11 11 11h28q10 0 10 -11v-10q0 -37 12 -52.5t41 -15.5h5q30 0 42.5 15.5t12.5 52.5v10q0 10 10 10h26q11 0 11 -10v-12q0 -106 -96 -106h-17q-96 0 -96 106v12zM157 629v-615q0 -14 -14 -14h-45q-14 0 -14 14v615q0 14 14 14h45q14 0 14 -14z" />
    <glyph glyph-name="ibreve" unicode="&#x12d;" horiz-adv-x="221" 
d="M74 14v482q0 14 13 14h46q14 0 14 -14v-482q0 -14 -14 -14h-45q-14 0 -14 14zM6 680v12q0 11 11 11h28q10 0 10 -11v-10q0 -37 12 -52.5t41 -15.5h5q30 0 42.5 15.5t12.5 52.5v10q0 10 10 10h26q11 0 11 -10v-12q0 -106 -96 -106h-17q-96 0 -96 106z" />
    <glyph glyph-name="Iogonek" unicode="&#x12e;" horiz-adv-x="241" 
d="M98 643h45q14 0 14 -14v-615q0 -14 -14 -14h-6l-49 -67h40q15 0 20 -3t5 -11q0 -13 -25 -21.5t-52.5 -8.5t-35 14t5.5 30l48 67q-10 2 -10 14v615q0 14 14 14z" />
    <glyph glyph-name="iogonek" unicode="&#x12f;" horiz-adv-x="221" 
d="M87 702h46q14 0 14 -14v-94q0 -14 -14 -14h-46q-13 0 -13 14v94q0 14 13 14zM87 510h46q14 0 14 -14v-482q0 -14 -14 -14h-9q-51 -69 -47 -69q27 0 41 2q14 0 19 -2.5t3 -10.5q-1 -14 -25.5 -24t-49.5 -10t-30 19.5t8 34.5l41 60q-10 1 -10 14v482q0 14 13 14z" />
    <glyph glyph-name="Idotaccent" unicode="&#x130;" horiz-adv-x="241" 
d="M157 629v-615q0 -14 -14 -14h-45q-14 0 -14 14v615q0 14 14 14h45q14 0 14 -14zM84 706v93q0 14 13 14h46q14 0 14 -13v-94q0 -14 -14 -14h-46q-13 0 -13 14z" />
    <glyph glyph-name="dotlessi" unicode="&#x131;" horiz-adv-x="225" 
d="M76 14v482q0 14 13 14h46q13 0 13 -14v-482q0 -14 -13 -14h-46q-13 0 -13 14z" />
    <glyph glyph-name="IJ" unicode="&#x132;" horiz-adv-x="730" 
d="M599 643h45q14 0 14 -13v-482q0 -69 -39.5 -108.5t-108.5 -39.5h-100q-68 0 -107.5 39t-39.5 109v86q0 14 13 14h46q13 0 13 -14v-83q0 -87 84 -87h82q84 0 84 87v478q0 14 14 14zM158 629v-615q0 -14 -13 -14h-46q-13 0 -13 14v615q0 14 13 14h46q13 0 13 -14z" />
    <glyph glyph-name="ij" unicode="&#x133;" horiz-adv-x="440" 
d="M74 14v482q0 14 13 14h46q14 0 14 -14v-482q0 -14 -14 -14h-45q-14 0 -14 14zM74 594v94q0 14 13 14h46q14 0 14 -14v-94q0 -14 -14 -14h-46q-13 0 -13 14zM292 594v94q0 14 14 14h46q13 0 13 -14v-94q0 -14 -13 -14h-46q-14 0 -14 14zM217 -148h-40q-14 0 -14 14v37
q0 14 14 14h23q48 0 70 23t22 71v485q0 14 15 14h44q14 0 14 -14v-495q0 -69 -39.5 -109t-108.5 -40z" />
    <glyph glyph-name="Jcircumflex" unicode="&#x134;" horiz-adv-x="496" 
d="M373 643h45q13 0 13 -13v-482q0 -70 -39.5 -109t-107.5 -39h-100q-69 0 -108.5 39.5t-39.5 108.5v86q0 14 14 14h45q14 0 14 -14v-83q0 -87 84 -87h82q84 0 84 87v478q0 14 14 14zM488 707h-34q-10 0 -14 8l-47 88l-48 -88q-3 -8 -14 -8h-33q-13 0 -6 12l63 107
q7 10 21 10h34q13 0 20 -10l63 -107q7 -12 -5 -12z" />
    <glyph glyph-name="jcircumflex" unicode="&#x135;" horiz-adv-x="219" 
d="M204 574h-34q-10 0 -14 8l-47 88l-48 -88q-3 -8 -13 -8h-34q-13 0 -6 12l63 107q7 10 21 10h34q13 0 20 -10l64 -107q7 -12 -6 -12zM-1 -148h-41q-14 0 -14 14v37q0 14 14 14h23q93 0 93 94v485q0 14 14 14h45q14 0 14 -14v-495q0 -69 -39.5 -109t-108.5 -40z" />
    <glyph glyph-name="uni0136" unicode="&#x136;" horiz-adv-x="538" 
d="M330 -45v-47q0 -27 -14 -58l-33 -80q-5 -8 -12 -8q-10 0 -10 12v180q0 14 13 14h43q13 0 13 -13zM138 0h-45q-14 0 -14 14v615q0 14 14 14h45q14 0 14 -14v-345h3q7 21 22 41l224 304q9 14 26 14h54q17 0 5 -15l-198 -268l226 -344q11 -16 -9 -16h-41q-21 0 -29 14
l-192 293l-91 -109v-184q0 -14 -14 -14z" />
    <glyph glyph-name="uni0137" unicode="&#x137;" horiz-adv-x="443" 
d="M358 510h50q8 0 10.5 -4.5t-2.5 -11.5l-147 -228v-4l162 -246q4 -7 1 -11.5t-11 -4.5h-47q-19 0 -28 14l-154 238q-6 10 0 21l142 224q6 13 24 13zM128 0h-45q-14 0 -14 14v675q0 14 14 14h45q14 0 14 -14v-675q0 -14 -14 -14zM278 -45v-47q0 -25 -15 -58l-33 -80
q-5 -8 -12 -8q-10 0 -10 12v180q0 14 13 14h44q13 0 13 -13z" />
    <glyph glyph-name="Lacute" unicode="&#x139;" horiz-adv-x="451" 
d="M172 836h60q7 0 9 -4t-2 -10l-88 -105q-8 -10 -19 -10h-33q-15 0 -7 14l58 102q7 13 22 13zM414 0h-321q-14 0 -14 14v615q0 14 14 14h45q14 0 14 -14v-554q0 -9 10 -9h252q14 0 14 -15v-37q0 -14 -14 -14z" />
    <glyph glyph-name="lacute" unicode="&#x13a;" horiz-adv-x="217" 
d="M164 879h61q6 0 8 -4t-2 -10l-87 -105q-10 -10 -21 -10h-32q-14 0 -6 14l58 102q6 13 21 13zM133 0h-45q-14 0 -14 14v675q0 14 14 14h45q14 0 14 -14v-675q0 -14 -14 -14z" />
    <glyph glyph-name="uni013B" unicode="&#x13b;" horiz-adv-x="451" 
d="M287 -45v-47q0 -25 -15 -58l-33 -80q-5 -8 -12 -8q-10 0 -10 12v180q0 14 13 14h44q13 0 13 -13zM414 0h-321q-14 0 -14 14v615q0 14 14 14h45q14 0 14 -14v-554q0 -9 10 -9h252q14 0 14 -15v-37q0 -14 -14 -14z" />
    <glyph glyph-name="uni013C" unicode="&#x13c;" horiz-adv-x="221" 
d="M146 -45v-47q0 -28 -15 -58l-33 -80q-5 -8 -11 -8q-11 0 -11 12v180q0 14 13 14h44q13 0 13 -13zM133 0h-45q-14 0 -14 14v675q0 14 14 14h45q14 0 14 -14v-675q0 -14 -14 -14z" />
    <glyph glyph-name="Lcaron" unicode="&#x13d;" horiz-adv-x="451" 
d="M371 630v-58q0 -23 -14 -65l-34 -95q-3 -7 -11 -7q-11 0 -11 12v212q0 14 13 14h44q13 0 13 -13zM414 0h-321q-14 0 -14 14v615q0 14 14 14h45q14 0 14 -14v-554q0 -9 10 -9h252q14 0 14 -15v-37q0 -14 -14 -14z" />
    <glyph glyph-name="lcaron" unicode="&#x13e;" horiz-adv-x="298" 
d="M286 690v-58q0 -25 -15 -65l-33 -95q-4 -7 -13 -7t-9 12v212q0 14 13 14h43q14 0 14 -13zM133 0h-45q-14 0 -14 14v675q0 14 14 14h45q14 0 14 -14v-675q0 -14 -14 -14z" />
    <glyph glyph-name="Ldot" unicode="&#x13f;" horiz-adv-x="499" 
d="M417 0h-321q-13 0 -13 14v615q0 14 13 14h45q14 0 14 -14v-554q0 -9 11 -9h251q14 0 14 -15v-37q0 -14 -14 -14zM357 374v-110q0 -14 -13 -14h-51q-13 0 -13 15v108q0 14 13 14h51q13 0 13 -13z" />
    <glyph glyph-name="ldot" unicode="&#x140;" horiz-adv-x="339" 
d="M136 0h-45q-13 0 -13 14v675q0 14 13 14h45q14 0 14 -14v-675q0 -14 -14 -14zM303 374v-110q0 -14 -12 -14h-51q-14 0 -14 15v108q0 14 14 14h51q12 0 12 -13z" />
    <glyph glyph-name="Lslash" unicode="&#x141;" horiz-adv-x="507" 
d="M430 0h-321q-14 0 -14 14v336l-70 -40q-14 -8 -14 8v37q0 13 14 20l70 40v214q0 14 14 14h45q14 0 14 -14v-172l95 53q14 8 14 -8v-38q0 -13 -14 -20l-95 -54v-315q0 -9 10 -9h252q14 0 14 -15v-37q0 -14 -14 -14z" />
    <glyph glyph-name="lslash" unicode="&#x142;" horiz-adv-x="304" 
d="M174 0h-45q-14 0 -14 14v343l-79 -45q-13 -6 -13 8v40q0 12 13 19l79 44v266q0 14 14 14h45q14 0 14 -14v-224l79 45q14 8 14 -8v-38q0 -13 -14 -21l-79 -45v-384q0 -14 -14 -14z" />
    <glyph glyph-name="Nacute" unicode="&#x143;" horiz-adv-x="581" 
d="M350 836h60q7 0 9 -4t-2 -10l-87 -105q-8 -10 -20 -10h-33q-14 0 -6 14l58 102q7 13 21 13zM137 0h-44q-14 0 -14 14v615q0 14 14 14h41q12 0 16 -8l276 -485h4v479q0 14 14 14h44q14 0 14 -14v-615q0 -14 -14 -14h-37q-11 0 -21 13l-275 480h-4v-479q0 -14 -14 -14z" />
    <glyph glyph-name="nacute" unicode="&#x144;" horiz-adv-x="512" 
d="M315 703h61q6 0 8.5 -4t-2.5 -10l-87 -105q-8 -10 -20 -10h-33q-14 0 -6 14l58 102q7 13 21 13zM128 0h-45q-14 0 -14 14v482q0 14 14 14h45q14 0 14 -14v-39h4q25 53 102 53h56q68 0 106 -39t38 -109v-348q0 -14 -14 -14h-45q-14 0 -14 14v345q0 87 -84 87h-56
q-45 0 -69 -24t-24 -68v-340q0 -14 -14 -14z" />
    <glyph glyph-name="uni0145" unicode="&#x145;" horiz-adv-x="581" 
d="M330 -45v-47q0 -25 -15 -58l-33 -80q-5 -8 -12 -8q-10 0 -10 12v180q0 14 13 14h43q14 0 14 -13zM137 0h-44q-14 0 -14 14v615q0 14 14 14h41q12 0 16 -8l276 -485h4v479q0 14 14 14h44q14 0 14 -14v-615q0 -14 -14 -14h-37q-11 0 -21 13l-275 480h-4v-479q0 -14 -14 -14
z" />
    <glyph glyph-name="uni0146" unicode="&#x146;" horiz-adv-x="510" 
d="M294 -45v-47q0 -25 -15 -58l-33 -80q-5 -8 -12 -8q-10 0 -10 12v180q0 14 13 14h44q13 0 13 -13zM128 0h-45q-14 0 -14 14v482q0 14 14 14h45q14 0 14 -14v-39h4q25 53 102 53h56q68 0 106 -39t38 -109v-348q0 -14 -14 -14h-45q-14 0 -14 14v345q0 87 -84 87h-56
q-45 0 -69 -24t-24 -68v-340q0 -14 -14 -14z" />
    <glyph glyph-name="Ncaron" unicode="&#x147;" horiz-adv-x="581" 
d="M137 0h-44q-14 0 -14 14v615q0 14 14 14h41q12 0 16 -8l276 -485h4v479q0 14 14 14h44q14 0 14 -14v-615q0 -14 -14 -14h-37q-11 0 -21 13l-275 480h-4v-479q0 -14 -14 -14zM277 707q-13 0 -20 10l-63 107q-7 12 5 12h34q10 0 14 -8l47 -88l48 88q3 8 13 8h35q12 0 5 -12
l-63 -107q-7 -10 -20 -10h-35z" />
    <glyph glyph-name="ncaron" unicode="&#x148;" horiz-adv-x="512" 
d="M242 574q-14 0 -21 10l-63 107q-7 12 5 12h34q10 0 14 -8l47 -88l48 88q3 8 14 8h34q12 0 5 -12l-63 -107q-7 -10 -21 -10h-33zM128 0h-45q-14 0 -14 14v482q0 14 14 14h45q14 0 14 -14v-39h4q25 53 102 53h56q68 0 106 -39t38 -109v-348q0 -14 -14 -14h-45q-14 0 -14 14
v345q0 87 -84 87h-56q-45 0 -69 -24t-24 -68v-340q0 -14 -14 -14z" />
    <glyph glyph-name="Eng" unicode="&#x14a;" horiz-adv-x="539" 
d="M358 -150h-41q-14 0 -14 14v36q0 14 14 14h23q48 0 70 23t22 72v4q-30 51 -132 233t-141 247h-4v-479q0 -14 -14 -14h-45q-13 0 -13 14v615q0 14 13 14h42q12 0 16 -8l275 -485h4v479q0 14 14 14h45q14 0 14 -14v-631q0 -69 -40 -108.5t-108 -39.5z" />
    <glyph glyph-name="eng" unicode="&#x14b;" horiz-adv-x="512" 
d="M300 -150h-41q-14 0 -14 14v36q0 14 14 14h24q48 0 70 23t22 72v350q0 87 -84 87h-56q-45 0 -69 -24t-24 -68v-340q0 -14 -14 -14h-45q-14 0 -14 14v482q0 14 14 14h45q14 0 14 -14v-39h4q25 53 102 53h52q69 0 108.5 -39.5t39.5 -108.5v-364q0 -69 -40 -108.5
t-108 -39.5z" />
    <glyph glyph-name="Omacron" unicode="&#x14c;" horiz-adv-x="553" 
d="M377 746h-202q-14 0 -14 14v26q0 14 14 14h202q14 0 14 -14v-26q0 -14 -14 -14zM225 64h102q84 0 84 87v341q0 87 -84 87h-102q-83 0 -83 -87v-341q0 -87 83 -87zM336 0h-119q-69 0 -108.5 39t-39.5 109v347q0 70 39.5 109t108.5 39h119q69 0 108.5 -39.5t39.5 -108.5
v-347q0 -69 -39.5 -108.5t-108.5 -39.5z" />
    <glyph glyph-name="omacron" unicode="&#x14d;" horiz-adv-x="500" 
d="M350 613h-201q-14 0 -14 14v24q0 14 14 14h201q14 0 14 -14v-24q0 -14 -14 -14zM293 0h-86q-69 0 -108.5 39t-39.5 109v214q0 70 39.5 109t108.5 39h86q69 0 108.5 -39t39.5 -109v-214q0 -70 -39.5 -109t-108.5 -39zM215 64h70q84 0 84 86v210q0 86 -84 86h-70
q-84 0 -84 -86v-210q0 -86 84 -86z" />
    <glyph glyph-name="Obreve" unicode="&#x14e;" horiz-adv-x="553" 
d="M172 825q0 11 11 11h27q11 0 11 -11v-10q0 -37 12 -52.5t41 -15.5h5q30 0 42 15.5t12 52.5v10q0 10 11 10h26q11 0 11 -10v-12q0 -106 -96 -106h-18q-95 0 -95 106v12zM225 64h102q84 0 84 87v341q0 87 -84 87h-102q-83 0 -83 -87v-341q0 -87 83 -87zM336 0h-119
q-69 0 -108.5 39t-39.5 109v347q0 70 39.5 109t108.5 39h119q69 0 108.5 -39.5t39.5 -108.5v-347q0 -69 -39.5 -108.5t-108.5 -39.5z" />
    <glyph glyph-name="obreve" unicode="&#x14f;" horiz-adv-x="500" 
d="M215 64h70q84 0 84 86v210q0 86 -84 86h-70q-84 0 -84 -86v-210q0 -86 84 -86zM293 0h-86q-69 0 -108.5 39t-39.5 109v214q0 70 39.5 109t108.5 39h86q69 0 108.5 -39t39.5 -109v-214q0 -70 -39.5 -109t-108.5 -39zM146 680v12q0 11 10 11h28q11 0 11 -11v-10
q0 -37 11.5 -52.5t40.5 -15.5h6q30 0 42 15.5t12 52.5v10q0 10 11 10h26q10 0 10 -10v-12q0 -106 -95 -106h-18q-95 0 -95 106z" />
    <glyph glyph-name="Ohungarumlaut" unicode="&#x150;" horiz-adv-x="553" 
d="M265 836h40q16 0 7 -14l-77 -105q-8 -10 -19 -10h-23q-14 0 -6 14l56 102q8 13 22 13zM397 836h40q17 0 7 -14l-77 -105q-10 -10 -19 -10h-23q-14 0 -6 14l56 102q8 13 22 13zM225 64h102q84 0 84 87v341q0 87 -84 87h-102q-83 0 -83 -87v-341q0 -87 83 -87zM336 0h-119
q-69 0 -108.5 39t-39.5 109v347q0 70 39.5 109t108.5 39h119q69 0 108.5 -39.5t39.5 -108.5v-347q0 -69 -39.5 -108.5t-108.5 -39.5z" />
    <glyph glyph-name="ohungarumlaut" unicode="&#x151;" horiz-adv-x="500" 
d="M242 703h41q17 0 6 -14l-77 -105q-8 -10 -18 -10h-24q-12 0 -6 14l57 102q7 13 21 13zM375 703h40q16 0 7 -14l-77 -105q-10 -10 -19 -10h-23q-15 0 -6 14l56 102q7 13 22 13zM293 0h-86q-69 0 -108.5 39t-39.5 109v214q0 70 39.5 109t108.5 39h86q69 0 108.5 -39
t39.5 -109v-214q0 -70 -39.5 -109t-108.5 -39zM215 64h70q84 0 84 86v210q0 86 -84 86h-70q-84 0 -84 -86v-210q0 -86 84 -86z" />
    <glyph glyph-name="OE" unicode="&#x152;" horiz-adv-x="777" 
d="M73 148v347q0 69 39.5 108.5t107.5 39.5h473q15 0 15 -14v-36q0 -14 -15 -14h-241q-10 0 -10 -9v-202q0 -9 10 -9h210q14 0 14 -14v-36q0 -14 -14 -14h-210q-10 0 -10 -9v-213q0 -9 10 -9h241q15 0 15 -14v-36q0 -14 -15 -14h-473q-68 0 -107.5 39t-39.5 109zM229 64h130
q11 0 11 9v497q0 9 -11 9h-130q-83 0 -83 -87v-341q0 -87 83 -87z" />
    <glyph glyph-name="oe" unicode="&#x153;" horiz-adv-x="805" 
d="M286 0h-79q-69 0 -108.5 39t-39.5 109v214q0 70 39.5 109t108.5 39h75q88 0 126 -64q34 64 122 64h70q69 0 108.5 -39.5t39.5 -108.5v-127q0 -15 -15 -15h-282q-10 0 -10 -9v-60q0 -87 84 -87h203q14 0 14 -14v-37q0 -13 -14 -13h-201q-89 0 -126 66q-28 -66 -115 -66z
M451 273h214q10 0 10 10v76q0 87 -84 87h-66q-84 0 -84 -87v-76q0 -10 10 -10zM215 64h69q84 0 84 87v208q0 87 -84 87h-69q-83 0 -83 -87v-208q0 -87 83 -87z" />
    <glyph glyph-name="Racute" unicode="&#x154;" horiz-adv-x="537" 
d="M302 836h61q6 0 8 -4t-2 -10l-87 -105q-8 -10 -20 -10h-33q-14 0 -6 14l58 102q6 13 21 13zM138 0h-45q-14 0 -14 14v615q0 14 14 14h230q69 0 109 -39.5t40 -108.5v-91q0 -56 -27 -92.5t-75 -48.5v-4l116 -243q9 -16 -10 -16h-45q-17 0 -25 14l-112 242h-132
q-10 0 -10 -9v-233q0 -14 -14 -14zM162 317h151q86 0 86 86v89q0 87 -86 87h-151q-10 0 -10 -9v-244q0 -9 10 -9z" />
    <glyph glyph-name="racute" unicode="&#x155;" horiz-adv-x="323" 
d="M212 703h60q7 0 9 -4t-2 -10l-87 -105q-10 -10 -20 -10h-33q-14 0 -6 14l57 102q9 13 22 13zM128 0h-45q-14 0 -14 14v482q0 14 14 14h45q14 0 14 -14v-40h4q10 22 38 38t66 16h39q13 0 13 -14v-37q0 -7 -3 -10.5t-10 -2.5h-54q-45 0 -69 -27t-24 -74v-331q0 -14 -14 -14
z" />
    <glyph glyph-name="uni0156" unicode="&#x156;" horiz-adv-x="537" 
d="M308 -45v-47q0 -27 -14 -58l-34 -80q-5 -8 -11 -8q-11 0 -11 12v180q0 14 13 14h44q13 0 13 -13zM138 0h-45q-14 0 -14 14v615q0 14 14 14h230q69 0 109 -39.5t40 -108.5v-91q0 -56 -27 -92.5t-75 -48.5v-4l116 -243q9 -16 -10 -16h-45q-17 0 -25 14l-112 242h-132
q-10 0 -10 -9v-233q0 -14 -14 -14zM162 317h151q86 0 86 86v89q0 87 -86 87h-151q-10 0 -10 -9v-244q0 -9 10 -9z" />
    <glyph glyph-name="uni0157" unicode="&#x157;" horiz-adv-x="323" 
d="M141 -45v-47q0 -28 -15 -58l-33 -80q-5 -8 -11 -8q-11 0 -11 12v180q0 14 13 14h44q13 0 13 -13zM128 0h-45q-14 0 -14 14v482q0 14 14 14h45q14 0 14 -14v-40h4q10 22 38 38t66 16h39q13 0 13 -14v-37q0 -7 -3 -10.5t-10 -2.5h-54q-45 0 -69 -27t-24 -74v-331
q0 -14 -14 -14z" />
    <glyph glyph-name="Rcaron" unicode="&#x158;" horiz-adv-x="537" 
d="M239 707q-13 0 -20 10l-64 107q-7 12 6 12h34q10 0 14 -8l47 -88l47 88q4 8 14 8h35q12 0 5 -12l-63 -107q-7 -10 -21 -10h-34zM138 0h-45q-14 0 -14 14v615q0 14 14 14h230q69 0 109 -39.5t40 -108.5v-91q0 -56 -27 -92.5t-75 -48.5v-4l116 -243q9 -16 -10 -16h-45
q-17 0 -25 14l-112 242h-132q-10 0 -10 -9v-233q0 -14 -14 -14zM162 317h151q86 0 86 86v89q0 87 -86 87h-151q-10 0 -10 -9v-244q0 -9 10 -9z" />
    <glyph glyph-name="rcaron" unicode="&#x159;" horiz-adv-x="323" 
d="M162 574q-13 0 -20 10l-64 107q-7 12 6 12h34q10 0 14 -8l47 -88l47 88q4 8 14 8h34q13 0 6 -12l-64 -107q-7 -10 -20 -10h-34zM128 0h-45q-14 0 -14 14v482q0 14 14 14h45q14 0 14 -14v-40h4q10 22 38 38t66 16h39q13 0 13 -14v-37q0 -7 -3 -10.5t-10 -2.5h-54
q-45 0 -69 -27t-24 -74v-331q0 -14 -14 -14z" />
    <glyph glyph-name="Sacute" unicode="&#x15a;" horiz-adv-x="555" 
d="M72 148v32q0 14 14 14h45q14 0 14 -14v-26q0 -90 89 -90h88q89 0 89 92v34q0 72 -119 94q-50 9 -100 21t-85 46.5t-35 94.5v49q0 69 39.5 108.5t108.5 39.5h111q68 0 108 -39.5t40 -108.5v-25q0 -15 -13 -15h-46q-13 0 -13 15v18q0 91 -89 91h-85q-89 0 -89 -95v-40
q0 -51 67 -70q30 -8 66 -14.5t72.5 -17t66.5 -26t48.5 -47t18.5 -76.5v-45q0 -69 -40 -108.5t-108 -39.5h-115q-68 0 -108 39.5t-40 108.5zM321 836h60q7 0 9 -4t-2 -10l-88 -105q-8 -10 -19 -10h-33q-15 0 -7 14l58 102q7 13 22 13z" />
    <glyph glyph-name="sacute" unicode="&#x15b;" horiz-adv-x="430" 
d="M249 703h60q15 0 6 -14l-87 -105q-8 -10 -20 -10h-33q-14 0 -6 14l58 102q7 13 22 13zM242 0h-178q-14 0 -14 14v35q0 13 14 13h168q78 0 78 58v19q0 53 -51 73l-118 50q-51 21 -73 49.5t-22 75.5q0 123 135 123h164q14 0 14 -14v-35q0 -13 -14 -13h-151q-36 0 -54.5 -15
t-18.5 -35v-17q0 -42 57 -64l118 -53q52 -20 70.5 -53t18.5 -91q0 -120 -143 -120z" />
    <glyph glyph-name="Scircumflex" unicode="&#x15c;" horiz-adv-x="555" 
d="M72 148v32q0 14 14 14h45q14 0 14 -14v-26q0 -90 89 -90h88q89 0 89 92v34q0 72 -119 94q-50 9 -100 21t-85 46.5t-35 94.5v49q0 69 39.5 108.5t108.5 39.5h111q68 0 108 -39.5t40 -108.5v-25q0 -15 -13 -15h-46q-13 0 -13 15v18q0 91 -89 91h-85q-89 0 -89 -95v-40
q0 -51 67 -70q30 -8 66 -14.5t72.5 -17t66.5 -26t48.5 -47t18.5 -76.5v-45q0 -69 -40 -108.5t-108 -39.5h-115q-68 0 -108 39.5t-40 108.5zM373 707h-34q-10 0 -14 8l-47 88l-48 -88q-3 -8 -13 -8h-34q-13 0 -6 12l63 107q7 10 21 10h34q13 0 20 -10l64 -107q7 -12 -6 -12z
" />
    <glyph glyph-name="scircumflex" unicode="&#x15d;" horiz-adv-x="430" 
d="M307 574h-34q-10 0 -14 8l-47 88l-47 -88q-4 -8 -14 -8h-34q-13 0 -6 12l63 107q7 10 21 10h34q13 0 20 -10l64 -107q7 -12 -6 -12zM242 0h-178q-14 0 -14 14v35q0 13 14 13h168q78 0 78 58v19q0 53 -51 73l-118 50q-51 21 -73 49.5t-22 75.5q0 123 135 123h164
q14 0 14 -14v-35q0 -13 -14 -13h-151q-36 0 -54.5 -15t-18.5 -35v-17q0 -42 57 -64l118 -53q52 -20 70.5 -53t18.5 -91q0 -120 -143 -120z" />
    <glyph glyph-name="uni015E" unicode="&#x15e;" horiz-adv-x="555" 
d="M144 484v-40q0 -51 67 -70q30 -8 66 -14.5t72.5 -17t66.5 -26t48.5 -47t18.5 -76.5v-45q0 -69 -40 -108.5t-108 -39.5h-8l-40 -43v-4q76 0 76 -64v-14q0 -63 -85 -63h-31q-13 0 -13 13v14q0 13 13 13h24q29 0 40 6t11 23v2q0 18 -11 24.5t-40 6.5h-16q-18 0 -23.5 15
t6.5 29l37 42h-55q-68 0 -108 39.5t-40 108.5v32q0 14 14 14h45q14 0 14 -14v-26q0 -90 89 -90h88q89 0 89 92v34q0 72 -119 94q-50 9 -100 21t-85 46.5t-35 94.5v49q0 69 39.5 108.5t108.5 39.5h111q68 0 108 -39.5t40 -108.5v-25q0 -15 -13 -15h-46q-13 0 -13 15v18
q0 91 -89 91h-85q-89 0 -89 -95z" />
    <glyph glyph-name="uni015F" unicode="&#x15f;" horiz-adv-x="430" 
d="M217 -47q77 0 77 -64v-14q0 -63 -85 -63h-31q-13 0 -13 13v14q0 13 13 13h24q28 0 39 6.5t11 22.5v2q0 18 -10.5 24.5t-39.5 6.5h-16q-18 0 -24 15t6 29l37 42h-141q-14 0 -14 14v35q0 13 14 13h168q78 0 78 58v19q0 53 -51 73l-118 50q-51 21 -73 49.5t-22 75.5
q0 123 135 123h164q14 0 14 -14v-35q0 -13 -14 -13h-151q-36 0 -54.5 -15t-18.5 -35v-17q0 -42 57 -64l118 -53q52 -20 70.5 -53t18.5 -89q0 -114 -127 -122l-41 -43v-4z" />
    <glyph glyph-name="Scaron" unicode="&#x160;" horiz-adv-x="555" 
d="M72 148v32q0 14 14 14h45q14 0 14 -14v-26q0 -90 89 -90h88q89 0 89 92v34q0 72 -119 94q-50 9 -100 21t-85 46.5t-35 94.5v49q0 69 39.5 108.5t108.5 39.5h111q68 0 108 -39.5t40 -108.5v-25q0 -15 -13 -15h-46q-13 0 -13 15v18q0 91 -89 91h-85q-89 0 -89 -95v-40
q0 -51 67 -70q30 -8 66 -14.5t72.5 -17t66.5 -26t48.5 -47t18.5 -76.5v-45q0 -69 -40 -108.5t-108 -39.5h-115q-68 0 -108 39.5t-40 108.5zM292 707h-35q-13 0 -20 10l-63 107q-7 12 5 12h34q10 0 14 -8l47 -88l48 88q3 8 14 8h34q12 0 5 -12l-63 -107q-7 -10 -20 -10z" />
    <glyph glyph-name="scaron" unicode="&#x161;" horiz-adv-x="430" 
d="M195 574q-14 0 -21 10l-63 107q-7 12 6 12h34q10 0 14 -8l47 -88l47 88q4 8 14 8h34q13 0 6 -12l-64 -107q-7 -10 -20 -10h-34zM242 0h-178q-14 0 -14 14v35q0 13 14 13h168q78 0 78 58v19q0 53 -51 73l-118 50q-51 21 -73 49.5t-22 75.5q0 123 135 123h164q14 0 14 -14
v-35q0 -13 -14 -13h-151q-36 0 -54.5 -15t-18.5 -35v-17q0 -42 57 -64l118 -53q52 -20 70.5 -53t18.5 -91q0 -120 -143 -120z" />
    <glyph glyph-name="uni0162" unicode="&#x162;" horiz-adv-x="427" 
d="M248 -45v-47q0 -27 -14 -58l-33 -80q-5 -8 -12 -8q-10 0 -10 12v180q0 14 13 14h44q12 0 12 -13zM236 0h-45q-14 0 -14 14v556q0 9 -10 9h-136q-15 0 -15 14v36q0 14 15 14h365q15 0 15 -14v-36q0 -14 -15 -14h-136q-10 0 -10 -9v-556q0 -14 -14 -14z" />
    <glyph glyph-name="uni0163" unicode="&#x163;" horiz-adv-x="349" 
d="M242 -45v-47q0 -25 -15 -58l-33 -80q-5 -8 -12 -8q-10 0 -10 12v180q0 14 13 14h44q13 0 13 -13zM88 446h-55q-14 0 -14 13v37q0 14 14 14h55q10 0 10 9v86q0 14 14 14h45q13 0 13 -14v-86q0 -9 11 -9h106q15 0 15 -14v-37q0 -13 -15 -13h-106q-11 0 -11 -9v-288
q0 -85 88 -85h39q15 0 15 -14v-37q0 -13 -15 -13h-48q-69 0 -110 38.5t-41 107.5v291q0 9 -10 9z" />
    <glyph glyph-name="Tcaron" unicode="&#x164;" horiz-adv-x="427" 
d="M198 707q-14 0 -21 10l-63 107q-7 12 6 12h33q11 0 14 -8l48 -88l47 88q4 8 14 8h34q13 0 6 -12l-64 -107q-7 -10 -20 -10h-34zM236 0h-45q-14 0 -14 14v556q0 9 -10 9h-136q-15 0 -15 14v36q0 14 15 14h365q15 0 15 -14v-36q0 -14 -15 -14h-136q-10 0 -10 -9v-556
q0 -14 -14 -14z" />
    <glyph glyph-name="tcaron" unicode="&#x165;" horiz-adv-x="417" 
d="M411 630v-58q0 -20 -15 -65l-33 -95q-4 -7 -13 -7t-9 12v212q0 14 13 14h44q13 0 13 -13zM88 446h-55q-14 0 -14 13v37q0 14 14 14h55q10 0 10 9v86q0 14 14 14h45q13 0 13 -14v-86q0 -9 11 -9h106q15 0 15 -14v-37q0 -13 -15 -13h-106q-11 0 -11 -9v-288q0 -85 88 -85
h39q15 0 15 -14v-37q0 -13 -15 -13h-48q-69 0 -110 38.5t-41 107.5v291q0 9 -10 9z" />
    <glyph glyph-name="Tbar" unicode="&#x166;" horiz-adv-x="503" 
d="M247 0h-45q-14 0 -14 14v289q0 9 -10 9h-85q-14 0 -14 14v29q0 14 14 14h85q10 0 10 10v191q0 9 -10 9h-140q-14 0 -14 14v36q0 14 14 14h373q14 0 14 -14v-36q0 -14 -14 -14h-140q-10 0 -10 -9v-191q0 -10 10 -10h91q14 0 14 -14v-29q0 -14 -14 -14h-91q-10 0 -10 -9
v-289q0 -14 -14 -14z" />
    <glyph glyph-name="tbar" unicode="&#x167;" horiz-adv-x="355" 
d="M303 0h-51q-69 0 -110.5 38.5t-41.5 107.5v101q0 10 -10 10h-57q-14 0 -14 13v30q0 14 14 14h57q10 0 10 9v114q0 9 -10 9h-57q-14 0 -14 13v37q0 14 14 14h57q10 0 10 9v86q0 14 14 14h45q14 0 14 -14v-86q0 -9 10 -9h110q14 0 14 -14v-37q0 -13 -14 -13h-110
q-10 0 -10 -9v-114q0 -9 10 -9h110q14 0 14 -14v-30q0 -13 -14 -13h-110q-10 0 -10 -10v-98q0 -85 88 -85h42q14 0 14 -14v-37q0 -13 -14 -13z" />
    <glyph glyph-name="Utilde" unicode="&#x168;" horiz-adv-x="554" 
d="M264.5 712q-13.5 -10 -42.5 -10q-55 0 -55 77v39q0 10 9 10h21q9 0 9 -10v-26q0 -28 5.5 -38.5t17.5 -10.5t18.5 8t19.5 35.5t25 36.5t40 9q56 0 56 -78v-39q0 -11 -9 -11h-21q-10 0 -10 11v27q0 29 -5 38.5t-18 9.5t-17.5 -6t-17 -34t-26 -38zM421 643h45q14 0 14 -13
v-482q0 -70 -39 -109t-108 -39h-111q-69 0 -108.5 39t-39.5 109v481q0 14 14 14h45q14 0 14 -14v-478q0 -87 83 -87h94q84 0 84 87v478q0 14 13 14z" />
    <glyph glyph-name="utilde" unicode="&#x169;" horiz-adv-x="512" 
d="M139 653v38q0 11 9 11h21q9 0 9 -11v-26q0 -28 5 -38t17.5 -10t19 8t19 35t24.5 36t41 9q55 0 55 -77v-40q0 -11 -8 -11h-21q-10 0 -10 11v27q0 29 -5 39t-15.5 10t-14 -1t-8 -7t-6.5 -10.5t-11.5 -27.5t-23 -32.5t-42.5 -9.5q-55 0 -55 77zM264 0h-56q-68 0 -106 39
t-38 109v348q0 14 14 14h45q14 0 14 -14v-345q0 -87 83 -87h57q45 0 69 24t24 68v340q0 14 14 14h45q14 0 14 -14v-482q0 -14 -14 -14h-45q-14 0 -14 14v39h-4q-25 -53 -102 -53z" />
    <glyph glyph-name="Umacron" unicode="&#x16a;" horiz-adv-x="554" 
d="M378 746h-201q-14 0 -14 14v26q0 14 14 14h201q14 0 14 -14v-26q0 -14 -14 -14zM421 643h45q14 0 14 -13v-482q0 -70 -39 -109t-108 -39h-111q-69 0 -108.5 39t-39.5 109v481q0 14 14 14h45q14 0 14 -14v-478q0 -87 83 -87h94q84 0 84 87v478q0 14 13 14z" />
    <glyph glyph-name="umacron" unicode="&#x16b;" horiz-adv-x="512" 
d="M354 613h-201q-14 0 -14 14v24q0 14 14 14h201q14 0 14 -14v-24q0 -14 -14 -14zM264 0h-56q-68 0 -106 39t-38 109v348q0 14 14 14h45q14 0 14 -14v-345q0 -87 83 -87h57q45 0 69 24t24 68v340q0 14 14 14h45q14 0 14 -14v-482q0 -14 -14 -14h-45q-14 0 -14 14v39h-4
q-25 -53 -102 -53z" />
    <glyph glyph-name="Ubreve" unicode="&#x16c;" horiz-adv-x="554" 
d="M173 825q0 11 11 11h28q10 0 10 -11v-10q0 -37 12 -52.5t41 -15.5h5q30 0 42.5 15.5t12.5 52.5v10q0 10 10 10h26q11 0 11 -10v-12q0 -106 -96 -106h-17q-96 0 -96 106v12zM421 643h45q14 0 14 -13v-482q0 -70 -39 -109t-108 -39h-111q-69 0 -108.5 39t-39.5 109v481
q0 14 14 14h45q14 0 14 -14v-478q0 -87 83 -87h94q84 0 84 87v478q0 14 13 14z" />
    <glyph glyph-name="ubreve" unicode="&#x16d;" horiz-adv-x="512" 
d="M264 0h-56q-68 0 -106 39t-38 109v348q0 14 14 14h45q14 0 14 -14v-345q0 -87 83 -87h57q45 0 69 24t24 68v340q0 14 14 14h45q14 0 14 -14v-482q0 -14 -14 -14h-45q-14 0 -14 14v39h-4q-25 -53 -102 -53zM150 674v12q0 11 10 11h28q10 0 10 -11v-11q0 -37 12 -52t41 -15
h5q30 0 42.5 15t12.5 52v10q0 11 11 11h26q10 0 10 -11v-11q0 -106 -96 -106h-17q-95 0 -95 106z" />
    <glyph glyph-name="Uring" unicode="&#x16e;" horiz-adv-x="554" 
d="M292 697h-31q-31 0 -48.5 18t-17.5 50v41q0 32 17.5 49t48.5 17h31q32 0 50 -17.5t18 -48.5v-41q0 -32 -18 -50t-50 -18zM270 730h13q39 0 39 43v23q0 43 -39 43h-13q-39 0 -39 -43v-23q0 -43 39 -43zM421 643h45q14 0 14 -13v-482q0 -70 -39 -109t-108 -39h-111
q-69 0 -108.5 39t-39.5 109v481q0 14 14 14h45q14 0 14 -14v-478q0 -87 83 -87h94q84 0 84 87v478q0 14 13 14z" />
    <glyph glyph-name="uring" unicode="&#x16f;" horiz-adv-x="512" 
d="M264 0h-56q-68 0 -106 39t-38 109v348q0 14 14 14h45q14 0 14 -14v-345q0 -87 83 -87h57q45 0 69 24t24 68v340q0 14 14 14h45q14 0 14 -14v-482q0 -14 -14 -14h-45q-14 0 -14 14v39h-4q-25 -53 -102 -53zM192 659v-36q0 -22 9 -30t31 -8h15q22 0 31 8t9 30v36
q0 22 -9 30t-31 8h-15q-22 0 -31 -8t-9 -30zM159 615v54q0 58 64 58h33q65 0 65 -58v-54q0 -59 -65 -59h-33q-64 0 -64 59z" />
    <glyph glyph-name="Uhungarumlaut" unicode="&#x170;" horiz-adv-x="554" 
d="M262 836h41q17 0 6 -14l-77 -105q-8 -10 -18 -10h-24q-12 0 -6 14l57 102q7 13 21 13zM394 836h41q16 0 7 -14l-78 -105q-8 -10 -18 -10h-23q-15 0 -7 14l57 102q7 13 21 13zM421 643h45q14 0 14 -13v-482q0 -70 -39 -109t-108 -39h-111q-69 0 -108.5 39t-39.5 109v481
q0 14 14 14h45q14 0 14 -14v-478q0 -87 83 -87h94q84 0 84 87v478q0 14 13 14z" />
    <glyph glyph-name="uhungarumlaut" unicode="&#x171;" horiz-adv-x="512" 
d="M248 703h41q17 0 6 -14l-77 -105q-8 -10 -18 -10h-24q-12 0 -6 14l57 102q7 13 21 13zM381 703h40q16 0 7 -14l-77 -105q-10 -10 -19 -10h-23q-15 0 -7 14l57 102q7 13 22 13zM264 0h-56q-68 0 -106 39t-38 109v348q0 14 14 14h45q14 0 14 -14v-345q0 -87 83 -87h57
q45 0 69 24t24 68v340q0 14 14 14h45q14 0 14 -14v-482q0 -14 -14 -14h-45q-14 0 -14 14v39h-4q-25 -53 -102 -53z" />
    <glyph glyph-name="Uogonek" unicode="&#x172;" horiz-adv-x="554" 
d="M421 643h45q14 0 14 -13v-482q0 -70 -39 -109t-108 -39h-16l-49 -67h40q16 0 21 -3t5 -11q0 -13 -25.5 -21.5t-53 -8.5t-34.5 14t6 30l47 67h-52q-69 0 -108.5 39t-39.5 109v481q0 14 14 14h45q14 0 14 -14v-478q0 -87 83 -87h94q84 0 84 87v478q0 14 13 14z" />
    <glyph glyph-name="uogonek" unicode="&#x173;" horiz-adv-x="502" 
d="M384 510h45q14 0 14 -14v-482q0 -14 -14 -14h-30q-51 -69 -47 -69q27 0 41 2q14 0 19 -2.5t3 -10.5q-1 -14 -25.5 -24t-49.5 -10t-30 19.5t8 34.5l52 76v37h-4q-25 -53 -102 -53h-56q-68 0 -106 39t-38 109v348q0 14 14 14h45q14 0 14 -14v-345q0 -87 83 -87h57
q45 0 69 24t24 68v340q0 14 14 14z" />
    <glyph glyph-name="Wcircumflex" unicode="&#x174;" horiz-adv-x="798" 
d="M496 707h-34q-10 0 -14 8l-47 88l-47 -88q-4 -8 -14 -8h-34q-13 0 -6 12l64 107q7 10 20 10h34q13 0 20 -10l63 -107q7 -12 -5 -12zM249 0h-77q-14 0 -17 14l-128 615q-3 14 13 14h54q15 0 16 -14l101 -551h6l135 552q3 13 16 13h60q13 0 16 -13l137 -552h6l100 550
q3 15 17 15h54q16 0 13 -15l-129 -614q-3 -14 -16 -14h-77q-14 0 -17 14l-131 537h-4l-132 -537q-3 -14 -16 -14z" />
    <glyph glyph-name="wcircumflex" unicode="&#x175;" horiz-adv-x="686" 
d="M438 574h-34q-10 0 -14 8l-47 88l-48 -88q-3 -8 -14 -8h-33q-13 0 -6 12l63 107q7 10 21 10h34q13 0 20 -10l63 -107q7 -12 -5 -12zM227 0h-61q-14 0 -17 14l-128 482q-3 14 10 14h51q13 0 16 -14l97 -408h6l103 408q3 14 16 14h46q14 0 18 -14l100 -408h6l98 408
q3 14 16 14h51q13 0 10 -14l-128 -482q-3 -14 -17 -14h-62q-13 0 -16 14l-97 398h-5l-96 -398q-3 -14 -17 -14z" />
    <glyph glyph-name="Ycircumflex" unicode="&#x176;" horiz-adv-x="500" 
d="M343 707h-34q-10 0 -14 8l-47 88l-47 -88q-4 -8 -14 -8h-34q-12 0 -5 12l63 107q7 10 20 10h34q13 0 20 -10l64 -107q7 -12 -6 -12zM272 0h-45q-14 0 -14 14v227l-190 387q-3 7 0 11t9 4h56q11 0 17 -14l143 -303h5l142 303q4 14 16 14h57q17 0 9 -15l-191 -387v-227
q0 -14 -14 -14z" />
    <glyph glyph-name="ycircumflex" unicode="&#x177;" horiz-adv-x="463" 
d="M334 574h-34q-10 0 -14 8l-47 88l-48 -88q-3 -8 -14 -8h-33q-13 0 -6 12l63 107q7 10 20 10h35q13 0 20 -10l63 -107q7 -12 -5 -12zM110 -157h-44q-14 0 -14 14v37q0 14 14 14h25q64 0 90 36q21 29 38 83h-29q-12 0 -17 14l-147 455q-4 14 10 14h48q13 0 17 -14l129 -412
h4l129 412q3 14 16 14h46q17 0 12 -15l-149 -475q-25 -85 -63.5 -131t-114.5 -46z" />
    <glyph glyph-name="Ydieresis" unicode="&#x178;" horiz-adv-x="500" 
d="M130 721v101q0 14 13 14h43q12 0 12 -13v-102q0 -14 -12 -14h-43q-13 0 -13 14zM301 721v101q0 14 13 14h43q12 0 12 -13v-102q0 -14 -12 -14h-43q-13 0 -13 14zM272 0h-45q-14 0 -14 14v227l-190 387q-3 7 0 11t9 4h56q11 0 17 -14l143 -303h5l142 303q4 14 16 14h57
q17 0 9 -15l-191 -387v-227q0 -14 -14 -14z" />
    <glyph glyph-name="Zacute" unicode="&#x179;" horiz-adv-x="493" 
d="M315 836h60q7 0 9 -4t-2 -10l-88 -105q-8 -10 -19 -10h-33q-13 0 -7 14l58 102q7 13 22 13zM44 14v36q0 18 6 26l310 495v4h-289q-14 0 -14 14v40q0 14 14 14h354q14 0 14 -14v-48q0 -16 -8 -28l-302 -481v-4h306q14 0 14 -13v-40q0 -15 -14 -15h-377q-14 0 -14 14z" />
    <glyph glyph-name="zacute" unicode="&#x17a;" horiz-adv-x="418" 
d="M280 703h61q6 0 8 -4t-2 -10l-87 -105q-10 -10 -21 -10h-32q-14 0 -6 14l58 102q6 13 21 13zM33 14v19q0 18 10 31l247 378v4h-235q-14 0 -14 15v35q0 14 14 14h307q15 0 15 -14v-33q0 -18 -9 -27l-239 -368v-4h242q14 0 14 -15v-35q0 -14 -14 -14h-323q-15 0 -15 14z
" />
    <glyph glyph-name="Zdotaccent" unicode="&#x17b;" horiz-adv-x="493" 
d="M232 725v97q0 14 13 14h46q13 0 13 -14v-97q0 -14 -13 -14h-46q-13 0 -13 14zM44 14v36q0 18 6 26l310 495v4h-289q-14 0 -14 14v40q0 14 14 14h354q14 0 14 -14v-48q0 -16 -8 -28l-302 -481v-4h306q14 0 14 -13v-40q0 -15 -14 -15h-377q-14 0 -14 14z" />
    <glyph glyph-name="zdotaccent" unicode="&#x17c;" horiz-adv-x="418" 
d="M193 590v97q0 14 13 14h46q14 0 14 -13v-98q0 -14 -14 -14h-46q-13 0 -13 14zM33 14v19q0 18 10 31l247 378v4h-235q-14 0 -14 15v35q0 14 14 14h307q15 0 15 -14v-33q0 -18 -9 -27l-239 -368v-4h242q14 0 14 -15v-35q0 -14 -14 -14h-323q-15 0 -15 14z" />
    <glyph glyph-name="Zcaron" unicode="&#x17d;" horiz-adv-x="493" 
d="M247 707q-13 0 -20 10l-64 107q-7 12 6 12h34q10 0 14 -8l47 -88l47 88q4 8 14 8h34q13 0 6 -12l-64 -107q-7 -10 -20 -10h-34zM44 14v36q0 18 6 26l310 495v4h-289q-14 0 -14 14v40q0 14 14 14h354q14 0 14 -14v-48q0 -16 -8 -28l-302 -481v-4h306q14 0 14 -13v-40
q0 -15 -14 -15h-377q-14 0 -14 14z" />
    <glyph glyph-name="zcaron" unicode="&#x17e;" horiz-adv-x="418" 
d="M212 574q-13 0 -20 10l-63 107q-7 12 5 12h34q10 0 14 -8l47 -88l48 88q3 8 14 8h33q13 0 6 -12l-63 -107q-7 -10 -21 -10h-34zM33 14v19q0 18 10 31l247 378v4h-235q-14 0 -14 15v35q0 14 14 14h307q15 0 15 -14v-33q0 -18 -9 -27l-239 -368v-4h242q14 0 14 -15v-35
q0 -14 -14 -14h-323q-15 0 -15 14z" />
    <glyph glyph-name="florin" unicode="&#x192;" horiz-adv-x="504" 
d="M71 -133h-38q-17 0 -17 13v37q0 14 16 14h36q73 0 91 86l67 310q2 11 -9 11h-71q-16 0 -16 14v36q0 13 15 13h86q10 0 13 10l31 145q16 75 56 111t108 36h32q16 0 16 -13v-37q0 -14 -15 -14h-34q-39 0 -60.5 -21.5t-30.5 -64.5l-31 -142q-1 -10 8 -10h89q17 0 17 -13v-36
q0 -14 -13 -14h-106q-11 0 -12 -9l-69 -323q-30 -139 -159 -139z" />
    <glyph glyph-name="AEacute" unicode="&#x1fc;" horiz-adv-x="775" 
d="M486 836h60q7 0 9 -4t-2 -10l-87 -105q-10 -10 -20 -10h-33q-14 0 -6 14l58 102q6 13 21 13zM63 0h-51q-16 0 -8 15l320 614q8 14 23 14h356q13 0 13 -14v-36q0 -14 -13 -14h-245q-11 0 -11 -9v-202q0 -9 11 -9h213q15 0 15 -14v-36q0 -14 -15 -14h-213q-11 0 -11 -9
v-213q0 -9 11 -9h245q13 0 13 -14v-36q0 -14 -13 -14h-315q-13 0 -13 14v147h-216l-78 -147q-6 -14 -18 -14zM375 226v344h-4l-182 -344h186z" />
    <glyph glyph-name="aeacute" unicode="&#x1fd;" horiz-adv-x="784" 
d="M454 703h60q7 0 9 -4t-2 -10l-87 -105q-10 -10 -21 -10h-32q-14 0 -6 14l58 102q6 13 21 13zM432 194v-43q0 -87 84 -87h196q14 0 14 -14v-37q0 -13 -14 -13h-205q-88 0 -122 64q-32 -64 -132 -64h-48q-68 0 -108 38.5t-40 106.5v20q0 69 39 107t109 38h146q8 0 8 8v42
q0 86 -83 86h-157q-14 0 -14 14v36q0 14 14 14h155q91 0 123 -63q31 63 121 63h61q69 0 108 -39t39 -109v-144q0 -15 -14 -15h-270q-10 0 -10 -9zM661 266v93q0 87 -84 87h-56q-89 0 -89 -84v-96q0 -10 10 -10h209q10 0 10 10zM360 152v93q0 9 -10 9h-136q-88 0 -88 -87v-18
q0 -88 88 -88h53q93 0 93 91z" />
    <glyph glyph-name="Oslashacute" unicode="&#x1fe;" horiz-adv-x="564" 
d="M491 495v-347q0 -70 -39.5 -109t-107.5 -39h-123q-70 0 -111 41l-23 -32q-9 -12 -21 -4l-14 11q-11 8 -2 21l34 47q-11 30 -11 64v347q0 70 39.5 109t108.5 39h123q71 0 110 -42l23 32q10 12 21 4l15 -10q11 -7 2 -21l-34 -48q10 -30 10 -63zM146 492v-321l264 368
q-20 40 -75 40h-105q-84 0 -84 -87zM419 151v321l-264 -368q18 -40 75 -40h105q84 0 84 87zM289 707h-33q-14 0 -6 14l58 102q7 13 21 13h61q6 0 8.5 -4t-2.5 -10l-87 -105q-8 -10 -20 -10z" />
    <glyph glyph-name="oslashacute" unicode="&#x1ff;" horiz-adv-x="521" 
d="M452 362v-214q0 -69 -39.5 -108.5t-108.5 -39.5h-87q-84 0 -123 56l-34 -34q-11 -10 -20 0l-12 12q-10 10 0 20l47 47q-6 21 -6 47v214q0 69 39.5 108.5t108.5 39.5h87q84 0 123 -57l34 34q10 11 20 1l12 -12q10 -10 0 -20l-47 -47q6 -21 6 -47zM142 359v-191l230 230
q-15 48 -77 48h-69q-84 0 -84 -87zM378 151v190l-230 -231q17 -46 78 -46h69q83 0 83 87zM278 574h-33q-14 0 -6 14l58 102q7 13 22 13h59q7 0 9 -4t-2 -10l-87 -105q-8 -10 -20 -10z" />
    <glyph glyph-name="uni0218" unicode="&#x218;" horiz-adv-x="555" 
d="M72 148v32q0 14 14 14h45q14 0 14 -14v-26q0 -90 89 -90h88q89 0 89 92v34q0 72 -119 94q-50 9 -100 21t-85 46.5t-35 94.5v49q0 69 39.5 108.5t108.5 39.5h111q68 0 108 -39.5t40 -108.5v-25q0 -15 -13 -15h-46q-13 0 -13 15v18q0 91 -89 91h-85q-89 0 -89 -95v-40
q0 -51 67 -70q30 -8 66 -14.5t72.5 -17t66.5 -26t48.5 -47t18.5 -76.5v-45q0 -69 -40 -108.5t-108 -39.5h-115q-68 0 -108 39.5t-40 108.5zM320 -45v-47q0 -27 -14 -58l-33 -80q-5 -8 -12 -8q-10 0 -10 12v180q0 14 13 14h43q13 0 13 -13z" />
    <glyph glyph-name="uni0219" unicode="&#x219;" horiz-adv-x="430" 
d="M260 -45v-47q0 -25 -15 -58l-33 -80q-5 -8 -12 -8q-10 0 -10 12v180q0 14 13 14h44q13 0 13 -13zM242 0h-178q-14 0 -14 14v35q0 13 14 13h168q78 0 78 58v19q0 53 -51 73l-118 50q-51 21 -73 49.5t-22 75.5q0 123 135 123h164q14 0 14 -14v-35q0 -13 -14 -13h-151
q-36 0 -54.5 -15t-18.5 -35v-17q0 -42 57 -64l118 -53q52 -20 70.5 -53t18.5 -91q0 -120 -143 -120z" />
    <glyph glyph-name="circumflex" unicode="&#x2c6;" horiz-adv-x="332" 
d="M261 574h-35q-10 0 -14 8l-47 88l-47 -88q-4 -8 -14 -8h-34q-12 0 -5 12l63 107q7 10 20 10h34q14 0 21 -10l63 -107q7 -12 -5 -12z" />
    <glyph glyph-name="caron" unicode="&#x2c7;" horiz-adv-x="332" 
d="M148 574q-13 0 -20 10l-63 107q-7 12 5 12h34q10 0 14 -8l47 -88l47 88q4 8 14 8h35q12 0 5 -12l-63 -107q-7 -10 -21 -10h-34z" />
    <glyph glyph-name="uni02C9" unicode="&#x2c9;" horiz-adv-x="355" 
d="M278 613h-201q-14 0 -14 14v24q0 14 14 14h201q14 0 14 -14v-24q0 -14 -14 -14z" />
    <glyph glyph-name="breve" unicode="&#x2d8;" horiz-adv-x="334" 
d="M63 680v12q0 11 10 11h28q10 0 10 -11v-10q0 -37 12 -52.5t41 -15.5h5q30 0 42.5 15.5t12.5 52.5v10q0 10 10 10h26q11 0 11 -10v-12q0 -106 -96 -106h-17q-95 0 -95 106z" />
    <glyph glyph-name="dotaccent" unicode="&#x2d9;" horiz-adv-x="198" 
d="M63 590v97q0 14 13 14h46q13 0 13 -13v-98q0 -14 -13 -14h-46q-13 0 -13 14z" />
    <glyph glyph-name="ring" unicode="&#x2da;" horiz-adv-x="290" 
d="M85 659v-36q0 -22 9 -30t31 -8h14q22 0 31.5 8t9.5 30v36q0 22 -9 30t-31 8h-15q-22 0 -31 -8t-9 -30zM52 615v54q0 58 63 58h34q64 0 64 -58v-54q0 -59 -64 -59h-34q-63 0 -63 59z" />
    <glyph glyph-name="ogonek" unicode="&#x2db;" horiz-adv-x="243" 
d="M112 -69q26 0 40 2q14 0 19 -2.5t4 -10.5q-1 -14 -26 -24t-49.5 -10t-29.5 19.5t7 34.5l55 80l35 -7q-2 -2 -29.5 -42t-25.5 -40z" />
    <glyph glyph-name="tilde" unicode="&#x2dc;" horiz-adv-x="364" 
d="M63 653v38q0 11 8 11h22q9 0 9 -11v-26q0 -28 5 -38t17.5 -10t19 8t19 35t24.5 36t41 9q55 0 55 -77v-40q0 -11 -8 -11h-22q-9 0 -9 11v27q0 29 -5 39t-15.5 10t-14 -1t-8 -7t-6.5 -10.5t-12 -27.5t-23 -32.5t-42 -9.5q-55 0 -55 77z" />
    <glyph glyph-name="hungarumlaut" unicode="&#x2dd;" horiz-adv-x="389" 
d="M144 703h40q16 0 7 -14l-78 -105q-8 -10 -18 -10h-23q-13 0 -7 14l57 102q6 13 22 13zM276 703h40q16 0 7 -14l-78 -105q-8 -10 -18 -10h-23q-15 0 -7 14l57 102q6 13 22 13z" />
    <glyph glyph-name="Mu" unicode="&#x39c;" horiz-adv-x="538" 
d="M152 -119q0 -14 -13 -14h-46q-13 0 -13 14v615q0 14 13 14h46q13 0 13 -14v-345q0 -87 84 -87h57q45 0 69 24t24 68v340q0 14 14 14h44q15 0 15 -14v-482q0 -14 -15 -14h-44q-14 0 -14 14v39h-4q-25 -53 -103 -53q-4 0 -22 -0.5t-25 0t-21.5 2t-22.5 4.5q-22 6 -36 22
v-147z" />
    <glyph glyph-name="Pi" unicode="&#x3a0;" horiz-adv-x="622" 
d="M202 0h-45q-14 0 -14 14v555q0 8 -10 8h-82q-15 0 -15 15v37q0 14 15 14h521q14 0 14 -14v-37q0 -15 -14 -15h-83q-10 0 -10 -9v-554q0 -14 -14 -14h-45q-14 0 -14 14v554q0 9 -9 9h-171q-10 0 -10 -9v-554q0 -14 -14 -14z" />
    <glyph glyph-name="Sigma" unicode="&#x3a3;" horiz-adv-x="485" 
d="M62 594v35q0 14 14 14h338q14 0 14 -14v-40q0 -15 -14 -15h-267v-4l153 -233q11 -19 0 -37l-153 -228v-4h267q15 0 15 -15v-40q0 -13 -15 -13h-338q-14 0 -14 14v34q0 16 8 30l157 239v4l-158 244q-7 11 -7 29z" />
    <glyph glyph-name="uni0901" unicode="&#x901;" horiz-adv-x="0" 
d="M-64 690h-95q-119 0 -119 124v7q0 20 17 20h30q16 0 16 -19v-7q0 -37 14.5 -52t51.5 -15h75q37 0 51.5 15t14.5 52v7q0 19 17 19h28q17 0 17 -20v-6q0 -125 -118 -125zM-80 886v-38q0 -15 -14 -15h-34q-14 0 -14 15v38q0 14 14 14h34q14 0 14 -14z" />
    <glyph glyph-name="uni0902" unicode="&#x902;" horiz-adv-x="0" 
d="M-82 790v-48q0 -15 -15 -15h-46q-15 0 -15 15v48q0 14 15 14h46q15 0 15 -14z" />
    <glyph glyph-name="uni0903" unicode="&#x903;" horiz-adv-x="249" 
d="M163 425v-47q0 -18 -17 -18h-41q-17 0 -17 18v47q0 17 17 17h41q17 0 17 -17zM163 132v-46q0 -18 -17 -18h-41q-17 0 -17 18v46q0 18 17 18h41q17 0 17 -18z" />
    <glyph glyph-name="uni0905" unicode="&#x905;" horiz-adv-x="601" 
d="M479 623h125q16 0 16 -15v-30q0 -15 -16 -15h-75q-10 0 -10 -10v-538q0 -15 -15 -15h-38q-16 0 -16 15v208q0 10 -10 10h-116v-45q0 -71 -40.5 -110.5t-111.5 -39.5h-120q-16 0 -16 15v32q0 14 16 14h116q89 0 89 89v33q0 86 -89 86h-57q-16 0 -16 15v31q0 15 15 15h58
q89 0 89 87v20q0 88 -89 88h-83q-16 0 -16 15v30q0 15 16 15h90q72 0 110.5 -38.5t38.5 -110.5v-22q0 -85 -64 -112v-4q34 -12 50 -43h130q10 0 10 11v289q0 13 8 21.5t21 8.5z" />
    <glyph glyph-name="uni0906" unicode="&#x906;" horiz-adv-x="833" 
d="M478 623h358q16 0 16 -15v-30q0 -15 -16 -15h-75q-10 0 -10 -10v-538q0 -15 -15 -15h-39q-15 0 -15 15v538q0 10 -10 10h-144q-10 0 -10 -10v-538q0 -15 -15 -15h-38q-16 0 -16 15v208q0 10 -10 10h-116v-45q0 -71 -40.5 -110.5t-111.5 -39.5h-120q-16 0 -16 15v32
q0 14 16 14h116q89 0 89 89v33q0 86 -89 86h-57q-16 0 -16 15v31q0 15 15 15h58q89 0 89 87v20q0 88 -89 88h-83q-16 0 -16 15v30q0 15 16 15h90q72 0 110.5 -38.5t38.5 -110.5v-22q0 -85 -64 -112v-4q34 -12 50 -43h130q10 0 10 11v289q0 13 8 21.5t21 8.5z" />
    <glyph glyph-name="uni0907" unicode="&#x907;" horiz-adv-x="475" 
d="M284 225h-90q-129 0 -129 115v16q0 56 34 84.5t95 28.5h117q10 0 10 10v74q0 10 -10 10h-314q-16 0 -16 15v30q0 15 16 15h481q16 0 16 -15v-30q0 -15 -16 -15h-79q-10 0 -10 -10v-111q0 -34 -35 -34h-156q-36 0 -51 -13t-15 -45v-10q0 -31 15.5 -43.5t50.5 -12.5h93
q127 0 127 -110v-47q0 -57 -33 -87t-94 -30h-81q-59 0 -78 33h-4v-77q0 -15 -15 -15h-36q-15 0 -15 15v189q0 15 15 15h36q15 0 15 -15v-16q0 -69 73 -69h83q36 0 51 13.5t15 45.5v41q0 30 -15.5 42.5t-50.5 12.5z" />
    <glyph glyph-name="uni0908" unicode="&#x908;" horiz-adv-x="475" 
d="M305 722v-53q0 -27 10.5 -36.5t43.5 -9.5h119q16 0 16 -15v-30q0 -15 -16 -15h-79q-10 0 -10 -10v-111q0 -34 -35 -34h-156q-36 0 -51 -13t-15 -45v-10q0 -31 15.5 -43.5t50.5 -12.5h93q127 0 127 -110v-47q0 -57 -33 -87t-94 -30h-81q-59 0 -78 33h-4v-77q0 -15 -15 -15
h-36q-15 0 -15 15v189q0 15 15 15h36q15 0 15 -15v-16q0 -69 73 -69h83q36 0 51 13.5t15 45.5v41q0 30 -15.5 42.5t-50.5 12.5h-90q-129 0 -129 115v16q0 56 34 84.5t95 28.5h117q10 0 10 10v74q0 10 -10 10h-314q-16 0 -16 15v30q0 15 16 15h260v4q-20 11 -20 49v48
q0 70 39.5 107.5t104.5 37.5h59q15 0 15 -15v-31q0 -15 -15 -15h-56q-79 0 -79 -86z" />
    <glyph glyph-name="uni0909" unicode="&#x909;" horiz-adv-x="468" 
d="M406 211v-57q0 -72 -39.5 -113t-111.5 -41h-61q-71 0 -111.5 41t-40.5 113v50q0 18 15 18h38q14 0 14 -18v-50q0 -93 92 -93h49q89 0 89 96v41q0 92 -89 92h-52q-15 0 -15 15v31q0 15 15 15h50q87 0 87 85v40q0 87 -85 87h-253q-16 0 -16 15v30q0 15 16 15h474
q16 0 16 -15v-30q0 -15 -16 -15h-110v-4q42 -21 42 -85v-43q0 -83 -61 -108v-4q64 -27 64 -108z" />
    <glyph glyph-name="uni090A" unicode="&#x90a;" horiz-adv-x="659" 
d="M-3 623h665q16 0 16 -15v-30q0 -15 -16 -15h-301v-4q42 -21 42 -85v-43q0 -83 -61 -108v-4h156q61 0 97 -34t36 -98v-51q0 -63 -36 -96t-97 -33h-26q-16 0 -16 15v32q0 14 16 14h12q80 0 80 82v26q0 81 -80 81h-85q7 -20 7 -46v-55q0 -72 -39.5 -114t-111.5 -42h-61
q-71 0 -111.5 41t-40.5 113v50q0 18 15 18h38q14 0 14 -18v-50q0 -93 92 -93h49q89 0 89 96v41q0 92 -89 92h-52q-15 0 -15 15v31q0 15 15 15h50q87 0 87 85v40q0 87 -85 87h-253q-16 0 -16 15v30q0 15 16 15z" />
    <glyph glyph-name="uni090B" unicode="&#x90b;" horiz-adv-x="764" 
d="M-4 623h771q15 0 15 -15v-30q0 -15 -15 -15h-341q-11 0 -11 -10v-255l152 118q19 14 35 14h75q15 0 15 -15v-191q0 -19 -23 -19h-28q-68 0 -68 -59v-29q0 -32 16.5 -45t53.5 -13h45q19 0 19 -17v-26q0 -16 -20 -16h-51q-130 0 -130 111v38q0 103 112 109q11 0 11 10v115
l-214 -166v-202q0 -15 -15 -15h-38q-15 0 -15 15v148l-194 -152q-13 -11 -27 -11h-50q-12 0 -12 12q0 9 15 21l183 143l83 61v50q0 83 -91 83h-39q-90 0 -90 -83v-45q0 -15 -15 -15h-37q-15 0 -15 15v48q0 70 39.5 106.5t110.5 36.5h35q72 0 100 -43h4v163q0 10 -10 10h-341
q-15 0 -15 15v30q0 15 15 15z" />
    <glyph glyph-name="uni090C" unicode="&#x90c;" horiz-adv-x="666" 
d="M687 -133q5 -5 5 -12.5t-13 -17.5q-51 -46 -136 -46q-148 0 -148 139q0 128 120 134v229q0 47 -19.5 66.5t-60.5 19.5t-60.5 -19.5t-19.5 -67.5v-77q0 -16 -15 -16h-36q-15 0 -15 16v80q0 46 -19.5 65.5t-60 19.5t-60.5 -21.5t-20 -69.5v-103q0 -91 91 -91h35
q16 0 16 -14v-32q0 -15 -16 -15h-43q-72 0 -111 37.5t-39 111.5v110q0 74 38.5 112t105.5 38q90 0 114 -64h4q20 63 105 63q61 0 82 -36h4v147q0 10 -9 10h-509q-16 0 -16 15v30q0 15 16 15h672q16 0 16 -15v-30q0 -15 -16 -15h-75q-11 0 -11 -10v-532q0 -15 -16 -15h-38
q-39 0 -54 -18t-15 -60t20.5 -59.5t71.5 -17.5t96 40q7 5 13.5 5t10.5 -8z" />
    <glyph glyph-name="uni090D" unicode="&#x90d;" horiz-adv-x="520" 
d="M-3 623h530q16 0 16 -15v-30q0 -15 -16 -15h-55q-11 0 -11 -10v-131q0 -73 -38.5 -109t-106.5 -36h-40q-16 0 -16 15v31q0 15 16 15h33q40 0 62 19t22 65v131q0 10 -10 10h-222q-11 0 -11 -10v-358q0 -49 27.5 -75.5t78.5 -26.5h160q15 0 15 -15v-32q0 -15 -15 -16h-171
q-75 0 -119 45t-44 117v361q0 10 -10 10h-75q-16 0 -16 15v30q0 15 16 15zM311 717h-82q-119 0 -119 124v7q0 20 18 20h29q16 0 16 -19v-7q0 -37 14.5 -52t51.5 -15h62q37 0 51.5 15t14.5 52v7q0 19 16 19h30q17 0 17 -20v-7q0 -124 -119 -124z" />
    <glyph glyph-name="uni090E" unicode="&#x90e;" horiz-adv-x="521" 
d="M476 623h51q16 0 16 -15v-30q0 -15 -16 -15h-55q-11 0 -11 -10v-131q0 -73 -38.5 -109t-106.5 -36h-40q-16 0 -16 15v31q0 15 16 15h33q40 0 62 19t22 65v131q0 10 -10 10h-222q-11 0 -11 -10v-358q0 -49 27.5 -75.5t78.5 -26.5h160q15 0 15 -15v-32q0 -15 -15 -16h-171
q-75 0 -119 45t-44 117v361q0 10 -10 10h-75q-16 0 -16 15v30q0 15 16 15h390q10 0 10 12.5t-12 22.5q-12 11 -116 64q-44 23 -63.5 50.5t-19.5 70.5v20q0 15 15 15h37q15 0 15 -15v-16q0 -31 13.5 -46.5t44.5 -30.5l63 -32q48 -23 70 -44.5t22 -59.5q0 -11 10 -11z" />
    <glyph glyph-name="uni090F" unicode="&#x90f;" horiz-adv-x="524" 
d="M-3 623h530q16 0 16 -15v-30q0 -15 -16 -15h-55q-11 0 -11 -10v-131q0 -73 -38.5 -109t-106.5 -36h-40q-16 0 -16 15v31q0 15 16 15h33q40 0 62 19t22 65v131q0 10 -10 10h-222q-11 0 -11 -10v-358q0 -49 27.5 -75.5t78.5 -26.5h160q15 0 15 -15v-32q0 -15 -15 -16h-171
q-75 0 -119 45t-44 117v361q0 10 -10 10h-75q-16 0 -16 15v30q0 15 16 15z" />
    <glyph glyph-name="uni0910" unicode="&#x910;" horiz-adv-x="524" 
d="M469 623h58q16 0 16 -15v-30q0 -15 -16 -15h-55q-11 0 -11 -10v-131q0 -73 -38.5 -109t-106.5 -36h-40q-16 0 -16 15v31q0 15 16 15h33q40 0 62 19t22 65v131q0 10 -10 10h-222q-11 0 -11 -10v-358q0 -49 27.5 -75.5t78.5 -26.5h160q15 0 15 -15v-32q0 -15 -15 -16h-171
q-75 0 -119 45t-44 117v361q0 10 -10 10h-75q-16 0 -16 15v30q0 15 16 15h399q-55 60 -112 145l-59 87q-4 8 -4 11q0 12 13 12h43q14 0 22 -13l146 -226q9 -16 24 -16z" />
    <glyph glyph-name="uni0911" unicode="&#x911;" horiz-adv-x="834" 
d="M479 623h358q16 0 16 -15v-30q0 -15 -16 -15h-75q-10 0 -10 -10v-538q0 -15 -15 -15h-38q-15 0 -15 15v538q0 10 -11 10h-144q-10 0 -10 -10v-538q0 -15 -15 -15h-38q-16 0 -16 15v208q0 10 -10 10h-116v-45q0 -71 -40.5 -110.5t-111.5 -39.5h-120q-16 0 -16 15v32
q0 14 16 14h116q89 0 89 89v33q0 86 -89 86h-57q-16 0 -16 15v31q0 15 15 15h58q89 0 89 87v20q0 88 -89 88h-83q-16 0 -16 15v30q0 15 16 15h90q72 0 110.5 -38.5t38.5 -110.5v-22q0 -85 -64 -112v-4q34 -12 50 -43h130q10 0 10 11v289q0 13 8 21.5t21 8.5zM649 690h-81
q-120 0 -120 124v7q0 20 18 20h29q16 0 16 -19v-7q0 -37 14.5 -52t51.5 -15h62q37 0 51.5 15t14.5 52v7q0 19 17 19h28q17 0 17 -20v-5q0 -126 -118 -126z" />
    <glyph glyph-name="uni0912" unicode="&#x912;" horiz-adv-x="831" 
d="M764 623h70q16 0 16 -15v-30q0 -15 -16 -15h-75q-11 0 -11 -10v-538q0 -15 -15 -15h-38q-15 0 -15 15v538q0 10 -10 10h-141q-10 0 -10 -10v-538q0 -15 -15 -15h-38q-16 0 -16 15v208q0 10 -10 10h-116v-45q0 -71 -40.5 -110.5t-111.5 -39.5h-120q-16 0 -16 15v32
q0 14 16 14h116q89 0 89 89v33q0 86 -89 86h-57q-16 0 -16 15v31q0 15 15 15h58q89 0 89 87v20q0 88 -89 88h-83q-16 0 -16 15v30q0 15 16 15h90q72 0 110.5 -38.5t38.5 -110.5v-22q0 -85 -64 -112v-4q34 -12 50 -43h130q10 0 10 11v289q0 13 8 21.5t21 8.5h196
q10 0 10 12.5t-12 22.5q-12 11 -116 64q-44 23 -63.5 50.5t-19.5 70.5v20q0 15 15 15h37q15 0 15 -15v-16q0 -31 13.5 -46.5t44.5 -30.5l63 -32q48 -23 70 -44.5t22 -59.5q0 -11 10 -11z" />
    <glyph glyph-name="uni0913" unicode="&#x913;" horiz-adv-x="834" 
d="M761 623h76q16 0 16 -15v-30q0 -15 -16 -15h-75q-10 0 -10 -10v-538q0 -15 -15 -15h-38q-15 0 -15 15v538q0 10 -11 10h-144q-10 0 -10 -10v-538q0 -15 -15 -15h-38q-16 0 -16 15v208q0 10 -10 10h-116v-45q0 -71 -40.5 -110.5t-111.5 -39.5h-120q-16 0 -16 15v32
q0 14 16 14h116q89 0 89 89v33q0 86 -89 86h-57q-16 0 -16 15v31q0 15 15 15h58q89 0 89 87v20q0 88 -89 88h-83q-16 0 -16 15v30q0 15 16 15h90q72 0 110.5 -38.5t38.5 -110.5v-22q0 -85 -64 -112v-4q34 -12 50 -43h130q10 0 10 11v289q0 13 8 21.5t21 8.5h205v4
q-55 61 -110 141l-59 87q-3 6 -3 11q0 12 12 12h45q14 0 22 -13q152 -236 155 -239q4 -3 15 -3z" />
    <glyph glyph-name="uni0914" unicode="&#x914;" horiz-adv-x="834" 
d="M760 623h77q16 0 16 -15v-30q0 -15 -16 -15h-75q-10 0 -10 -10v-538q0 -15 -15 -15h-38q-15 0 -15 15v538q0 10 -11 10h-144q-10 0 -10 -10v-538q0 -15 -15 -15h-38q-16 0 -16 15v208q0 10 -10 10h-116v-45q0 -71 -40.5 -110.5t-111.5 -39.5h-120q-16 0 -16 15v32
q0 14 16 14h116q89 0 89 89v33q0 86 -89 86h-57q-16 0 -16 15v31q0 15 15 15h58q89 0 89 87v20q0 88 -89 88h-83q-16 0 -16 15v30q0 15 16 15h90q72 0 110.5 -38.5t38.5 -110.5v-22q0 -85 -64 -112v-4q34 -12 50 -43h130q10 0 10 11v289q0 13 8 21.5t21 8.5h201v4
q-42 32 -119 141l-59 87q-4 5 -4 11q0 12 13 12h37q19 0 26 -13l137 -222l3 2q-28 63 -28 177v41q0 15 15 15h36q15 0 15 -15v-229q0 -11 8 -11z" />
    <glyph glyph-name="uni0915" unicode="&#x915;" horiz-adv-x="727" 
d="M397 553v-122h4q21 44 94 44h30q70 0 110 -39.5t40 -109.5v-87q-1 -70 -40.5 -109.5t-109.5 -39.5h-46q-16 0 -16 15v31q0 15 16 15h38q90 0 90 91v81q0 44 -24 67.5t-68 23.5h-32q-86 0 -86 -84v-314q0 -16 -15 -16h-38q-14 0 -14 16v118h-4q-24 -44 -94 -44h-30
q-70 0 -110 39.5t-40 109.5v87q0 70 40 109.5t110 39.5h46q15 0 15 -15v-31q0 -15 -15 -15h-38q-91 0 -91 -91v-81q0 -44 24 -67.5t68 -23.5h32q42 0 64.5 21.5t22.5 62.5v318q0 10 -10 10h-323q-16 0 -16 15v30q0 15 16 15h733q16 0 16 -15v-30q0 -15 -16 -15h-323
q-10 0 -10 -10z" />
    <glyph glyph-name="uni0916" unicode="&#x916;" horiz-adv-x="705" 
d="M555 172h-4q-25 -41 -89 -43h-11q-66 0 -100.5 38t-34.5 105v44q0 65 36.5 102.5t105.5 37.5h18q16 0 16 -15v-31q0 -14 -16 -14h-13q-43 0 -61.5 -21.5t-18.5 -66.5v-32q0 -45 19.5 -66.5t62.5 -21.5h5q85 0 85 90v275q0 10 -10 10h-271q-10 0 -10 -10v-152
q0 -64 -33 -97.5t-89 -33.5h-29l162 -244q5 -7 5 -12q0 -14 -14 -14h-41q-9 0 -18 11l-152 230l-22 29v43q0 17 18 17h78q67 0 67 74v149q0 10 -9 10h-190q-16 0 -16 15v30q0 15 16 15h711q16 0 16 -15v-30q0 -15 -16 -15h-75q-11 0 -11 -10v-538q0 -15 -15 -15h-37
q-15 0 -15 15v157z" />
    <glyph glyph-name="uni0917" unicode="&#x917;" horiz-adv-x="502" 
d="M-3 623h508q16 0 16 -15v-30q0 -15 -16 -15h-75q-10 0 -10 -10v-538q0 -15 -15 -15h-38q-15 0 -15 15v538q0 10 -10 10h-133q-10 0 -10 -10v-196q0 -74 -37.5 -111t-105.5 -37h-20q-15 0 -15 15v33q0 15 15 15h11q84 0 84 87v194q0 10 -10 10h-124q-16 0 -16 15v30
q0 15 16 15z" />
    <glyph glyph-name="uni0918" unicode="&#x918;" horiz-adv-x="554" 
d="M63 451v37q0 53 32 71v4h-98q-16 0 -16 16v29q0 15 16 15h560q16 0 16 -15v-30q0 -15 -16 -15h-75q-11 0 -11 -10v-538q0 -15 -15 -15h-38q-15 0 -15 15v111h-4q-22 -48 -94 -48h-102q-67 0 -103.5 35.5t-36.5 102.5v37q0 79 60 99v4q-60 21 -60 95zM393 563h-199
q-64 0 -64 -71v-37q0 -69 69 -69h62q15 0 15 -15v-32q0 -15 -15 -15h-62q-69 0 -69 -70v-33q0 -42 20 -61.5t62 -19.5h89q102 1 102 101v312q0 10 -10 10z" />
    <glyph glyph-name="uni0919" unicode="&#x919;" horiz-adv-x="517" 
d="M489 356v-43q0 -15 -14 -15h-42q-15 0 -15 15v43q0 14 15 14h42q14 0 14 -14zM-3 623h523q15 0 15 -15v-30q0 -15 -15 -15h-125q-10 0 -10 -10v-117q0 -16 -10 -25t-25 -9h-150q-36 0 -51.5 -12.5t-15.5 -45.5v-10q0 -33 15 -45.5t52 -12.5h87q126 0 126 -110v-50
q0 -57 -33 -86.5t-93 -29.5h-91q-67 0 -101 29.5t-34 98.5v7q0 18 16 18h35q14 0 14 -18v-7q0 -40 16.5 -54t58.5 -14h77q36 0 51.5 14t15.5 47v38q0 34 -15.5 47t-51.5 13h-83q-66 0 -97.5 26.5t-31.5 84.5v21q0 56 34 84t95 28h112q10 0 10 11v79q0 10 -10 10h-310
q-16 0 -16 15v30q0 15 16 15z" />
    <glyph glyph-name="uni091A" unicode="&#x91a;" horiz-adv-x="571" 
d="M146 378h-108q-16 0 -16 15v32q0 15 16 15h277q16 0 16 -15v-32q0 -15 -16 -15h-60q-84 0 -84 -90v-39q0 -90 90 -90h66q45 0 69 24.5t24 69.5v300q0 10 -10 10h-413q-16 0 -16 15v30q0 15 16 15h578q15 0 15 -15v-30q0 -15 -15 -15h-76q-10 0 -10 -10v-537
q0 -16 -15 -16h-39q-15 0 -15 16v129h-4q-25 -48 -98 -48h-66q-70 0 -109.5 39t-39.5 109v38q0 68 43 91v4z" />
    <glyph glyph-name="uni091B" unicode="&#x91b;" horiz-adv-x="573" 
d="M-3 623h579q15 0 15 -15v-29q0 -15 -15 -16h-77q-12 0 -12 -10v-98q0 -35 -21 -52q42 -32 42 -104v-114q0 -63 -37.5 -103.5t-105.5 -40.5h-152q-68 0 -106 34.5t-38 101.5v41q0 81 61 101v4q-61 17 -61 90v72q0 57 35 74v4h-107q-16 1 -16 16v29q0 15 16 15zM342 426h40
q12 0 32 -2q4 8 4 23v106q0 10 -11 10h-199q-71 0 -71 -77v-64q0 -70 69 -70h39q15 0 15 -15v-31q0 -14 -15 -14h-34q-74 0 -74 -75v-34q0 -43 19 -61.5t63 -18.5h135q88 0 88 90v107q0 66 -64 66h-36q-16 0 -16 15v31q0 14 16 14z" />
    <glyph glyph-name="uni091C" unicode="&#x91c;" horiz-adv-x="551" 
d="M245 362v-4q39 -20 39 -78v-74q0 -70 -35.5 -106.5t-98.5 -36.5h-106q-16 0 -16 14v32q0 15 16 15h90q43 0 63 21t20 66v65q0 86 -84 86h-49q-15 0 -15 15v35q0 14 15 14h306q10 0 10 10v117q0 10 -9 10h-394q-16 0 -16 15v30q0 15 16 15h557q16 0 16 -15v-30
q0 -15 -16 -15h-75q-10 0 -10 -10v-538q0 -15 -16 -15h-38q-15 0 -15 15v337q0 10 -10 10h-145z" />
    <glyph glyph-name="uni091D" unicode="&#x91d;" horiz-adv-x="658" 
d="M498 563h-134q-10 0 -10 -10v-100q0 -16 -10 -25t-25 -9h-120q-36 0 -51 -13t-15 -44v-12q0 -31 15.5 -43t50.5 -12h298q11 0 11 10v248q0 10 -10 10zM276 563h-279q-16 0 -16 15v30q0 15 16 15h665q15 0 15 -15v-30q0 -15 -15 -15h-76q-10 0 -10 -10v-538q0 -15 -15 -15
h-38q-15 0 -15 15v209q0 11 -11 11h-132q18 -17 18 -50v-41q0 -57 -33.5 -87t-93.5 -30h-47q-58 0 -77 33h-4v-81q0 -15 -15 -15h-37q-15 0 -15 15v195q0 16 15 16h37q15 0 15 -16v-18q0 -68 72 -68h48q36 0 52 14t16 47v27q0 32 -14 45.5t-48 13.5h-59q-129 0 -129 116v16
q0 56 34 84.5t95 28.5h81q10 0 10 10v63q0 10 -10 10z" />
    <glyph glyph-name="uni091E" unicode="&#x91e;" horiz-adv-x="581" 
d="M148 465q143 0 143 -148q1 -9 12 -9h117q11 0 11 10v235q0 10 -10 10h-424q-16 0 -16 15v30q0 15 16 15h588q15 0 15 -15v-30q0 -15 -15 -15h-76q-10 0 -10 -10v-538q0 -15 -15 -15h-38q-15 0 -15 15v220q0 11 -11 11h-117q-11 0 -11 -10q0 -86 -40.5 -120t-103.5 -34
h-93q-15 0 -15 15v33q0 14 15 14h90q86 0 86 88v83q0 88 -85 88h-75q-15 0 -15 14v33q0 15 15 15h77z" />
    <glyph glyph-name="uni091F" unicode="&#x91f;" horiz-adv-x="479" 
d="M209 439h97q10 0 10 11v103q0 10 -10 10h-309q-16 0 -16 15v30q0 15 16 15h485q16 0 16 -15v-30q0 -15 -16 -15h-88q-10 0 -10 -10v-141q0 -16 -10 -25t-25 -9h-134q-90 0 -90 -90v-100q0 -90 90 -90h67q90 0 90 88v30q0 17 14 17h35q16 0 16 -17v-30q0 -72 -39.5 -110.5
t-110.5 -38.5h-78q-71 0 -110.5 41t-39.5 110v101q0 70 39.5 110t110.5 40z" />
    <glyph glyph-name="uni0920" unicode="&#x920;" horiz-adv-x="509" 
d="M287 378h-73q-88 0 -88 -91v-97q0 -92 90 -92h68q90 0 90 92v97q0 43 -22 67t-65 24zM512 563h-106q-10 0 -10 -10v-59q0 -56 -39 -74v-4q38 -8 61.5 -39t23.5 -77v-116q0 -69 -40.5 -108.5t-110.5 -39.5h-83q-70 0 -110 40.5t-40 111.5v101q0 70 40 110.5t110 40.5h55
q32 0 48 14t16 51v48q0 10 -9 10h-321q-16 0 -16 15v30q0 15 16 15h515q15 0 15 -15v-30q0 -15 -15 -15z" />
    <glyph glyph-name="uni0921" unicode="&#x921;" horiz-adv-x="470" 
d="M-3 623h477q15 0 15 -15v-30q0 -15 -15 -15h-79q-10 0 -10 -10v-117q0 -16 -10 -25t-25 -9h-150q-36 0 -51.5 -12.5t-15.5 -45.5v-13q0 -33 15.5 -45.5t51.5 -12.5h85q128 0 128 -110v-47q0 -56 -34 -86t-93 -30h-89q-136 0 -136 128v7q0 18 16 18h35q14 0 14 -18v-7
q0 -40 18 -54t58 -14h75q68 0 68 61v35q0 33 -16 46.5t-52 13.5h-82q-66 0 -97.5 26.5t-31.5 84.5v24q0 56 34 84t95 28h112q10 0 10 11v79q0 10 -10 10h-310q-16 0 -16 15v30q0 15 16 15z" />
    <glyph glyph-name="uni0922" unicode="&#x922;" horiz-adv-x="486" 
d="M305 37h-95q-71 0 -109.5 40t-38.5 110v113q0 71 38.5 110.5t108.5 39.5h110q10 0 10 10v93q0 10 -10 10h-322q-16 0 -16 15v30q0 15 16 15h492q16 0 16 -15v-30q0 -15 -16 -15h-82q-10 0 -10 -10v-131q0 -15 -9 -23.5t-22 -8.5h-152q-86 0 -86 -91v-114q0 -89 88 -89h88
q41 0 59 18.5t18 59.5v16q0 30 -9.5 43.5t-36.5 13.5t-36 -13t-9 -44v-14q0 -16 -15 -16h-24q-20 0 -20 17v16q0 53 23.5 80.5t79.5 27.5t82 -28t26 -84v-18q0 -134 -137 -134z" />
    <glyph glyph-name="uni0923" unicode="&#x923;" horiz-adv-x="678" 
d="M299 563h-149q-10 0 -10 -10v-242q0 -81 76 -81h17q76 0 76 81v242q0 10 -10 10zM517 563h-132q-9 0 -9 -10v-240q0 -72 -37 -108t-104 -36h-22q-66 0 -103.5 36.5t-37.5 107.5v240q0 10 -10 10h-65q-16 0 -16 15v30q0 15 16 15h684q15 0 15 -15v-30q0 -15 -15 -15h-76
q-10 0 -10 -10v-538q0 -15 -15 -15h-38q-15 0 -15 15v538q0 10 -10 10z" />
    <glyph glyph-name="uni0924" unicode="&#x924;" horiz-adv-x="500" 
d="M128 271v-124q0 -48 22.5 -67.5t65.5 -19.5h12q16 0 16 -15v-30q0 -15 -16 -15h-25q-68 0 -106 37t-38 112v125q0 73 39 110t107 37h134q11 0 11 11v121q0 10 -10 10h-343q-16 0 -16 15v30q0 15 16 15h507q15 0 15 -15v-30q0 -15 -15 -15h-76q-10 0 -10 -10v-538
q0 -15 -15 -15h-38q-15 0 -15 15v333q0 11 -11 11h-127q-84 0 -84 -88z" />
    <glyph glyph-name="uni0925" unicode="&#x925;" horiz-adv-x="598" 
d="M447 151h-4q-28 -53 -112 -53h-107q-81 0 -124.5 47.5t-43.5 118.5v94q0 15 16 15h119q83 0 83 79v53q0 61 -63 61t-63 -60v-43q0 -16 -14 -16h-36q-14 0 -14 16v49q0 53 34.5 83.5t92 30.5t93.5 -30t36 -90v-57q0 -137 -145 -137h-70v-48q0 -106 106 -106h101
q55 0 85 32.5t30 81.5v321q0 13 8 21.5t21 8.5h125q15 0 15 -15v-30q0 -15 -15 -15h-75q-11 0 -11 -10v-538q0 -15 -15 -15h-38q-15 0 -15 15v136z" />
    <glyph glyph-name="uni0926" unicode="&#x926;" horiz-adv-x="487" 
d="M206 463h124q10 0 10 10v80q0 10 -10 10h-333q-16 0 -16 15v30q0 15 16 15h493q16 0 16 -15v-30q0 -15 -16 -15h-73q-10 0 -10 -10v-120q0 -15 -8.5 -23.5t-22.5 -8.5h-162q-86 0 -86 -91v-81q0 -89 88 -89h64q73 0 73 71v38q0 15 15 15h36q15 0 15 -15v-234
q0 -15 -15 -15h-36q-15 0 -15 15v98h-4q-20 -34 -78 -34h-63q-71 0 -109.5 40.5t-38.5 109.5v84q0 71 38 110.5t108 39.5z" />
    <glyph glyph-name="uni0927" unicode="&#x927;" horiz-adv-x="555" 
d="M216 563h-21q-63 0 -63 -71v-37q0 -69 68 -69h63q16 0 16 -15v-32q0 -14 -16 -14h-63q-68 0 -68 -71v-37q0 -43 19.5 -62t61.5 -19h90q102 1 102 100v317q0 10 -11 10h-67q-15 0 -15 15v30q0 15 15 15h231q16 0 16 -15v-30q0 -15 -16 -15h-75q-10 0 -10 -10v-538
q0 -15 -15 -15h-38q-15 0 -15 15v107h-4q-24 -48 -94 -48h-102q-67 0 -104 35.5t-37 102.5v41q0 79 60 99v4q-60 21 -60 95v37q0 53 33 71v4h-100q-16 0 -16 16v29q0 15 16 15h219q15 0 15 -15v-30q0 -15 -15 -15z" />
    <glyph glyph-name="uni0928" unicode="&#x928;" horiz-adv-x="478" 
d="M318 563h-321q-16 0 -16 15v30q0 15 16 15h484q16 0 16 -15v-30q0 -15 -16 -15h-75q-10 0 -10 -10v-538q0 -15 -15 -15h-39q-15 0 -15 15v296q0 10 -10 10h-153q-58 0 -58 -51q0 -12 6.5 -38t6.5 -27q0 -13 -14 -13h-29q-14 0 -21 11q-16 29 -16 76.5t28 75.5t77 28h173
q10 0 10 10v160q0 10 -9 10z" />
    <glyph glyph-name="uni0928093C" unicode="&#x929;" horiz-adv-x="478" 
d="M204 24v-42q0 -16 -15 -16h-42q-14 0 -14 16v42q0 15 14 15h42q15 0 15 -15zM318 563h-321q-16 0 -16 15v30q0 15 16 15h484q16 0 16 -15v-30q0 -15 -16 -15h-75q-10 0 -10 -10v-538q0 -15 -15 -15h-39q-15 0 -15 15v296q0 10 -10 10h-153q-58 0 -58 -51q0 -12 6.5 -38
t6.5 -27q0 -13 -14 -13h-29q-14 0 -21 11q-16 29 -16 76.5t28 75.5t77 28h173q10 0 10 10v160q0 10 -9 10z" />
    <glyph glyph-name="uni092A" unicode="&#x92a;" horiz-adv-x="503" 
d="M227 232h34q45 0 68 24t23 66v231q0 10 -10 10h-191q-10 0 -10 -10v-232q0 -89 86 -89zM-3 623h509q16 0 16 -15v-30q0 -15 -16 -15h-75q-11 0 -11 -10v-538q0 -15 -15 -15h-38q-15 0 -15 15v200h-4q-25 -45 -95 -45h-35q-66 0 -106 39t-40 105v239q0 9 -8 10h-67
q-16 0 -16 16v29q0 15 16 15z" />
    <glyph glyph-name="uni092B" unicode="&#x92b;" horiz-adv-x="741" 
d="M410 330v-314q0 -16 -15 -16h-37q-15 0 -15 15v204h-4q-25 -45 -96 -45h-25q-66 0 -106 39t-40 106v234q0 9 -8 10h-67q-16 0 -16 16v29q0 15 16 15h747q15 0 15 -15v-30q0 -15 -15 -15h-323q-11 0 -11 -10v-122h4q23 44 94 44h30q70 0 110 -39.5t40 -109.5v-87
q0 -70 -40 -109.5t-110 -39.5h-46q-15 0 -15 15v31q0 15 15 15h38q91 0 91 91v81q0 44 -24 67.5t-68 23.5h-32q-42 0 -64.5 -21.5t-22.5 -62.5zM227 237h25q44 0 67.5 23t23.5 64v229q0 10 -11 10h-181q-10 0 -10 -10v-228q0 -88 86 -88z" />
    <glyph glyph-name="uni092C" unicode="&#x92c;" horiz-adv-x="500" 
d="M-3 623h506q16 0 16 -15v-30q0 -15 -16 -15h-75q-10 0 -10 -10v-537q0 -16 -15 -16h-39q-15 0 -15 16v111h-4q-23 -44 -96 -44h-42q-70 0 -110.5 39.5t-40.5 109.5v98q1 70 40.5 109.5t109.5 39.5h61q15 0 15 -15v-30q0 -15 -15 -15h-55q-34 0 -57 -15l193 -190q1 6 1 19
v320q0 10 -10 10h-342q-16 0 -16 15v30q0 15 16 15zM211 142h46q48 0 72 29l-201 197q-6 -18 -6 -40v-95q0 -91 89 -91z" />
    <glyph glyph-name="uni092D" unicode="&#x92d;" horiz-adv-x="497" 
d="M336 275h-183q-11 0 -11 -11v-86q0 -16 -15 -16h-38q-15 0 -15 16v310q0 75 -68 75h-9q-16 0 -16 15v30q0 15 16 15h9q65 0 100.5 -34.5t35.5 -98.5v-144q0 -11 10 -11h184q10 0 10 11v207q0 10 -10 10h-67q-19 0 -19 15v30q0 15 19 15h231q15 0 15 -15v-30
q0 -15 -15 -15h-76q-10 0 -10 -10v-538q0 -15 -15 -15h-38q-15 0 -15 15v249q0 11 -10 11z" />
    <glyph glyph-name="uni092E" unicode="&#x92e;" horiz-adv-x="494" 
d="M344 346v207q0 10 -10 10h-184q-10 0 -10 -10v-207q0 -11 10 -11h183q11 0 11 11zM333 275h-183q-10 0 -10 -11v-86q0 -16 -15 -16h-38q-15 0 -15 16v375q0 10 -10 10h-65q-16 0 -16 15v31q0 14 16 14h501q15 0 15 -15v-30q0 -15 -15 -15h-76q-10 0 -10 -10v-538
q0 -15 -15 -15h-38q-15 0 -15 15v249q0 11 -11 11z" />
    <glyph glyph-name="uni092F" unicode="&#x92f;" horiz-adv-x="569" 
d="M408 563h-168v-4q36 -21 36 -80v-18q0 -127 -133 -127h-16v-69q0 -53 28.5 -81.5t84.5 -28.5h63q57 0 86 30t29 83v285q0 10 -10 10zM210 473v12q0 41 -18 59.5t-60 18.5h-135q-16 0 -16 15v31q0 14 16 14h575q16 0 16 -15v-30q0 -15 -16 -15h-75q-10 0 -10 -10v-538
q0 -15 -15 -15h-39q-15 0 -15 15v133h-4q-27 -54 -112 -54h-68q-82 0 -128 48.5t-46 122.5v114q0 15 15 15h57q42 0 60 17.5t18 61.5z" />
    <glyph glyph-name="uni0930" unicode="&#x930;" horiz-adv-x="338" 
d="M196 404v149q0 10 -9 10h-190q-16 0 -16 15v30q0 15 16 15h344q16 0 16 -15v-30q0 -15 -16 -15h-66q-10 0 -10 -10v-152q0 -64 -32.5 -97.5t-88.5 -33.5h-31l162 -246q3 -4 3 -10q0 -14 -13 -14h-42q-10 0 -17 11l-151 230l-22 29v43q0 17 18 17h78q67 0 67 74z" />
    <glyph glyph-name="uni0930093C" unicode="&#x931;" horiz-adv-x="358" 
d="M85 22v-43q0 -15 -14 -15h-42q-14 0 -14 15v43q0 15 14 15h42q14 0 14 -15zM216 404v149q0 10 -9 10h-210q-16 0 -16 15v30q0 15 16 15h364q15 0 15 -15v-30q0 -15 -15 -15h-66q-10 0 -10 -10v-152q0 -64 -32.5 -97.5t-88.5 -33.5h-31l161 -246q4 -4 4 -10q0 -14 -14 -14
h-41q-11 0 -17 11l-151 230l-22 29v43q0 17 18 17h78q67 0 67 74z" />
    <glyph glyph-name="uni0932" unicode="&#x932;" horiz-adv-x="665" 
d="M428 442q62 0 83 -36h4v147q0 10 -10 10h-508q-16 0 -16 15v30q0 15 16 15h672q15 0 15 -15v-30q0 -15 -15 -15h-76q-10 0 -10 -10v-538q0 -15 -15 -15h-38q-15 0 -15 15v278q0 47 -19.5 66.5t-60.5 19.5t-60.5 -19.5t-19.5 -67.5v-77q0 -16 -15 -16h-36q-15 0 -15 16v80
q0 46 -19.5 65.5t-60 19.5t-60.5 -21.5t-20 -69.5v-103q0 -48 22.5 -69.5t67.5 -21.5h36q16 0 16 -14v-32q0 -15 -16 -15h-44q-71 0 -110 37.5t-39 111.5v110q0 74 38 112t106 38q90 0 113 -64h4q22 63 105 63z" />
    <glyph glyph-name="uni0933" unicode="&#x933;" horiz-adv-x="670" 
d="M-3 623h677q15 0 15 -15v-30q0 -15 -15 -15h-175q-10 0 -10 -10v-104q0 -9 10 -11q108 -23 108 -145v-104q0 -72 -38.5 -110.5t-110.5 -38.5h-9q-82 0 -116 52q-35 -52 -117 -52h-8q-72 0 -110.5 38.5t-38.5 110.5v104q0 73 38.5 111.5t110.5 38.5h8q83 0 117 -54
q27 41 84 51q9 3 9 11v102q0 10 -10 10h-419q-16 0 -16 15v30q0 15 16 15zM300 189v104q0 89 -84 89h-7q-84 0 -84 -89v-104q0 -89 84 -89h7q84 0 84 89zM541 189v104q0 89 -84 89h-7q-84 0 -84 -89v-104q0 -89 84 -89h7q84 0 84 89z" />
    <glyph glyph-name="uni0933093C" unicode="&#x934;" horiz-adv-x="670" 
d="M-3 623h677q15 0 15 -15v-30q0 -15 -15 -15h-175q-10 0 -10 -10v-104q0 -9 10 -11q108 -23 108 -145v-104q0 -72 -38.5 -110.5t-110.5 -38.5h-9q-82 0 -116 52q-35 -52 -117 -52h-8q-72 0 -110.5 38.5t-38.5 110.5v104q0 73 38.5 111.5t110.5 38.5h8q83 0 117 -54
q27 41 84 51q9 3 9 11v102q0 10 -10 10h-419q-16 0 -16 15v30q0 15 16 15zM300 189v104q0 89 -84 89h-7q-84 0 -84 -89v-104q0 -89 84 -89h7q84 0 84 89zM541 189v104q0 89 -84 89h-7q-84 0 -84 -89v-104q0 -89 84 -89h7q84 0 84 89zM185 0h42q14 0 14 -15v-43
q0 -15 -14 -15h-42q-14 0 -14 15v43q0 15 14 15z" />
    <glyph glyph-name="uni0935" unicode="&#x935;" horiz-adv-x="492" 
d="M410 553v-537q0 -16 -15 -16h-38q-15 0 -15 16v114h-4q-24 -44 -96 -44h-35q-70 0 -110.5 39.5t-40.5 109.5v89q1 71 40.5 110.5t109.5 39.5h54q16 0 16 -15v-32q0 -15 -16 -15h-45q-90 0 -90 -91v-83q0 -91 90 -91h35q45 0 68.5 24.5t23.5 66.5v315q0 10 -10 10h-335
q-16 0 -16 15v30q0 15 16 15h498q16 0 16 -15v-30q0 -15 -16 -15h-75q-10 0 -10 -10z" />
    <glyph glyph-name="uni0936" unicode="&#x936;" horiz-adv-x="623" 
d="M473 15v578q0 13 8 21.5t21 8.5h125q15 0 15 -15v-30q0 -15 -15 -15h-76q-10 0 -10 -10v-538q0 -15 -15 -15h-38q-15 0 -15 15zM299 13q0 -13 -14 -13h-43q-12 0 -17 11l-153 219l-23 29v43q0 17 18 17h129q86 0 86 85v89q0 39 -16 55.5t-54.5 16.5t-54.5 -16.5
t-16 -54.5v-52q0 -15 -14 -15h-38q-15 0 -15 15v50q0 132 137.5 132t137.5 -132v-87q0 -146 -150 -146h-71l167 -235q4 -4 4 -11z" />
    <glyph glyph-name="uni0937" unicode="&#x937;" horiz-adv-x="507" 
d="M356 553q0 10 -10 10h-207l217 -243v233zM227 224h39q57 0 79 42l-204 231v-185q0 -88 86 -88zM-3 623h514q15 0 15 -15v-30q0 -15 -15 -15h-76q-10 0 -10 -10v-538q0 -15 -15 -15h-39q-15 0 -15 15v192h-4q-23 -44 -95 -44h-39q-66 0 -106 39t-40 105v246q0 9 -8 10h-67
q-16 0 -16 16v29q0 15 16 15z" />
    <glyph glyph-name="uni0938" unicode="&#x938;" horiz-adv-x="583" 
d="M219 328h203q11 0 11 11v214q0 10 -11 10h-162q-10 0 -10 -10v-137q0 -62 -31 -84v-4zM263 13q0 -13 -14 -13h-42q-11 0 -17 11l-128 216l-29 41v43q0 17 18 17h64q30 0 48 18t18 56v151q0 10 -10 10h-174q-16 0 -16 16v29q0 15 16 15h590q15 0 15 -15v-30q0 -15 -15 -15
h-76q-10 0 -10 -10v-538q0 -15 -15 -15h-38q-15 0 -15 15v241q0 11 -11 11h-309l145 -240q5 -7 5 -14z" />
    <glyph glyph-name="uni0939" unicode="&#x939;" horiz-adv-x="476" 
d="M320 563h-323q-16 0 -16 15v30q0 15 16 15h482q16 0 16 -15v-30q0 -15 -16 -15h-72q-10 0 -10 -10v-109q0 -17 -10 -26t-25 -9h-151q-38 0 -55 -15.5t-17 -52t16.5 -52t54.5 -15.5h81q59 0 90.5 -30t31.5 -86v-30q0 -15 -15 -15h-36q-15 0 -15 15v21q0 36 -15.5 52.5
t-51.5 16.5h-67q-80 0 -80 -91v-23q0 -45 24 -67t77 -22h151q16 0 16 -14v-29q0 -15 -16 -15h-157q-81 0 -122.5 37.5t-41.5 108.5v26q0 87 64 115v4q-58 22 -58 101q0 120 131 120h117q11 0 11 10v74q0 10 -9 10z" />
    <glyph glyph-name="uni093C" unicode="&#x93c;" horiz-adv-x="0" 
d="M-146 -41v-43q0 -15 -14 -15h-42q-14 0 -14 15v43q0 15 14 15h42q14 0 14 -15z" />
    <glyph glyph-name="uni093D" unicode="&#x93d;" horiz-adv-x="534" 
d="M453 202v-59q0 -68 -35 -105.5t-106 -37.5h-62q-91 0 -165 101q-6 6 -6 13t9 15l15 12q7 6 13.5 6t12.5 -6t17.5 -19t15.5 -16.5t14 -13t16.5 -13t16.5 -9.5q15 -8 43 -8h51q47 0 64.5 21.5t17.5 64.5v50q0 25 -10 36.5t-16.5 17.5t-21.5 14t-25 13q-27 14 -65 32
q-75 38 -103 77t-28 106.5t29 98t108 30.5h145q16 0 16 -15v-30q0 -15 -16 -15h-134q-47 0 -63 -16.5t-16 -56t28 -67t106.5 -67t106 -69t27.5 -85.5z" />
    <glyph glyph-name="uni093E" unicode="&#x93e;" 
d="M136 0h-39q-15 0 -15 15v538q0 10 -10 10h-75q-15 0 -15 15v30q0 15 15 15h239q16 0 16 -15v-30q0 -15 -16 -15h-75q-10 0 -10 -10v-538q0 -15 -15 -15z" />
    <glyph glyph-name="uni093F" unicode="&#x93f;" 
d="M236 881h254q153 0 153 -146v-31q0 -16 -16 -16h-38q-15 0 -15 16v30q0 47 -19.5 66t-64.5 19h-255q-45 0 -64.5 -19t-19.5 -66v-100q0 -11 10 -11h75q16 0 16 -15v-30q0 -15 -16 -15h-75q-10 0 -10 -10v-538q0 -15 -15 -15h-39q-15 0 -15 15v538q0 10 -10 10h-75
q-15 0 -15 15v30q0 15 15 15h75q10 0 10 11v111q0 69 40.5 102.5t113.5 33.5z" />
    <glyph glyph-name="uni0940" unicode="&#x940;" 
d="M161 623h75q16 0 16 -15v-30q0 -15 -16 -15h-75q-10 0 -10 -10v-538q0 -15 -15 -15h-39q-15 0 -15 15v538q0 10 -10 10h-75q-15 0 -15 15v30q0 15 15 15h75q10 0 10 11v100q0 47 -19.5 66t-64.5 19t-65 -19.5t-20 -65.5v-30q0 -16 -14 -16h-39q-15 0 -15 16v31
q0 146 153 146t153 -136v-111q0 -11 10 -11z" />
    <glyph glyph-name="uni0941" unicode="&#x941;" horiz-adv-x="0" 
d="M-151 -27v28q0 15 16 15h44q68 0 96.5 -30.5t28.5 -97t-30.5 -101.5t-99.5 -35h-52q-55 0 -100 27q-16 10 -36 35q-20 28 -61 98q-7 13 -7 19.5t8 12.5q33 17 38.5 17t13 -12.5t23.5 -43t23 -40t22 -25.5q26 -28 78 -28h50q29 0 44 11.5t18 25.5t3 39.5t-2.5 38t-16.5 22
t-43 9.5h-42q-16 0 -16 15z" />
    <glyph glyph-name="uni0942" unicode="&#x942;" horiz-adv-x="0" 
d="M-266 -113q0 134 128 134h37q48 0 69 -11.5t33 -18.5t24 -23t19 -25t17.5 -30.5t15 -31.5t15 -35.5t14 -33.5t3.5 -14.5t-10 -10.5q-28 -12 -35.5 -12t-14.5 15t-20 46t-19.5 45t-18.5 33.5t-23 27.5q-31 21 -71 21h-35q-37 0 -50.5 -18.5t-13.5 -57t11 -55.5t47 -17h38
q16 0 16 -15v-26q0 -16 -16 -16h-38q-64 0 -93 31.5t-29 97.5z" />
    <glyph glyph-name="uni0943" unicode="&#x943;" horiz-adv-x="0" 
d="M-82 1v-28q0 -15 -16 -15h-45q-38 0 -51.5 -18t-13.5 -59.5t16.5 -59.5t53.5 -18h31q33 0 64 21q6 4 22 16q28 22 35 22t11 -8l15 -21q5 -5 5 -11.5t-13 -16.5q-70 -62 -137 -62h-36q-132 0 -132 139q0 71 31.5 102.5t96.5 31.5h47q16 0 16 -15z" />
    <glyph glyph-name="uni0945" unicode="&#x945;" horiz-adv-x="0" 
d="M-71 690h-81q-119 0 -119 124v7q0 20 17 20h29q16 0 16 -19v-7q0 -37 15 -52t52 -15h62q36 0 50.5 15t14.5 52v7q0 19 18 19h28q17 0 17 -20v-5q0 -126 -119 -126z" />
    <glyph glyph-name="uni0946" unicode="&#x946;" horiz-adv-x="0" 
d="M-161 623q10 0 10 12.5t-12 22.5q-12 11 -116 64q-44 23 -63.5 50.5t-19.5 70.5v20q0 15 15 15h37q15 0 15 -15v-16q0 -31 13.5 -46.5t44.5 -30.5l63 -32q48 -23 70 -44.5t22 -59.5q0 -11 10 -11h7v-34h-104v34h8z" />
    <glyph glyph-name="uni0947" unicode="&#x947;" horiz-adv-x="0" 
d="M-76 623h5v-30h-48q-69 65 -142 175l-59 87q-4 8 -4 11q0 12 13 12h43q14 0 22 -13l146 -226q9 -16 24 -16z" />
    <glyph glyph-name="uni0948" unicode="&#x948;" horiz-adv-x="0" 
d="M-66 602h-66q-69 64 -139 166l-60 87q-4 5 -4 11q0 12 13 12h36q18 0 27 -13l136 -222l3 2q-28 61 -28 189v29q0 15 15 15h36q15 0 15 -15v-229q0 -11 8 -11h8v-21z" />
    <glyph glyph-name="uni0949" unicode="&#x949;" 
d="M136 0h-39q-15 0 -15 15v538q0 10 -10 10h-75q-15 0 -15 15v30q0 15 15 15h239q16 0 16 -15v-30q0 -15 -16 -15h-75q-10 0 -10 -10v-538q0 -15 -15 -15zM157 690h-81q-119 0 -119 124v7q0 20 17 20h30q16 0 16 -19v-7q0 -37 14.5 -52t51.5 -15h62q36 0 50.5 15t14.5 52v7
q0 19 18 19h28q17 0 17 -20v-6q0 -125 -119 -125z" />
    <glyph glyph-name="uni094A" unicode="&#x94a;" 
d="M161 623h75q16 0 16 -15v-30q0 -15 -16 -15h-75q-10 0 -10 -10v-538q0 -15 -15 -15h-39q-15 0 -15 15v538q0 10 -10 10h-75q-15 0 -15 15v30q0 15 15 15h75q10 0 10 12.5t-12 22.5q-12 11 -116 64q-44 23 -63.5 50.5t-19.5 70.5v20q0 15 15 15h37q15 0 15 -15v-16
q0 -31 13.5 -46.5t44.5 -30.5l63 -32q48 -23 70 -44.5t22 -59.5q0 -11 10 -11z" />
    <glyph glyph-name="uni094B" unicode="&#x94b;" 
d="M158 623h78q16 0 16 -15v-30q0 -15 -16 -15h-75q-10 0 -10 -10v-538q0 -15 -15 -15h-39q-15 0 -15 15v538q0 10 -10 10h-75q-15 0 -15 15v30q0 15 15 15h86v4q-67 77 -110 141l-59 87q-4 8 -4 11q0 12 13 12h43q14 0 22 -13l146 -226q9 -16 24 -16z" />
    <glyph glyph-name="uni094C" unicode="&#x94c;" 
d="M159 623h77q16 0 16 -15v-30q0 -15 -16 -15h-75q-10 0 -10 -10v-538q0 -15 -15 -15h-39q-15 0 -15 15v538q0 10 -10 10h-75q-15 0 -15 15v30q0 15 15 15h81v4q-57 55 -116 141l-60 87q-4 5 -4 11q0 12 13 12h36q20 0 27 -13l136 -222l3 2q-28 61 -28 189v29q0 15 15 15
h36q15 0 15 -15v-229q0 -11 8 -11z" />
    <glyph glyph-name="uni094D" unicode="&#x94d;" horiz-adv-x="0" 
d="M-136 -52h35q13 0 22 -14l91 -131q3 -4 3 -11q0 -13 -13 -13h-41q-12 0 -19 12l-88 137q-2 6 -2 8q0 12 12 12z" />
    <glyph glyph-name="uni0950" unicode="&#x950;" horiz-adv-x="853" 
d="M532 456h106q66 0 104.5 -39.5t38.5 -112.5v-157q0 -60 -33 -92.5t-93 -32.5h-25q-60 0 -93 32.5t-33 92.5v76q0 10 -10 10h-95v-57q0 -71 -39.5 -112.5t-111.5 -41.5h-38q-71 0 -111.5 41t-40.5 113v33q0 18 15 18h38q14 0 14 -18v-33q0 -45 24 -68.5t68 -23.5h26
q89 0 89 96v30q0 95 -89 95h-52q-15 0 -15 15v31q0 15 15 15h54q87 0 87 85v24q0 87 -88 87h-86q-16 0 -16 15v31q0 15 16 15h94q72 0 109.5 -38t37.5 -109v-29q0 -85 -63 -109v-4q30 -12 47 -40h130q56 0 56 -54v-87q0 -36 16.5 -52t52.5 -17h10q36 1 52.5 17t16.5 52v147
q0 95 -92 95h-93q-16 0 -16 15v31q0 15 16 15zM639 562h-106q-17 0 -17 15v31q0 15 17 15h99q57 0 93 39q8 10 15 10t13.5 -5.5t18.5 -15.5q7 -7 7 -13t-6 -14q-48 -62 -134 -62zM574 725h-43q-14 0 -14 14v44q0 15 14 15h43q14 0 14 -15v-44q0 -14 -14 -14z" />
    <glyph glyph-name="uni0951" unicode="&#x951;" horiz-adv-x="0" 
d="M-151 689v160q0 15 15 15h39q15 0 15 -15v-160q0 -15 -15 -15h-39q-15 0 -15 15z" />
    <glyph glyph-name="uni0952" unicode="&#x952;" horiz-adv-x="0" 
d="M-80 -93q0 -14 -14 -14h-321q-14 0 -14 14v22q0 13 14 13h321q14 0 14 -13v-22z" />
    <glyph glyph-name="uni0953" unicode="&#x953;" horiz-adv-x="0" 
d="M-212 864q13 0 22 -13l99 -153q4 -5 4 -12q0 -12 -13 -12h-38q-13 0 -22 13l-100 154q-4 8 -4 11q0 12 13 12h39z" />
    <glyph glyph-name="uni0954" unicode="&#x954;" horiz-adv-x="0" 
d="M-25 864h39q13 0 13 -12q0 -3 -4 -11l-101 -154q-7 -13 -21 -13h-38q-13 0 -13 12q0 7 4 12l99 153q7 13 22 13z" />
    <glyph glyph-name="uni0915093C" unicode="&#x958;" horiz-adv-x="727" 
d="M397 553v-122h4q21 44 94 44h30q70 0 110 -39.5t40 -109.5v-87q-1 -70 -40.5 -109.5t-109.5 -39.5h-46q-16 0 -16 15v31q0 15 16 15h38q90 0 90 91v81q0 44 -24 67.5t-68 23.5h-32q-86 0 -86 -84v-314q0 -16 -15 -16h-38q-14 0 -14 16v118h-4q-24 -44 -94 -44h-30
q-70 0 -110 39.5t-40 109.5v87q0 70 40 109.5t110 39.5h46q15 0 15 -15v-31q0 -15 -15 -15h-38q-91 0 -91 -91v-81q0 -44 24 -67.5t68 -23.5h32q42 0 64.5 21.5t22.5 62.5v318q0 10 -10 10h-323q-16 0 -16 15v30q0 15 16 15h733q16 0 16 -15v-30q0 -15 -16 -15h-323
q-10 0 -10 -10zM207 0v-43q0 -15 -14 -15h-42q-14 0 -14 15v43q0 15 14 15h42q14 0 14 -15z" />
    <glyph glyph-name="uni0916093C" unicode="&#x959;" horiz-adv-x="705" 
d="M555 172h-4q-25 -41 -89 -43h-11q-66 0 -100.5 38t-34.5 105v44q0 65 36.5 102.5t105.5 37.5h18q16 0 16 -15v-31q0 -14 -16 -14h-13q-43 0 -61.5 -21.5t-18.5 -66.5v-32q0 -45 19.5 -66.5t62.5 -21.5h5q85 0 85 90v275q0 10 -10 10h-271q-10 0 -10 -10v-152
q0 -64 -33 -97.5t-89 -33.5h-29l162 -244q5 -7 5 -12q0 -14 -14 -14h-41q-9 0 -18 11l-152 230l-22 29v43q0 17 18 17h78q67 0 67 74v149q0 10 -9 10h-190q-16 0 -16 15v30q0 15 16 15h711q16 0 16 -15v-30q0 -15 -16 -15h-75q-11 0 -11 -10v-538q0 -15 -15 -15h-37
q-15 0 -15 15v157zM111 -3v-43q0 -15 -14 -15h-42q-14 0 -14 15v43q0 15 14 15h42q14 0 14 -15z" />
    <glyph glyph-name="uni0917093C" unicode="&#x95a;" horiz-adv-x="502" 
d="M-3 623h508q16 0 16 -15v-30q0 -15 -16 -15h-75q-10 0 -10 -10v-538q0 -15 -15 -15h-38q-15 0 -15 15v538q0 10 -10 10h-133q-10 0 -10 -10v-196q0 -74 -37.5 -111t-105.5 -37h-20q-15 0 -15 15v33q0 15 15 15h11q84 0 84 87v194q0 10 -10 10h-124q-16 0 -16 15v30
q0 15 16 15zM165 11v-43q0 -15 -14 -15h-42q-14 0 -14 15v43q0 15 14 15h42q14 0 14 -15z" />
    <glyph glyph-name="uni091C093C" unicode="&#x95b;" horiz-adv-x="551" 
d="M245 362v-4q39 -20 39 -78v-74q0 -70 -35.5 -106.5t-98.5 -36.5h-106q-16 0 -16 14v32q0 15 16 15h90q43 0 63 21t20 66v65q0 86 -84 86h-49q-15 0 -15 15v35q0 14 15 14h306q10 0 10 10v117q0 10 -9 10h-394q-16 0 -16 15v30q0 15 16 15h557q16 0 16 -15v-30
q0 -15 -16 -15h-75q-10 0 -10 -10v-538q0 -15 -16 -15h-38q-15 0 -15 15v337q0 10 -10 10h-145zM138 -13v-43q0 -15 -14 -15h-42q-14 0 -14 15v43q0 15 14 15h42q14 0 14 -15z" />
    <glyph glyph-name="uni0921093C" unicode="&#x95c;" horiz-adv-x="470" 
d="M-3 623h477q15 0 15 -15v-30q0 -15 -15 -15h-79q-10 0 -10 -10v-117q0 -16 -10 -25t-25 -9h-150q-36 0 -51.5 -12.5t-15.5 -45.5v-13q0 -33 15.5 -45.5t51.5 -12.5h85q128 0 128 -110v-47q0 -56 -34 -86t-93 -30h-89q-136 0 -136 128v7q0 18 16 18h35q14 0 14 -18v-7
q0 -40 18 -54t58 -14h75q68 0 68 61v35q0 33 -16 46.5t-52 13.5h-82q-66 0 -97.5 26.5t-31.5 84.5v24q0 56 34 84t95 28h112q10 0 10 11v79q0 10 -10 10h-310q-16 0 -16 15v30q0 15 16 15zM270 -80v-43q0 -15 -14 -15h-42q-14 0 -14 15v43q0 15 14 15h42q14 0 14 -15z" />
    <glyph glyph-name="uni0922093C" unicode="&#x95d;" horiz-adv-x="486" 
d="M305 37h-95q-71 0 -109.5 40t-38.5 110v113q0 71 38.5 110.5t108.5 39.5h110q10 0 10 10v93q0 10 -10 10h-322q-16 0 -16 15v30q0 15 16 15h492q16 0 16 -15v-30q0 -15 -16 -15h-82q-10 0 -10 -10v-131q0 -15 -9 -23.5t-22 -8.5h-152q-86 0 -86 -91v-114q0 -89 88 -89h88
q41 0 59 18.5t18 59.5v16q0 30 -9.5 43.5t-36.5 13.5t-36 -13t-9 -44v-14q0 -16 -15 -16h-24q-20 0 -20 17v16q0 53 23.5 80.5t79.5 27.5t82 -28t26 -84v-18q0 -134 -137 -134zM286 -50v-43q0 -15 -14 -15h-42q-14 0 -14 15v43q0 15 14 15h42q14 0 14 -15z" />
    <glyph glyph-name="uni092B093C" unicode="&#x95e;" horiz-adv-x="741" 
d="M227 237h25q44 0 67.5 23t23.5 64v229q0 10 -11 10h-181q-10 0 -10 -10v-228q0 -88 86 -88zM410 330v-314q0 -16 -15 -16h-37q-15 0 -15 15v204h-4q-25 -45 -96 -45h-25q-66 0 -106 39t-40 106v234q0 9 -8 10h-67q-16 0 -16 16v29q0 15 16 15h747q15 0 15 -15v-30
q0 -15 -15 -15h-323q-11 0 -11 -10v-122h4q23 44 94 44h30q70 0 110 -39.5t40 -109.5v-87q0 -70 -40 -109.5t-110 -39.5h-46q-15 0 -15 15v31q0 15 15 15h38q91 0 91 91v81q0 44 -24 67.5t-68 23.5h-32q-42 0 -64.5 -21.5t-22.5 -62.5zM201 9v-43q0 -15 -14 -15h-42
q-14 0 -14 15v43q0 15 14 15h42q14 0 14 -15z" />
    <glyph glyph-name="uni092F093C" unicode="&#x95f;" horiz-adv-x="569" 
d="M210 473v12q0 41 -18 59.5t-60 18.5h-135q-16 0 -16 15v31q0 14 16 14h575q16 0 16 -15v-30q0 -15 -16 -15h-75q-10 0 -10 -10v-538q0 -15 -15 -15h-39q-15 0 -15 15v133h-4q-27 -54 -112 -54h-68q-82 0 -128 48.5t-46 122.5v114q0 15 15 15h57q42 0 60 17.5t18 61.5z
M408 563h-168v-4q36 -21 36 -80v-18q0 -127 -133 -127h-16v-69q0 -53 28.5 -81.5t84.5 -28.5h63q57 0 86 30t29 83v285q0 10 -10 10zM166 -2v-43q0 -15 -14 -15h-42q-14 0 -14 15v43q0 15 14 15h42q14 0 14 -15z" />
    <glyph glyph-name="uni0960" unicode="&#x960;" horiz-adv-x="764" 
d="M-4 623h771q15 0 15 -15v-30q0 -15 -15 -15h-341q-11 0 -11 -10v-255l152 118q19 14 35 14h75q15 0 15 -15v-168q0 -19 -23 -19h-28q-36 0 -52 -13t-16 -44v-6q0 -31 16 -43t54 -12h45q19 0 19 -17v-26q0 -16 -20 -16h-47q-36 0 -52 -13t-16 -43v-10q0 -31 16 -43t53 -12
h60q19 0 19 -17v-25q0 -17 -20 -17h-65q-130 0 -130 108v19q0 54 45 78q-44 22 -44 83v16q0 101 112 105q11 1 11 11v92l-214 -166v-202q0 -15 -15 -15h-38q-15 0 -15 15v148l-194 -152q-13 -11 -27 -11h-50q-12 0 -12 12q0 9 15 21l183 143l83 61v50q0 83 -91 83h-39
q-90 0 -90 -83v-45q0 -15 -15 -15h-37q-15 0 -15 15v48q0 70 39.5 106.5t110.5 36.5h35q72 0 100 -43h4v163q0 10 -10 10h-341q-15 0 -15 15v30q0 15 15 15z" />
    <glyph glyph-name="uni0961" unicode="&#x961;" horiz-adv-x="665" 
d="M-3 623h672q15 0 15 -15v-30q0 -15 -15 -15h-76q-10 0 -10 -10v-401q0 -20 -23 -20h-29q-36 0 -52 -13t-16 -43v-7q0 -31 16.5 -43t53.5 -12h46q18 0 18 -16v-26q0 -16 -20 -16h-47q-36 0 -52 -13t-16 -44v-9q0 -31 16.5 -43t53.5 -12h60q18 0 18 -17v-26q0 -16 -20 -16
h-64q-131 0 -131 108v19q0 54 46 78q-45 22 -45 83v15q0 51 26 77t82 29q11 1 11 11v97q0 47 -19.5 66.5t-60.5 19.5t-60.5 -19.5t-19.5 -67.5v-77q0 -16 -15 -16h-36q-15 0 -15 16v80q0 46 -19.5 65.5t-60 19.5t-60.5 -21.5t-20 -69.5v-103q0 -48 22.5 -69.5t67.5 -21.5h36
q16 0 16 -14v-32q0 -15 -16 -15h-44q-71 0 -110 37.5t-39 111.5v110q0 74 38 112t106 38q90 0 113 -64h4q22 63 105 63q62 0 83 -36h4v147q0 10 -10 10h-508q-16 0 -16 15v30q0 15 16 15z" />
    <glyph glyph-name="uni0964" unicode="&#x964;" horiz-adv-x="293" 
d="M135 15v593q0 15 15 15h38q15 0 15 -15v-593q0 -15 -15 -15h-38q-15 0 -15 15z" />
    <glyph glyph-name="uni0965" unicode="&#x965;" horiz-adv-x="526" 
d="M368 15v593q0 15 15 15h38q15 0 15 -15v-593q0 -15 -15 -15h-38q-15 0 -15 15zM135 15v593q0 15 15 15h38q15 0 15 -15v-593q0 -15 -15 -15h-38q-15 0 -15 15z" />
    <glyph glyph-name="uni0966" unicode="&#x966;" horiz-adv-x="519" 
d="M133 150q0 -89 85 -89h83q86 0 86 89v343q0 89 -86 89h-83q-85 0 -85 -89v-343zM456 147q0 -69 -39 -108t-107 -39h-100q-68 0 -107.5 39t-39.5 108v349q0 69 39.5 108t107.5 39h100q68 0 107 -39t39 -108v-349z" />
    <glyph glyph-name="uni0967" unicode="&#x967;" horiz-adv-x="297" 
d="M15 508v37q0 14 13 22l117 67q14 9 25 9h40q14 0 14 -14v-615q0 -14 -13 -14h-44q-13 0 -13 14v554l-121 -68q-18 -10 -18 8z" />
    <glyph glyph-name="uni0968" unicode="&#x968;" horiz-adv-x="457" 
d="M49 13v90q0 67 58 111l193 151q50 40 50 95v37q0 86 -87 86h-63q-85 0 -85 -86v-42q0 -14 -13 -14h-43q-14 0 -14 14v43q0 69 39 107t108 38h80q68 0 107 -38t39 -107v-42q0 -79 -62 -126l-196 -155q-35 -26 -35 -65v-48h282q14 0 14 -13v-36q0 -13 -14 -13h-343
q-15 0 -15 13z" />
    <glyph glyph-name="uni0969" unicode="&#x969;" horiz-adv-x="491" 
d="M215 353h57q87 0 87 86v58q0 86 -87 86h-69q-86 0 -86 -86v-33q0 -14 -13 -14h-43q-13 0 -13 14v34q0 69 39 107t107 38h87q68 0 107 -38t39 -107v-60q0 -89 -81 -115q81 -21 81 -114v-64q0 -69 -39 -107t-107 -38h-87q-68 0 -107 38t-39 107v41q0 14 13 14h43
q13 0 13 -14v-40q0 -86 86 -86h69q87 0 87 86v62q0 86 -87 86h-57q-14 0 -14 13v32q0 14 14 14z" />
    <glyph glyph-name="uni096A" unicode="&#x96a;" horiz-adv-x="470" 
d="M317 189v397l-230 -397h230zM371 0h-41q-13 0 -13 14v114h-279q-21 0 -21 19v23q0 16 8 30l246 424q9 19 29 19h63q20 0 20 -20v-434h75q13 0 13 -12v-35q0 -14 -13 -14h-75v-114q0 -14 -12 -14z" />
    <glyph glyph-name="uni096B" unicode="&#x96b;" horiz-adv-x="484" 
d="M366 261q0 92 -88 92h-76q-22 0 -36.5 -7.5t-19.5 -17.5q-11 -24 -25 -24h-45q-13 0 -13 14v311q0 14 13 14h331q14 0 14 -13v-39q0 -13 -14 -13h-274v-217q19 50 85 50h74q68 0 105.5 -37t37.5 -105v-122q0 -69 -39.5 -108t-107.5 -39h-82q-68 0 -107 39t-39 108v32
q0 14 13 14h42q14 0 14 -14v-31q0 -88 85 -88h66q86 0 86 88v113z" />
    <glyph glyph-name="uni096C" unicode="&#x96c;" horiz-adv-x="501" 
d="M133 150q0 -89 85 -89h78q85 0 85 89v93q0 88 -85 88h-75q-88 0 -88 -86v-95zM451 147q0 -69 -39 -108t-107 -39h-95q-68 0 -107.5 39t-39.5 108v349q0 69 39.5 108t107.5 39h196q15 0 15 -13v-36q0 -12 -15 -12h-188q-85 0 -85 -89v-160q20 60 98 60h74q68 0 107 -39
t39 -108v-99z" />
    <glyph glyph-name="uni096D" unicode="&#x96d;" horiz-adv-x="395" 
d="M136 0h-47q-17 0 -8 17l219 561h-267q-14 0 -14 13v39q0 13 14 13h329q14 0 14 -13v-41q0 -10 -8 -30l-210 -546q-5 -13 -22 -13z" />
    <glyph glyph-name="uni096E" unicode="&#x96e;" horiz-adv-x="523" 
d="M459 498v-54q0 -91 -71 -120q71 -31 71 -122v-57q0 -69 -39 -107t-107 -38h-103q-69 0 -108 38t-39 107v58q0 92 71 121q-71 29 -71 120v54q0 69 39 107t108 38h103q68 0 107 -38t39 -107zM390 148v59q0 88 -86 88h-86q-85 0 -85 -88v-59q0 -87 85 -87h86q86 0 86 87z
M390 441v54q0 87 -86 87h-86q-85 0 -85 -87v-54q0 -88 85 -88h86q86 0 86 88z" />
    <glyph glyph-name="uni096F" unicode="&#x96f;" horiz-adv-x="496" 
d="M191 643h95q68 0 107.5 -39t39.5 -108v-349q0 -69 -39.5 -108t-107.5 -39h-197q-14 0 -14 13v36q0 12 14 12h188q86 0 86 89v99h-172q-68 0 -107 39t-39 108v100q0 69 39 108t107 39zM200 311h163v182q0 89 -86 89h-77q-86 0 -86 -89v-94q0 -88 86 -88z" />
    <glyph glyph-name="uni0970" unicode="&#x970;" horiz-adv-x="406" 
d="M109 294q0 -88 85 -88h19q85 0 85 88v35q0 88 -85 88h-19q-85 0 -85 -88v-35zM365 291q0 -67 -38 -104.5t-105 -37.5h-37q-67 0 -105 37.5t-38 104.5v41q0 67 38 104.5t105 37.5h37q67 0 105 -37.5t38 -104.5v-41z" />
    <glyph glyph-name="uni0972" unicode="&#x972;" horiz-adv-x="601" 
d="M599 841h28q17 0 17 -20v-5q0 -126 -119 -126h-81q-119 0 -119 124v7q0 20 17 20h29q16 0 16 -19v-7q0 -37 15 -52t52 -15h62q36 0 50.5 15t14.5 52v7q0 19 18 19zM479 623h125q16 0 16 -15v-30q0 -15 -16 -15h-75q-10 0 -10 -10v-538q0 -15 -15 -15h-38q-16 0 -16 15
v208q0 10 -10 10h-116v-45q0 -71 -40.5 -110.5t-111.5 -39.5h-120q-16 0 -16 15v32q0 14 16 14h116q89 0 89 89v33q0 86 -89 86h-57q-16 0 -16 15v31q0 15 15 15h58q89 0 89 87v20q0 88 -89 88h-83q-16 0 -16 15v30q0 15 16 15h90q72 0 110.5 -38.5t38.5 -110.5v-22
q0 -85 -64 -112v-4q34 -12 50 -43h130q10 0 10 11v289q0 13 8 21.5t21 8.5z" />
    <glyph glyph-name="Wgrave" unicode="&#x1e80;" horiz-adv-x="798" 
d="M414 707h-33q-12 0 -20 10l-87 105q-4 6 -2 10t8 4h61q15 0 21 -13l58 -102q8 -14 -6 -14zM249 0h-77q-14 0 -17 14l-128 615q-3 14 13 14h54q15 0 16 -14l101 -551h6l135 552q3 13 16 13h60q13 0 16 -13l137 -552h6l100 550q3 15 17 15h54q16 0 13 -15l-129 -614
q-3 -14 -16 -14h-77q-14 0 -17 14l-131 537h-4l-132 -537q-3 -14 -16 -14z" />
    <glyph glyph-name="wgrave" unicode="&#x1e81;" horiz-adv-x="686" 
d="M358 574h-33q-12 0 -20 10l-87 105q-4 6 -2 10t9 4h60q15 0 22 -13l57 -102q8 -14 -6 -14zM227 0h-61q-14 0 -17 14l-128 482q-3 14 10 14h51q13 0 16 -14l97 -408h6l103 408q3 14 16 14h46q14 0 18 -14l100 -408h6l98 408q3 14 16 14h51q13 0 10 -14l-128 -482
q-3 -14 -17 -14h-62q-13 0 -16 14l-97 398h-5l-96 -398q-3 -14 -17 -14z" />
    <glyph glyph-name="Wacute" unicode="&#x1e82;" horiz-adv-x="798" 
d="M459 836h60q7 0 9 -4t-3 -10l-87 -105q-8 -10 -19 -10h-33q-13 0 -7 14l58 102q7 13 22 13zM249 0h-77q-14 0 -17 14l-128 615q-3 14 13 14h54q15 0 16 -14l101 -551h6l135 552q3 13 16 13h60q13 0 16 -13l137 -552h6l100 550q3 15 17 15h54q16 0 13 -15l-129 -614
q-3 -14 -16 -14h-77q-14 0 -17 14l-131 537h-4l-132 -537q-3 -14 -16 -14z" />
    <glyph glyph-name="wacute" unicode="&#x1e83;" horiz-adv-x="686" 
d="M401 703h60q15 0 6 -14l-87 -105q-8 -10 -20 -10h-33q-14 0 -6 14l58 102q7 13 22 13zM227 0h-61q-14 0 -17 14l-128 482q-3 14 10 14h51q13 0 16 -14l97 -408h6l103 408q3 14 16 14h46q14 0 18 -14l100 -408h6l98 408q3 14 16 14h51q13 0 10 -14l-128 -482
q-3 -14 -17 -14h-62q-13 0 -16 14l-97 398h-5l-96 -398q-3 -14 -17 -14z" />
    <glyph glyph-name="Wdieresis" unicode="&#x1e84;" horiz-adv-x="798" 
d="M279 721v101q0 14 13 14h43q13 0 13 -13v-102q0 -14 -13 -14h-43q-13 0 -13 14zM450 721v101q0 14 13 14h43q13 0 13 -13v-102q0 -14 -13 -14h-43q-13 0 -13 14zM249 0h-77q-14 0 -17 14l-128 615q-3 14 13 14h54q15 0 16 -14l101 -551h6l135 552q3 13 16 13h60
q13 0 16 -13l137 -552h6l100 550q3 15 17 15h54q16 0 13 -15l-129 -614q-3 -14 -16 -14h-77q-14 0 -17 14l-131 537h-4l-132 -537q-3 -14 -16 -14z" />
    <glyph glyph-name="wdieresis" unicode="&#x1e85;" horiz-adv-x="686" 
d="M223 588v101q0 14 13 14h43q13 0 13 -13v-102q0 -14 -13 -14h-43q-13 0 -13 14zM394 588v101q0 14 13 14h43q13 0 13 -13v-102q0 -14 -13 -14h-43q-13 0 -13 14zM227 0h-61q-14 0 -17 14l-128 482q-3 14 10 14h51q13 0 16 -14l97 -408h6l103 408q3 14 16 14h46
q14 0 18 -14l100 -408h6l98 408q3 14 16 14h51q13 0 10 -14l-128 -482q-3 -14 -17 -14h-62q-13 0 -16 14l-97 398h-5l-96 -398q-3 -14 -17 -14z" />
    <glyph glyph-name="uni1E9E" unicode="&#x1e9e;" horiz-adv-x="550" 
d="M135 0h-46q-13 0 -13 14v481q0 69 39 108.5t108 39.5h237q16 0 16 -14v-42q0 -9 -5 -19l-103 -197v-4h15q56 -2 85.5 -35t29.5 -93v-92q0 -69 -39.5 -108t-108.5 -39h-87q-14 0 -14 13v36q0 13 14 13h80q83 0 83 87v72q0 89 -77 89h-41q-15 0 -15 13v32q0 13 6 25
l101 198h-168q-84 0 -84 -86v-478q0 -14 -13 -14z" />
    <glyph glyph-name="Ygrave" unicode="&#x1ef2;" horiz-adv-x="500" 
d="M272 707h-33q-12 0 -20 10l-87 105q-4 6 -2 10t9 4h60q14 0 21 -13l58 -102q8 -14 -6 -14zM272 0h-45q-14 0 -14 14v227l-190 387q-3 7 0 11t9 4h56q11 0 17 -14l143 -303h5l142 303q4 14 16 14h57q17 0 9 -15l-191 -387v-227q0 -14 -14 -14z" />
    <glyph glyph-name="ygrave" unicode="&#x1ef3;" horiz-adv-x="463" 
d="M265 574h-33q-10 0 -20 10l-87 105q-4 6 -2 10t9 4h60q15 0 21 -13l58 -102q8 -14 -6 -14zM110 -157h-44q-14 0 -14 14v37q0 14 14 14h25q64 0 90 36q21 29 38 83h-29q-12 0 -17 14l-147 455q-4 14 10 14h48q13 0 17 -14l129 -412h4l129 412q3 14 16 14h46q17 0 12 -15
l-149 -475q-25 -85 -63.5 -131t-114.5 -46z" />
    <glyph glyph-name="uni200B" unicode="&#x200b;" horiz-adv-x="0" 
 />
    <glyph glyph-name="uni200C" unicode="&#x200c;" horiz-adv-x="0" 
d="M24 -230h-47v1041h47v-1041z" />
    <glyph glyph-name="uni200D" unicode="&#x200d;" horiz-adv-x="0" 
d="M24 -230h-47v865l-69 -73l-33 33l93 93l-95 95l33 33l95 -95l96 95l32 -32l-96 -96l96 -95l-33 -33l-72 75v-865z" />
    <glyph glyph-name="endash" unicode="&#x2013;" horiz-adv-x="405" 
d="M351 296h-297q-14 0 -14 14v26q0 14 14 14h297q14 0 14 -14v-26q0 -14 -14 -14z" />
    <glyph glyph-name="emdash" unicode="&#x2014;" horiz-adv-x="565" 
d="M40 310v26q0 14 14 14h457q14 0 14 -14v-26q0 -14 -14 -14h-457q-14 0 -14 14z" />
    <glyph glyph-name="quoteleft" unicode="&#x2018;" horiz-adv-x="181" 
d="M55 418v57q0 21 15 66l33 94q5 8 12 8q10 0 10 -12v-213q0 -13 -13 -13h-43q-14 0 -14 13z" />
    <glyph glyph-name="quoteright" unicode="&#x2019;" horiz-adv-x="181" 
d="M125 630v-58q0 -23 -14 -65l-34 -95q-3 -7 -11 -7q-11 0 -11 12v212q0 14 14 14h43q13 0 13 -13z" />
    <glyph glyph-name="quotesinglbase" unicode="&#x201a;" horiz-adv-x="187" 
d="M129 118v-57q0 -21 -15 -66l-33 -94q-5 -8 -12 -8q-10 0 -10 12v213q0 13 13 13h43q14 0 14 -13z" />
    <glyph glyph-name="quotedblleft" unicode="&#x201c;" horiz-adv-x="334" 
d="M209 418v57q0 26 15 66l33 94q3 8 11 8q11 0 11 -12v-213q0 -13 -13 -13h-44q-13 0 -13 13zM55 418v57q0 21 15 66l33 94q5 8 12 8q10 0 10 -12v-213q0 -13 -13 -13h-43q-14 0 -14 13z" />
    <glyph glyph-name="quotedblright" unicode="&#x201d;" horiz-adv-x="334" 
d="M125 630v-58q0 -23 -14 -65l-34 -95q-3 -7 -11 -7q-11 0 -11 12v212q0 14 14 14h43q13 0 13 -13zM279 630v-58q0 -25 -15 -65l-33 -95q-3 -7 -12.5 -7t-9.5 12v212q0 14 13 14h44q13 0 13 -13z" />
    <glyph glyph-name="quotedblbase" unicode="&#x201e;" horiz-adv-x="341" 
d="M129 118v-58q0 -20 -15 -65l-33 -95q-4 -7 -13 -7t-9 12v212q0 14 13 14h43q14 0 14 -13zM282 118v-58q0 -23 -14 -65l-34 -95q-3 -7 -11 -7q-11 0 -11 12v212q0 14 14 14h43q13 0 13 -13z" />
    <glyph glyph-name="dagger" unicode="&#x2020;" horiz-adv-x="421" 
d="M216 0h-13q-14 0 -16 17.5t-8 140t-6 173t9 93.5l-129 -9q-8 -1 -11 3t-3 11v39q0 13 14 12l131 -10l-11 159q-1 14 14 14h45q14 0 14 -14l-11 -159l133 10q14 1 14 -12v-39q0 -7 -3 -11t-11 -3l-132 9q10 -37 10 -90.5t-6 -176t-8 -140t-16 -17.5z" />
    <glyph glyph-name="daggerdbl" unicode="&#x2021;" horiz-adv-x="421" 
d="M39 429v39q0 13 14 12l131 -10l-11 159q-1 14 14 14h45q14 0 14 -14l-11 -159l133 10q14 1 14 -12v-39q0 -7 -3 -11t-11 -3l-132 9q10 -38 10 -102.5t-10 -104.5l132 10q8 1 11 -3t3 -11v-39q0 -15 -14 -12l-133 10l11 -158q0 -14 -14 -14h-45q-15 0 -14 14l11 157
l-131 -9q-14 -3 -14 12v39q0 7 3 11t11 3l129 -9q-8 38 -8 102t8 104l-129 -9q-8 -1 -11 3t-3 11z" />
    <glyph glyph-name="bullet" unicode="&#x2022;" horiz-adv-x="279" 
d="M197 372v-105q0 -36 -36 -36h-43q-36 0 -36 36v105q0 36 36 36h43q36 0 36 -36z" />
    <glyph glyph-name="ellipsis" unicode="&#x2026;" horiz-adv-x="596" 
d="M136 135v-121q0 -14 -13 -14h-51q-13 0 -13 15v120q0 13 13 13h51q13 0 13 -13zM338 135v-121q0 -14 -13 -14h-51q-13 0 -13 15v120q0 13 13 13h51q13 0 13 -13zM537 135v-121q0 -14 -13 -14h-51q-13 0 -13 15v120q0 13 13 13h51q13 0 13 -13z" />
    <glyph glyph-name="perthousand" unicode="&#x2030;" horiz-adv-x="1036" 
d="M162 646h35q112 0 112 -114v-70q0 -114 -112 -114h-35q-112 0 -112 114v70q0 114 112 114zM242 0h-29q-16 0 -9 16q14 37 129.5 306.5t129.5 305.5q6 15 19 15h28q17 0 10 -17l-259 -611q-6 -15 -19 -15zM189 599h-19q-37 0 -51 -15.5t-14 -53.5v-66q0 -39 14 -54.5
t51 -15.5h19q37 0 51 16t14 54v66q0 38 -14 53.5t-51 15.5zM527 299h35q112 0 112 -114v-70q0 -115 -112 -115h-35q-112 0 -112 115v70q0 114 112 114zM555 252h-19q-38 0 -52 -15.5t-14 -54.5v-65q0 -38 14 -54t52 -16h19q37 0 51 16t14 54v65q0 39 -14 54.5t-51 15.5z
M879 252h-19q-38 0 -51.5 -15.5t-13.5 -54.5v-65q0 -39 14 -54.5t51 -15.5h19q37 0 51 16t14 54v65q0 39 -14 54.5t-51 15.5zM852 299h35q111 0 111 -114v-70q0 -115 -111 -115h-35q-112 0 -112 115v70q0 114 112 114z" />
    <glyph glyph-name="guilsinglleft" unicode="&#x2039;" horiz-adv-x="287" 
d="M228 132v-36q0 -9 -4 -11.5t-11 3.5l-140 128q-14 11 -14 27v26q0 14 14 26l140 128q7 6 11 3.5t4 -10.5v-37q0 -11 -11 -20l-110 -103l110 -103q11 -10 11 -21z" />
    <glyph glyph-name="guilsinglright" unicode="&#x203a;" horiz-adv-x="287" 
d="M59 379v37q0 8 4 10.5t11 -3.5l140 -128q14 -12 14 -26v-26q0 -16 -14 -27l-140 -128q-7 -6 -11 -3.5t-4 11.5v36q0 11 11 21l111 103l-111 103q-11 9 -11 20z" />
    <glyph glyph-name="fraction" unicode="&#x2044;" horiz-adv-x="113" 
d="M-165 0h-26q-8 0 -10.5 4t14 26t215 292t224.5 306q12 15 25 15h28q8 0 9.5 -5t-3.5 -12l-450 -611q-11 -15 -26 -15z" />
    <glyph glyph-name="Euro" unicode="&#x20ac;" horiz-adv-x="530" 
d="M316 0h-65q-69 0 -108.5 38.5t-39.5 107.5v85h-55q-15 0 -15 15v23q0 15 15 15h55v71h-55q-15 0 -15 15v23q0 15 15 15h55v89q0 69 39.5 107.5t108.5 38.5h65q69 0 108.5 -38.5t39.5 -107.5v-25q0 -14 -14 -14h-45q-14 0 -14 14v24q0 85 -84 85h-47q-85 0 -85 -85v-88
h139q15 0 15 -15v-23q0 -15 -15 -15h-139v-71h139q15 0 15 -15v-23q0 -15 -15 -15h-139v-84q0 -85 85 -85h47q84 0 84 85v24q0 14 14 14h45q14 0 14 -14v-25q0 -69 -39.5 -107.5t-108.5 -38.5z" />
    <glyph glyph-name="uni20B9" unicode="&#x20b9;" horiz-adv-x="445" 
d="M266 563v-4q32 -16 32 -64v-20h95q16 0 16 -14v-31q0 -15 -16 -15h-95v-16q0 -71 -39.5 -108t-106.5 -37h-31l175 -228q5 -8 5 -12q0 -14 -14 -14h-42q-9 0 -18 11l-162 216l-25 27v43q0 17 19 17h85q85 0 85 84v17h-173q-16 0 -16 15v31q0 14 16 14h173v22q0 66 -66 66
h-107q-16 0 -16 15v31q0 14 16 14h337q16 0 16 -15v-30q0 -15 -16 -15h-127z" />
    <glyph glyph-name="trademark" unicode="&#x2122;" horiz-adv-x="591" 
d="M487 643h35q10 0 10 -9v-226q0 -10 -9 -10h-22q-9 0 -9 10v176h-3l-55 -117q-3 -9 -10 -9h-23q-7 0 -11 9l-55 117h-3v-176q0 -10 -9 -10h-22q-9 0 -9 10v226q0 9 10 9h35q6 0 10 -6l64 -133h3l64 133q2 6 9 6zM134 408v199h-66q-9 0 -9 9v18q0 9 9 9h169q10 0 10 -9v-18
q0 -9 -10 -9h-64v-199q0 -10 -8 -10h-22q-9 0 -9 10z" />
    <glyph glyph-name="uni2126" unicode="&#x2126;" horiz-adv-x="638" 
d="M283 51v-37q0 -14 -14 -14h-215q-14 0 -14 14v37q0 15 14 15h88v4q-48 33 -48 110v317q0 68 39.5 107t109.5 39h152q69 0 109 -39t40 -107v-317q0 -77 -48 -110v-4h88q14 0 14 -15v-37q0 -14 -14 -14h-216q-14 0 -14 14v37q0 15 14 15h20q84 0 84 88v340q0 83 -87 83
h-133q-87 0 -87 -83v-340q0 -88 84 -88h20q14 0 14 -15z" />
    <glyph glyph-name="partialdiff" unicode="&#x2202;" horiz-adv-x="495" 
d="M273 346h-53q-42 0 -64.5 -22.5t-22.5 -64.5v-108q0 -87 83 -87h62q84 0 84 87v103q0 92 -89 92zM140 584q-15 0 -15 13v32q0 19 22 19q134 0 207 -63q81 -69 81 -249v-188q0 -70 -39.5 -109t-107.5 -39h-80q-69 0 -108.5 39t-39.5 109v114q0 70 39.5 109t108.5 39h52
q38 0 66.5 -14.5t39.5 -38.5h4q0 126 -57 176.5t-173 50.5z" />
    <glyph glyph-name="uni2206" unicode="&#x2206;" horiz-adv-x="617" 
d="M280 643h57q13 0 20 -14l228 -614q7 -15 -8 -15h-537q-14 0 -9 15l229 614q6 14 20 14zM306 568l-180 -502h364l-180 502h-4z" />
    <glyph glyph-name="minus" unicode="&#x2212;" horiz-adv-x="535" 
d="M85 352h365q15 0 15 -15v-32q0 -14 -15 -14h-365q-15 0 -15 14v32q0 15 15 15z" />
    <glyph glyph-name="approxequal" unicode="&#x2248;" horiz-adv-x="535" 
d="M264.5 207q-66.5 15 -93.5 15t-57 -12t-33 -12q-11 0 -11 11v31q0 16 21 24q37 15 74.5 15t102.5 -15t94.5 -15t60 12t32.5 12q10 0 10 -11v-31q0 -16 -21 -24q-37 -15 -75 -15t-104.5 15zM264.5 378q-66.5 15 -93.5 15t-57 -12t-33 -12q-11 0 -11 11v31q0 16 21 24
q37 15 74.5 15t102.5 -15t94.5 -15t60 12t32.5 12q10 0 10 -11v-31q0 -16 -21 -24q-37 -15 -75 -15t-104.5 15z" />
    <glyph glyph-name="notequal" unicode="&#x2260;" horiz-adv-x="535" 
d="M205 98h-25q-17 0 -10 15l29 86h-114q-15 0 -15 15v30q0 15 15 15h134l43 124h-177q-15 0 -15 15v31q0 15 15 15h197l30 84q4 15 20 15h24q16 0 11 -15l-29 -84h112q15 0 15 -15v-31q0 -15 -15 -15h-132l-43 -124h175q15 0 15 -15v-30q0 -15 -15 -15h-195l-30 -86
q-4 -15 -20 -15z" />
    <glyph glyph-name="lessequal" unicode="&#x2264;" horiz-adv-x="535" 
d="M465 276v-33q0 -14 -16 -10l-362 102q-17 5 -17 22v34q0 18 17 23l362 102q16 4 16 -10v-33q0 -16 -12 -18l-303 -81l303 -80q12 -4 12 -18zM85 182h365q15 0 15 -15v-29q0 -15 -15 -15h-365q-15 0 -15 15v29q0 15 15 15z" />
    <glyph glyph-name="greaterequal" unicode="&#x2265;" horiz-adv-x="535" 
d="M85 182h365q15 0 15 -15v-29q0 -15 -15 -15h-365q-15 0 -15 15v29q0 15 15 15zM70 243v33q0 14 12 18l303 80l-303 81q-12 2 -12 18v33q0 14 17 10l361 -102q17 -5 17 -23v-34q0 -17 -17 -22l-361 -102q-17 -4 -17 10z" />
    <glyph glyph-name="uni25CC" unicode="&#x25cc;" horiz-adv-x="701" 
d="M285 571q0 19 12.5 31.5t31.5 12.5t31.5 -12.5t12.5 -31.5t-12.5 -31.5t-31.5 -12.5t-31.5 12.5t-12.5 31.5zM424 525q-13 13 -13 32t12.5 31.5t32 12.5t31.5 -12.5t12 -31.5t-12.5 -32t-31 -13t-31.5 13zM506 488q0 19 12.5 32t31.5 13t31.5 -12.5t12.5 -32t-12.5 -32
t-31.5 -12.5t-31.5 12.5t-12.5 31.5zM556 370q0 20 12 32t31.5 12t32 -12.5t12.5 -31.5t-12.5 -31.5t-32 -12.5t-31.5 12t-12 32zM559 204.5q-13 12.5 -13 32t13 32t31.5 12.5t31 -13t12.5 -32t-12.5 -31.5t-31 -12.5t-31.5 12.5zM473 138q0 19 12.5 31.5t31.5 12.5
t32 -12.5t13 -31.5t-13 -31.5t-32 -12.5t-31.5 12.5t-12.5 31.5zM352 85q0 19 12 31.5t32 12.5t32.5 -12.5t12.5 -31.5t-12.5 -31.5t-32.5 -12.5t-32 12.5t-12 31.5zM238 68q-13 13 -13 32t13 32t32 13t31.5 -13t12.5 -32t-12.5 -32t-31.5 -13t-32 13zM136 144
q-12 12 -12 31.5t12.5 32t31.5 12.5t31.5 -12.5t12.5 -31.5t-12.5 -31.5t-32 -12.5t-31.5 12zM72 292q0 19 12.5 32t31.5 13t31.5 -12.5t12.5 -32t-12.5 -31.5t-31.5 -12t-31.5 12t-12.5 31zM85 418q0 19 13 31.5t32 12.5t32 -12.5t13 -31.5t-13 -31.5t-32 -12.5t-32 12.5
t-13 31.5zM179.5 495.5q-12.5 12.5 -12.5 32t12.5 32t31.5 12.5t31.5 -12.5t12.5 -32t-12.5 -32t-31.5 -12.5t-31.5 12.5z" />
    <glyph glyph-name="commaaccent" unicode="&#xf6c3;" horiz-adv-x="0" 
d="M270 -45v-47q0 -25 -15 -58l-33 -80q-5 -8 -12 -8q-10 0 -10 12v180q0 14 13 14h44q13 0 13 -13z" />
    <glyph glyph-name="itfLogo" horiz-adv-x="1734" 
d="M1396 237v196h207v-196h-207zM1396 475v196h207v-196h-207zM1146 0v671h208v-671h-208zM896 475v196h208v-196h-208zM647 0v671h207v-671h-207zM397 475v196h207v-196h-207zM147 0v671h207v-671h-207z" />
    <glyph glyph-name="uni0915094D" horiz-adv-x="520" 
d="M515 414h-32q-86 0 -86 -84v-314q0 -16 -15 -16h-38q-14 0 -14 16v118h-4q-24 -44 -94 -44h-30q-70 0 -110 39.5t-40 109.5v87q0 70 40 109.5t110 39.5h46q15 0 15 -15v-31q0 -15 -15 -15h-38q-91 0 -91 -91v-81q0 -44 24 -67.5t68 -23.5h32q42 0 64.5 21.5t22.5 62.5
v318q0 10 -10 10h-323q-16 0 -16 15v30q0 15 16 15h642q15 0 15 -15v-30q0 -15 -15 -15h-232q-10 0 -10 -10v-122h4q21 44 94 44h30q91 0 123 -66q4 -6 4 -13.5t-10 -14.5q-27 -20 -33 -20t-13 13q-23 40 -81 40z" />
    <glyph glyph-name="uni0916094D" horiz-adv-x="478" 
d="M474 129h-23q-66 0 -100.5 38t-34.5 105v44q0 65 36.5 102.5t105.5 37.5h18q16 0 16 -15v-31q0 -14 -16 -14h-13q-43 0 -61.5 -21.5t-18.5 -66.5v-32q0 -45 19.5 -66.5t62.5 -21.5h5q41 0 62 18q7 6 18.5 17.5t17 11.5t24.5 -16q8 -5 8 -12t-5 -15q-44 -63 -121 -63z
M-3 623h575q16 0 16 -15v-30q0 -15 -16 -15h-298q-10 0 -10 -10v-152q0 -63 -32.5 -96.5t-87.5 -34.5h-31l162 -244q5 -7 5 -12q0 -14 -14 -14h-41q-9 0 -18 11l-152 230l-22 29v43q0 17 18 17h78q67 0 67 74v149q0 10 -9 10h-190q-16 0 -16 15v30q0 15 16 15z" />
    <glyph glyph-name="uni0917094D" horiz-adv-x="270" 
d="M273 563h-64q-10 0 -10 -10v-196q0 -74 -37.5 -111t-105.5 -37h-20q-15 0 -15 15v33q0 15 15 15h11q84 0 84 87v194q0 10 -10 10h-124q-16 0 -16 15v30q0 15 16 15h276q16 0 16 -15v-30q0 -15 -16 -15z" />
    <glyph glyph-name="uni0918094D" horiz-adv-x="315" 
d="M212 140h89q20 0 28 3t13 4.5t11 5.5q19 13 23 18t16 17t18 12t13 -6l14 -12q9 -6 9 -12t-6 -15q-54 -77 -135 -77h-102q-67 0 -103.5 35.5t-36.5 102.5v37q0 79 60 99v4q-60 21 -60 95v37q0 53 32 71v4h-98q-16 0 -16 16v29q0 15 16 15h429q15 0 15 -15v-30
q0 -15 -15 -15h-232q-64 0 -64 -71v-37q0 -69 69 -69h62q15 0 15 -15v-32q0 -15 -15 -15h-62q-69 0 -69 -70v-33q0 -42 20 -61.5t62 -19.5z" />
    <glyph glyph-name="uni0919094D" horiz-adv-x="517" 
d="M219 -52h35q13 0 22 -14l91 -131q3 -4 3 -11q0 -13 -13 -13h-41q-12 0 -19 12l-88 137q-2 6 -2 8q0 12 12 12zM489 356v-43q0 -15 -14 -15h-42q-15 0 -15 15v43q0 14 15 14h42q14 0 14 -14zM-3 623h523q15 0 15 -15v-30q0 -15 -15 -15h-125q-10 0 -10 -10v-117
q0 -16 -10 -25t-25 -9h-150q-36 0 -51.5 -12.5t-15.5 -45.5v-10q0 -33 15 -45.5t52 -12.5h87q126 0 126 -110v-50q0 -57 -33 -86.5t-93 -29.5h-91q-67 0 -101 29.5t-34 98.5v7q0 18 16 18h35q14 0 14 -18v-7q0 -40 16.5 -54t58.5 -14h77q36 0 51.5 14t15.5 47v38
q0 34 -15.5 47t-51.5 13h-83q-66 0 -97.5 26.5t-31.5 84.5v21q0 56 34 84t95 28h112q10 0 10 11v79q0 10 -10 10h-310q-16 0 -16 15v30q0 15 16 15z" />
    <glyph glyph-name="uni091A094D" horiz-adv-x="336" 
d="M320 97h-68q-70 0 -109.5 39t-39.5 109v38q0 68 43 91v4h-108q-16 0 -16 15v32q0 15 16 15h277q16 0 16 -15v-32q0 -15 -16 -15h-60q-84 0 -84 -90v-39q0 -90 90 -90h58q41 0 69 23q9 8 22 22t19.5 14t13.5 -6l14 -11q8 -7 8 -14t-5 -14q-55 -76 -140 -76zM448 563h-451
q-16 0 -16 15v30q0 15 16 15h451q16 0 16 -15v-30q0 -15 -16 -15z" />
    <glyph glyph-name="uni091B094D" horiz-adv-x="573" 
d="M-3 623h579q15 0 15 -15v-29q0 -15 -15 -16h-368q-71 0 -71 -77v-64q0 -70 69 -70h39q15 0 15 -15v-31q0 -14 -15 -14h-34q-74 0 -74 -75v-34q0 -43 19 -61.5t63 -18.5h135q88 0 88 90v151q0 67 -64 67h-36q-16 0 -16 15v30q0 14 16 14h40q126 0 126 -126v-159
q0 -63 -37.5 -103.5t-105.5 -40.5h-152q-68 0 -106 34.5t-38 101.5v41q0 81 61 101v4q-61 17 -61 90v72q0 57 35 74v4h-107q-16 1 -16 16v29q0 15 16 15z" />
    <glyph glyph-name="uni091C094D" horiz-adv-x="313" 
d="M245 362v-4q39 -20 39 -78v-74q0 -70 -35.5 -106.5t-98.5 -36.5h-106q-16 0 -16 14v32q0 15 16 15h90q43 0 63 21t20 66v65q0 86 -84 86h-49q-15 0 -15 15v35q0 14 15 14h309q16 0 16 -15v-33q0 -15 -16 -16h-148zM-3 563q-16 0 -16 15v30q0 15 16 15h396q16 0 16 -15
v-29q0 -15 -16 -16h-396z" />
    <glyph glyph-name="uni091D094D" horiz-adv-x="424" 
d="M504 240h-139q18 -14 18 -50v-40q0 -57 -33.5 -87t-93.5 -30h-47q-58 0 -77 33h-4v-98q0 -15 -15 -15h-37q-15 0 -15 15v212q0 15 15 15h37q15 0 15 -15v-19q0 -68 72 -68h48q36 0 52 14t16 47v28q0 31 -14.5 45t-47.5 14h-59q-129 0 -129 115v11q0 56 34 84.5t95 28.5
h81q10 0 10 10v63q0 10 -10 10h-279q-16 0 -16 15v30q0 15 16 15h507q16 0 16 -15v-30q0 -15 -16 -15h-140q-10 0 -10 -10v-100q0 -16 -10 -25t-25 -9h-120q-36 0 -51 -13t-15 -44v-7q0 -30 15.5 -42.5t50.5 -12.5h305q16 0 16 -14v-31q0 -15 -16 -15z" />
    <glyph glyph-name="uni091E094D" horiz-adv-x="346" 
d="M148 465q143 0 143 -148q1 -9 12 -9h125q16 0 16 -15v-32q0 -15 -16 -15h-125q-11 0 -11 -10q0 -86 -40.5 -120t-103.5 -34h-93q-15 0 -15 15v33q0 14 15 14h90q86 0 86 88v83q0 88 -85 88h-75q-15 0 -15 14v33q0 15 15 15h77zM428 563h-431q-16 0 -16 15v30q0 15 16 15
h431q16 0 16 -15v-30q0 -15 -16 -15z" />
    <glyph glyph-name="uni091F094D" horiz-adv-x="479" 
d="M209 439h97q10 0 10 11v103q0 10 -10 10h-309q-16 0 -16 15v30q0 15 16 15h485q16 0 16 -15v-30q0 -15 -16 -15h-88q-10 0 -10 -10v-141q0 -16 -10 -25t-25 -9h-134q-90 0 -90 -90v-100q0 -90 90 -90h67q90 0 90 88v30q0 17 14 17h35q16 0 16 -17v-30q0 -72 -39.5 -110.5
t-110.5 -38.5h-78q-71 0 -110.5 41t-39.5 110v101q0 70 39.5 110t110.5 40zM227 -32h35q13 0 22 -14l91 -131q3 -5 3 -11q0 -13 -13 -13h-41q-12 0 -19 12l-88 137q-2 6 -2 8q0 12 12 12z" />
    <glyph glyph-name="uni0920094D" horiz-adv-x="509" 
d="M287 378h-73q-88 0 -88 -91v-97q0 -92 90 -92h68q90 0 90 92v97q0 43 -22 67t-65 24zM512 563h-106q-10 0 -10 -10v-59q0 -56 -39 -74v-4q38 -8 61.5 -39t23.5 -77v-116q0 -69 -40.5 -108.5t-110.5 -39.5h-83q-70 0 -110 40.5t-40 111.5v101q0 70 40 110.5t110 40.5h55
q32 0 48 14t16 51v48q0 10 -9 10h-321q-16 0 -16 15v30q0 15 16 15h515q15 0 15 -15v-30q0 -15 -15 -15zM225 -32h35q13 0 22 -14l91 -131q3 -5 3 -11q0 -13 -13 -13h-41q-12 0 -19 12l-88 137q-2 6 -2 8q0 12 12 12z" />
    <glyph glyph-name="uni0921094D" horiz-adv-x="470" 
d="M-3 623h477q15 0 15 -15v-30q0 -15 -15 -15h-79q-10 0 -10 -10v-117q0 -16 -10 -25t-25 -9h-150q-36 0 -51.5 -12.5t-15.5 -45.5v-13q0 -33 15.5 -45.5t51.5 -12.5h85q128 0 128 -110v-47q0 -56 -34 -86t-93 -30h-89q-136 0 -136 128v7q0 18 16 18h35q14 0 14 -18v-7
q0 -40 18 -54t58 -14h75q68 0 68 61v35q0 33 -16 46.5t-52 13.5h-82q-66 0 -97.5 26.5t-31.5 84.5v24q0 56 34 84t95 28h112q10 0 10 11v79q0 10 -10 10h-310q-16 0 -16 15v30q0 15 16 15zM220 -52h35q13 0 22 -14l91 -131q3 -4 3 -11q0 -13 -13 -13h-41q-12 0 -19 12
l-88 137q-2 6 -2 8q0 12 12 12z" />
    <glyph glyph-name="uni0922094D" horiz-adv-x="486" 
d="M305 37h-95q-71 0 -109.5 40t-38.5 110v113q0 71 38.5 110.5t108.5 39.5h110q10 0 10 10v93q0 10 -10 10h-322q-16 0 -16 15v30q0 15 16 15h492q16 0 16 -15v-30q0 -15 -16 -15h-82q-10 0 -10 -10v-131q0 -15 -9 -23.5t-22 -8.5h-152q-86 0 -86 -91v-114q0 -89 88 -89h88
q41 0 59 18.5t18 59.5v16q0 30 -9.5 43.5t-36.5 13.5t-36 -13t-9 -44v-14q0 -16 -15 -16h-24q-20 0 -20 17v16q0 53 23.5 80.5t79.5 27.5t82 -28t26 -84v-18q0 -134 -137 -134zM229 -32h35q13 0 22 -14l91 -131q3 -5 3 -11q0 -13 -13 -13h-41q-12 0 -19 12l-88 137
q-2 6 -2 8q0 12 12 12z" />
    <glyph glyph-name="uni0923094D" horiz-adv-x="447" 
d="M299 563h-149q-10 0 -10 -10v-242q0 -81 76 -81h17q76 0 76 81v242q0 10 -10 10zM450 563h-65q-9 0 -9 -10v-240q0 -72 -37 -108t-104 -36h-22q-66 0 -103.5 36.5t-37.5 107.5v240q0 10 -10 10h-65q-16 0 -16 15v30q0 15 16 15h453q16 0 16 -15v-30q0 -15 -16 -15z" />
    <glyph glyph-name="uni0924094D" horiz-adv-x="265" 
d="M346 364h-134q-85 0 -85 -88v-129q0 -48 23 -67.5t66 -19.5h12q15 0 15 -15v-30q0 -15 -15 -15h-25q-69 0 -106.5 37t-37.5 112v130q0 74 39 111t107 37h141q15 0 15 -15v-33q0 -15 -15 -15zM346 563h-349q-16 0 -16 15v30q0 15 16 15h349q15 0 15 -15v-30q0 -15 -15 -15
z" />
    <glyph glyph-name="uni0925094D" horiz-adv-x="364" 
d="M231 158h102q24 0 46.5 11t29.5 17.5t28 27.5q9 11 16.5 11t14.5 -6l14 -12q9 -6 9 -12t-6 -15q-23 -32 -62 -57t-91 -25h-108q-81 0 -124.5 47.5t-43.5 118.5v94q0 15 16 15h119q83 0 83 79v53q0 61 -63 61t-63 -60v-43q0 -16 -14 -16h-36q-14 0 -14 16v49
q0 53 34.5 83.5t92 30.5t93.5 -30t36 -90v-57q0 -137 -145 -137h-70v-48q0 -106 106 -106z" />
    <glyph glyph-name="uni0926094D" horiz-adv-x="487" 
d="M206 463h124q10 0 10 10v80q0 10 -10 10h-333q-16 0 -16 15v30q0 15 16 15h493q16 0 16 -15v-30q0 -15 -16 -15h-73q-10 0 -10 -10v-120q0 -15 -8.5 -23.5t-22.5 -8.5h-162q-86 0 -86 -91v-81q0 -89 88 -89h64q73 0 73 71v38q0 15 15 15h36q15 0 15 -15v-234
q0 -15 -15 -15h-36q-15 0 -15 15v98h-4q-20 -34 -78 -34h-63q-71 0 -109.5 40.5t-38.5 109.5v84q0 71 38 110.5t108 39.5zM215 4h35q13 0 22 -14l91 -131q3 -5 3 -11q0 -13 -13 -13h-41q-12 0 -19 12l-88 137q-2 6 -2 8q0 12 12 12z" />
    <glyph glyph-name="uni0927094D" horiz-adv-x="315" 
d="M317 623h128q15 0 15 -15v-30q0 -15 -15 -15h-128q-15 0 -15 15v30q0 15 15 15zM212 140h89q23 0 42.5 9t26 15t20 21t20 15t13.5 -6l14 -12q9 -6 9 -12t-6 -15q-54 -77 -135 -77h-102q-67 0 -103.5 35.5t-36.5 102.5v37q0 79 60 99v4q-60 21 -60 95v37q0 53 32 71v4h-98
q-16 0 -16 16v29q0 15 16 15h221q16 0 16 -15v-30q0 -15 -16 -15h-24q-64 0 -64 -71v-37q0 -69 69 -69h62q15 0 15 -15v-32q0 -15 -15 -15h-62q-69 0 -69 -70v-33q0 -42 20 -61.5t62 -19.5z" />
    <glyph glyph-name="uni0928094D" horiz-adv-x="240" 
d="M-3 623h322q16 0 16 -15v-30q0 -15 -16 -15h-322q-16 0 -16 15v30q0 15 16 15zM319 321h-160q-58 0 -58 -51q0 -22 6 -41.5t6 -23.5q0 -13 -13 -13h-29q-20 0 -26 20q-12 32 -12 73.5t28 69.5t77 28h181q16 0 16 -15v-32q0 -15 -16 -15z" />
    <glyph glyph-name="uni092A094D" horiz-adv-x="267" 
d="M262 170h-44q-66 0 -106 39t-40 105v239q0 9 -8 10h-67q-16 0 -16 16v29q0 15 16 15h385q16 0 16 -15v-30q0 -15 -16 -15h-231q-10 0 -10 -10v-232q0 -89 86 -89h34q28 0 41 7t16.5 9t10 8.5t9 8.5t9.5 9.5t11.5 13t11.5 5.5t14 -6l14 -12q9 -6 9 -12t-6 -15
q-55 -78 -139 -78z" />
    <glyph glyph-name="uni092B094D" horiz-adv-x="532" 
d="M227 237h25q44 0 67.5 23t23.5 64v229q0 10 -11 10h-181q-10 0 -10 -10v-228q0 -88 86 -88zM528 410h-31q-42 0 -64.5 -22t-22.5 -63v-309q0 -16 -15 -16h-37q-15 0 -15 15v204h-4q-25 -45 -96 -45h-25q-66 0 -106 39t-40 106v234q0 9 -8 10h-67q-16 0 -16 16v29
q0 15 16 15h658q15 0 15 -15v-30q0 -15 -15 -15h-234q-11 0 -11 -10v-127h4q22 45 94 45h30q91 0 123 -66q4 -6 4 -14t-10 -14q-27 -20 -31.5 -20t-6.5 1q-6 5 -10 13q-21 39 -79 39z" />
    <glyph glyph-name="uni092C094D" horiz-adv-x="270" 
d="M-3 623h391q16 0 16 -15v-30q0 -15 -16 -15h-391q-16 0 -16 15v30q0 15 16 15zM367 270h19q15 0 15 -15v-19q0 -73 -38 -113.5t-104 -40.5h-52q-69 0 -109.5 40t-40.5 110v98q0 70 40 109.5t110 39.5h60q16 0 16 -15v-30q0 -15 -16 -15h-54q-37 0 -60 -17l197 -194
q2 16 2 25v22q0 15 15 15zM212 142h50q44 0 67 23l-202 200q-5 -18 -5 -37v-95q0 -91 90 -91z" />
    <glyph glyph-name="uni092D094D" horiz-adv-x="266" 
d="M360 563h-95q-15 0 -15 15v30q0 15 15 15h95q16 0 16 -15v-30q0 -15 -16 -15zM360 275h-207q-11 0 -11 -11v-86q0 -16 -15 -16h-38q-15 0 -15 16v310q0 75 -68 75h-9q-16 0 -16 15v30q0 15 16 15h9q65 0 100.5 -34.5t35.5 -98.5v-144q0 -11 10 -11h208q16 0 16 -15v-30
q0 -15 -16 -15z" />
    <glyph glyph-name="uni092E094D" horiz-adv-x="266" 
d="M360 275h-210q-10 0 -10 -11v-86q0 -16 -15 -16h-38q-15 0 -15 16v375q0 10 -10 10h-65q-16 0 -16 15v31q0 14 16 14h363q16 0 16 -15v-30q0 -15 -16 -15h-210q-10 0 -10 -10v-207q0 -11 10 -11h210q16 0 16 -15v-30q0 -15 -16 -15z" />
    <glyph glyph-name="uni092F094D" horiz-adv-x="323" 
d="M240 155h63q30 0 44.5 8.5t19 11t12.5 9.5t10.5 9t10.5 11q17 18 24 18t14 -6l14 -12q9 -6 9 -13.5t-6 -13.5q-23 -32 -62.5 -57.5t-90.5 -25.5h-68q-82 0 -128 48.5t-46 122.5v114q0 15 15 15h57q42 0 60 17.5t18 61.5v12q0 41 -18 59.5t-60 18.5h-135q-16 0 -16 15v31
q0 14 16 14h416q16 0 16 -15v-30q0 -15 -16 -15h-173v-4q36 -21 36 -80v-18q0 -124 -133 -127h-16v-69q0 -53 28.5 -81.5t84.5 -28.5z" />
    <glyph glyph-name="uni0930094D" horiz-adv-x="338" 
d="M196 404v149q0 10 -9 10h-190q-16 0 -16 15v30q0 15 16 15h344q16 0 16 -15v-30q0 -15 -16 -15h-66q-10 0 -10 -10v-152q0 -64 -32.5 -97.5t-88.5 -33.5h-31l162 -246q3 -4 3 -10q0 -14 -13 -14h-42q-10 0 -17 11l-151 230l-22 29v43q0 17 18 17h78q67 0 67 74zM143 -46
h35q13 0 22 -14l91 -131q3 -4 3 -11q0 -13 -13 -13h-41q-12 0 -19 12l-88 137q-2 6 -2 8q0 12 12 12z" />
    <glyph glyph-name="uni0932094D" horiz-adv-x="427" 
d="M323 379q22 63 105 63t124 -62q6 -6 6 -14t-7 -14l-13 -12q-7 -6 -13 -6t-18 14t-27.5 22.5t-50.5 8.5t-54.5 -19.5t-19.5 -67.5v-77q0 -16 -15 -16h-36q-15 0 -15 16v80q0 46 -19.5 65.5t-60 19.5t-60.5 -21.5t-20 -69.5v-103q0 -48 22.5 -69.5t67.5 -21.5h36
q16 0 16 -14v-32q0 -15 -16 -15h-44q-71 0 -110 37.5t-39 111.5v110q0 74 38 112t106 38q90 0 113 -64h4zM543 563h-546q-16 0 -16 15v30q0 15 16 15h546q16 0 16 -15v-30q0 -15 -16 -15z" />
    <glyph glyph-name="uni0933094D" horiz-adv-x="674" 
d="M-3 623h680q16 0 16 -15v-30q0 -15 -16 -15h-680q-16 0 -16 15v30q0 15 16 15zM450 443h8q72 0 110.5 -38.5t38.5 -111.5v-104q0 -72 -38.5 -110.5t-110.5 -38.5h-8q-82 0 -117 52q-35 -52 -117 -52h-8q-72 0 -110.5 38.5t-38.5 110.5v104q0 73 38.5 111.5t110.5 38.5h8
q82 0 117 -53q35 53 117 53zM300 189v104q0 89 -84 89h-7q-84 0 -84 -89v-104q0 -89 84 -89h7q84 0 84 89zM541 189v104q0 89 -84 89h-7q-84 0 -84 -89v-104q0 -89 84 -89h7q84 0 84 89z" />
    <glyph glyph-name="uni0935094D" horiz-adv-x="263" 
d="M352 233v22q0 15 15 15h19q15 0 15 -15v-19q0 -73 -38 -113.5t-104 -40.5h-52q-69 0 -109.5 40t-40.5 110v98q0 70 40 109.5t110 39.5h60q16 0 16 -15v-30q0 -15 -16 -15h-54q-91 0 -91 -91v-95q0 -91 90 -91h50q90 0 90 91zM388 563h-391q-16 0 -16 15v30q0 15 16 15
h391q16 0 16 -15v-30q0 -15 -16 -15z" />
    <glyph glyph-name="uni0936094D" horiz-adv-x="386" 
d="M299 13q0 -13 -14 -13h-43q-12 0 -17 11l-153 219l-23 29v43q0 17 18 17h129q86 0 86 85v89q0 39 -16 55.5t-54.5 16.5t-54.5 -16.5t-16 -54.5v-52q0 -15 -14 -15h-38q-15 0 -15 15v50q0 132 137.5 132t137.5 -132v-87q0 -146 -150 -146h-71l167 -235q4 -4 4 -11z" />
    <glyph glyph-name="uni0937094D" horiz-adv-x="286" 
d="M426 273q0 -7 -5 -14q-67 -96 -156 -96h-47q-66 0 -106 39t-40 105v246q0 9 -8 10h-67q-16 0 -16 16v29q0 15 16 15h407q16 0 16 -15v-30q0 -15 -16 -15h-265l239 -266q6 7 12 7q5 0 20.5 -12t15.5 -19zM227 224h39q45 0 83 40l-208 233v-185q0 -88 86 -88z" />
    <glyph glyph-name="uni0938094D" horiz-adv-x="345" 
d="M219 328h216q16 0 16 -15v-31q0 -15 -16 -15h-322l145 -240q5 -7 5 -14q0 -13 -14 -13h-42q-11 0 -17 11l-128 216l-29 41v43q0 17 18 17h64q30 0 48 18t18 56v151q0 10 -10 10h-174q-16 0 -16 16v29q0 15 16 15h438q16 0 16 -15v-30q0 -15 -16 -15h-175q-10 0 -10 -10
v-137q0 -62 -31 -84v-4z" />
    <glyph glyph-name="uni0939094D" horiz-adv-x="456" 
d="M70 348q0 121 131 121h117q11 0 11 10v74q0 10 -9 10h-323q-16 0 -16 15v30q0 15 16 15h478q15 0 15 -15v-30q0 -15 -15 -15h-68q-10 0 -10 -10v-109q0 -17 -10 -26t-25 -9h-151q-38 0 -55 -15.5t-17 -52t16.5 -52.5t54.5 -16h332q15 0 15 -15v-27q0 -14 -15 -14h-329
q-80 0 -80 -87v-21q0 -84 94 -84h158q16 0 16 -14v-29q0 -15 -16 -15h-164q-75 0 -116 37.5t-41 103.5v23q0 84 64 112v4q-58 22 -58 101z" />
    <glyph glyph-name="uni0915093C094D" horiz-adv-x="520" 
d="M515 414h-32q-86 0 -86 -84v-314q0 -16 -15 -16h-38q-14 0 -14 16v118h-4q-24 -44 -94 -44h-30q-70 0 -110 39.5t-40 109.5v87q0 70 40 109.5t110 39.5h46q15 0 15 -15v-31q0 -15 -15 -15h-38q-91 0 -91 -91v-81q0 -44 24 -67.5t68 -23.5h32q42 0 64.5 21.5t22.5 62.5
v318q0 10 -10 10h-323q-16 0 -16 15v30q0 15 16 15h642q15 0 15 -15v-30q0 -15 -15 -15h-232q-10 0 -10 -10v-122h4q21 44 94 44h30q91 0 123 -66q4 -6 4 -13.5t-10 -14.5q-27 -20 -33 -20t-13 13q-23 40 -81 40zM179 -1v-43q0 -15 -14 -15h-42q-14 0 -14 15v43q0 15 14 15
h42q14 0 14 -15z" />
    <glyph glyph-name="uni0916093C094D" horiz-adv-x="475" 
d="M-3 623h575q16 0 16 -15v-30q0 -15 -16 -15h-298q-10 0 -10 -10v-152q0 -63 -32.5 -96.5t-87.5 -34.5h-31l162 -244q5 -7 5 -12q0 -14 -14 -14h-41q-9 0 -18 11l-152 230l-22 29v43q0 17 18 17h78q67 0 67 74v149q0 10 -9 10h-190q-16 0 -16 15v30q0 15 16 15zM474 129
h-23q-66 0 -100.5 38t-34.5 105v44q0 65 36.5 102.5t105.5 37.5h18q16 0 16 -15v-31q0 -14 -16 -14h-13q-43 0 -61.5 -21.5t-18.5 -66.5v-32q0 -45 19.5 -66.5t62.5 -21.5h5q41 0 62 18q7 6 18.5 17.5t17 11.5t24.5 -16q8 -5 8 -12t-5 -15q-44 -63 -121 -63zM120 -4v-43
q0 -15 -14 -15h-42q-14 0 -14 15v43q0 15 14 15h42q14 0 14 -15z" />
    <glyph glyph-name="uni0917093C094D" horiz-adv-x="270" 
d="M273 563h-64q-10 0 -10 -10v-196q0 -74 -37.5 -111t-105.5 -37h-20q-15 0 -15 15v33q0 15 15 15h11q84 0 84 87v194q0 10 -10 10h-124q-16 0 -16 15v30q0 15 16 15h276q16 0 16 -15v-30q0 -15 -16 -15zM165 26v-43q0 -15 -14 -15h-42q-14 0 -14 15v43q0 15 14 15h42
q14 0 14 -15z" />
    <glyph glyph-name="uni091C093C094D" horiz-adv-x="316" 
d="M142 -30v-43q0 -15 -14 -15h-42q-14 0 -14 15v43q0 15 14 15h42q14 0 14 -15zM-3 563q-16 0 -16 15v30q0 15 16 15h396q16 0 16 -15v-29q0 -15 -16 -16h-396zM245 362v-4q39 -20 39 -78v-74q0 -70 -35.5 -106.5t-98.5 -36.5h-106q-16 0 -16 14v32q0 15 16 15h90
q43 0 63 21t20 66v65q0 86 -84 86h-49q-15 0 -15 15v35q0 14 15 14h309q16 0 16 -15v-33q0 -15 -16 -16h-148z" />
    <glyph glyph-name="uni0928093C094D" horiz-adv-x="246" 
d="M325 321h-160q-58 0 -58 -51q0 -22 6 -41.5t6 -23.5q0 -13 -13 -13h-29q-20 0 -26 20q-12 32 -12 73.5t28 69.5t77 28h181q16 0 16 -15v-32q0 -15 -16 -15zM3 623h322q16 0 16 -15v-30q0 -15 -16 -15h-322q-16 0 -16 15v30q0 15 16 15zM188 24v-43q0 -15 -14 -15h-42
q-14 0 -14 15v43q0 15 14 15h42q14 0 14 -15z" />
    <glyph glyph-name="uni092B093C094D" horiz-adv-x="532" 
d="M528 410h-31q-42 0 -64.5 -22t-22.5 -63v-309q0 -16 -15 -16h-37q-15 0 -15 15v204h-4q-25 -45 -96 -45h-25q-66 0 -106 39t-40 106v234q0 9 -8 10h-67q-16 0 -16 16v29q0 15 16 15h658q15 0 15 -15v-30q0 -15 -15 -15h-234q-11 0 -11 -10v-127h4q22 45 94 45h30
q91 0 123 -66q4 -6 4 -14t-10 -14q-27 -20 -31.5 -20t-6.5 1q-6 5 -10 13q-21 39 -79 39zM227 237h25q44 0 67.5 23t23.5 64v229q0 10 -11 10h-181q-10 0 -10 -10v-228q0 -88 86 -88zM198 9v-43q0 -15 -14 -15h-42q-14 0 -14 15v43q0 15 14 15h42q14 0 14 -15z" />
    <glyph glyph-name="uni092F093C094D" horiz-adv-x="325" 
d="M240 155h63q30 0 44.5 8.5t19 11t12.5 9.5t10.5 9t10.5 11q17 18 24 18t14 -6l14 -12q9 -6 9 -13.5t-6 -13.5q-23 -32 -62.5 -57.5t-90.5 -25.5h-68q-82 0 -128 48.5t-46 122.5v114q0 15 15 15h57q42 0 60 17.5t18 61.5v12q0 41 -18 59.5t-60 18.5h-135q-16 0 -16 15v31
q0 14 16 14h416q16 0 16 -15v-30q0 -15 -16 -15h-173v-4q36 -21 36 -80v-18q0 -124 -133 -127h-16v-69q0 -53 28.5 -81.5t84.5 -28.5zM190 -1v-43q0 -15 -14 -15h-42q-14 0 -14 15v43q0 15 14 15h42q14 0 14 -15z" />
    <glyph glyph-name="itfStar" horiz-adv-x="672" 
d="M663 452l-218 -140q7 -16 48 -125.5t46 -121.5l-204 168q-20 -14 -205 -168l96 247q-14 8 -111 70t-110 70l261 -8q26 102 69 246l66 -246q136 8 262 8z" />
    <glyph glyph-name="uni09080902" horiz-adv-x="475" 
d="M305 733v-64q0 -27 10.5 -36.5t43.5 -9.5h119q16 0 16 -15v-30q0 -15 -16 -15h-79q-10 0 -10 -10v-111q0 -34 -35 -34h-156q-36 0 -51 -13t-15 -45v-10q0 -31 15.5 -43.5t50.5 -12.5h93q127 0 127 -110v-47q0 -57 -33 -87t-94 -30h-81q-59 0 -78 33h-4v-77q0 -15 -15 -15
h-36q-15 0 -15 15v189q0 15 15 15h36q15 0 15 -15v-16q0 -69 73 -69h83q36 0 51 13.5t15 45.5v41q0 30 -15.5 42.5t-50.5 12.5h-90q-129 0 -129 115v16q0 56 34 84.5t95 28.5h117q10 0 10 10v74q0 10 -10 10h-314q-16 0 -16 15v30q0 15 16 15h260v4q-20 11 -20 49v59
q0 70 39.5 107.5t104.5 37.5h59q15 0 15 -15v-32q0 -15 -15 -15h-56q-79 0 -79 -85zM434 740v-38q0 -15 -14 -15h-34q-14 0 -14 15v38q0 14 14 14h34q14 0 14 -14z" />
    <glyph glyph-name="uni09300941" horiz-adv-x="533" 
d="M-3 623h539q15 0 15 -15v-30q0 -15 -15 -15h-261q-10 0 -10 -10v-91h75q69 0 103 -32.5t34 -88.5v-42q0 -69 -31.5 -105.5t-99.5 -74.5q-9 -6 -16.5 -6t-11.5 7l-17 27q-4 7 -4 13t10 13q38 21 50 29t29.5 24t22 33.5t4.5 45.5v31q0 35 -17 51.5t-57 16.5h-74v-3
q0 -63 -32 -97t-87 -34h-33l162 -246q3 -4 3 -10q0 -14 -13 -14h-42q-10 0 -17 11l-151 230l-22 29v43q0 17 18 17h78q67 0 67 74v149q0 10 -9 10h-190q-16 0 -16 15v30q0 15 16 15z" />
    <glyph glyph-name="uni09300942" horiz-adv-x="657" 
d="M464 405q-39 0 -55 -17t-16 -61v-40q0 -17 -15 -17h-36q-16 0 -16 17v40q0 75 34 106t103 31t104 -32.5t35 -89.5v-41q0 -19 -4.5 -46t-12.5 -39.5t-11.5 -20t-17 -19t-18.5 -16.5t-25 -17.5t-27 -16.5q-73 -45 -81.5 -45t-13.5 8q-21 35 -21 41t10 11q108 59 133 83
t25 81v33q0 34 -17.5 50.5t-56.5 16.5zM196 404v149q0 10 -9 10h-190q-16 0 -16 15v30q0 15 16 15h663q16 0 16 -15v-30q0 -15 -16 -15h-385q-10 0 -10 -10v-152q0 -63 -32 -97t-87 -34h-33l162 -246q3 -4 3 -10q0 -14 -13 -14h-42q-10 0 -17 11l-151 230l-22 29v43
q0 17 18 17h78q67 0 67 74z" />
    <glyph glyph-name="uni09390941" horiz-adv-x="489" 
d="M320 563h-323q-16 0 -16 15v30q0 15 16 15h495q15 0 15 -15v-30q0 -15 -15 -15h-85q-10 0 -10 -10v-109q0 -17 -10 -26t-25 -9h-151q-38 0 -55 -15.5t-17 -52t16.5 -52t54.5 -15.5h81q59 0 90.5 -30t31.5 -86v-30q0 -15 -15 -15h-36q-15 0 -15 15v21q0 36 -15.5 52.5
t-51.5 16.5h-67q-80 0 -80 -91v-23q0 -45 24 -67t77 -22h72q71 0 103 -31t32 -96q0 -145 -150 -145h-17q-82 0 -137 38t-84 88q-6 8 -6 14.5t5 10.5l19 19q5 7 12 7t18 -11q19 -25 29.5 -37.5t33.5 -31.5q43 -38 106 -38h20q45 0 65.5 20t20.5 60t-14.5 57.5t-56.5 17.5h-77
q-81 0 -122.5 37.5t-41.5 108.5v26q0 87 64 115v4q-58 22 -58 101q0 120 131 120h117q11 0 11 10v74q0 10 -9 10z" />
    <glyph glyph-name="uni09390942" horiz-adv-x="484" 
d="M-3 623h482q16 0 16 -15v-30q0 -15 -16 -15h-72q-10 0 -10 -10v-109q0 -17 -10 -26t-25 -9h-151q-38 0 -55 -15.5t-17 -52t16.5 -52t54.5 -15.5h81q59 0 90.5 -30t31.5 -86v-30q0 -15 -15 -15h-36q-15 0 -15 15v21q0 36 -15.5 52.5t-51.5 16.5h-67q-80 0 -80 -91v-10
q0 -90 97 -91h20q48 0 69 -11.5t33 -18.5t24 -23t19 -25t17.5 -30.5t15 -31.5t15 -35.5l14 -34t3.5 -14.5t-10 -10q-28 -12 -35.5 -12t-14.5 15t-20 46t-19.5 45t-18.5 33.5t-24 27.5q-30 21 -70 21h-35q-37 0 -50.5 -18.5t-13.5 -57t11 -55.5t47 -17h38q16 0 16 -15v-26
q0 -16 -16 -16h-38q-64 0 -93 31.5t-29 101t37 102.5q-58 33 -58 118v13q0 87 64 115v4q-58 22 -58 101q0 120 131 120h117q11 0 11 10v74q0 10 -9 10h-323q-16 0 -16 15v30q0 15 16 15z" />
    <glyph glyph-name="uni09260943" horiz-adv-x="382" 
d="M325 48h-124q-66 0 -101 30.5t-35 87.5v22q0 66 52 88v4q-52 21 -52 85v9q0 113 130 113h39q11 0 11 11v55q0 10 -11 10h-237q-16 0 -16 16v29q0 15 16 15h388q16 0 16 -15v-30q0 -15 -16 -15h-62q-11 0 -11 -10v-88q0 -34 -35 -34h-70q-41 0 -57.5 -13t-16.5 -45v-4
q0 -31 16 -45t52 -14h63q16 0 16 -15v-31q0 -15 -16 -15h-63q-36 0 -52 -14t-16 -46v-19q0 -61 68 -61h124q15 0 15 -14v-32q0 -15 -15 -15z" />
    <glyph glyph-name="uni09390943" horiz-adv-x="536" 
d="M-3 623h542q15 0 15 -15v-30q0 -15 -15 -15h-125q-10 0 -10 -10v-109q0 -17 -10 -26t-25 -9h-164q-38 0 -55.5 -13.5t-17.5 -48.5t16.5 -49t55.5 -14h182q57 0 82.5 -25.5t25.5 -79.5v-14q0 -15 -15 -15h-33q-15 0 -15 15v4q0 33 -12 46t-44 13h-27q-36 0 -45.5 -18.5
t-9.5 -66.5t11.5 -67t49.5 -19h103q16 0 16 -15v-27q0 -16 -16 -16h-104q-69 0 -97 33t-28 98.5t16 97.5h-37q-80 0 -80 -91v-128q0 -46 24 -67.5t77 -21.5h160q15 0 15 -15v-29q0 -14 -15 -14h-166q-81 0 -122.5 37.5t-41.5 108.5v130q0 88 63 115v4q-57 22 -57 94
q0 118 131 118h130q11 0 11 10v74q0 10 -9 10h-330q-16 0 -16 15v30q0 15 16 15z" />
    <glyph glyph-name="uni094D0928.post" 
d="M-3 623h239q16 0 16 -15v-30q0 -15 -16 -15h-75q-10 0 -10 -10v-538q0 -15 -15 -15h-39q-15 0 -15 15v186l-141 -109q-30 -23 -30 -49t22 -50q8 -11 8 -17.5t-8 -12.5l-18 -14q-5 -4 -15 -4t-20 13q-39 40 -39 89t58 94l183 143v269q0 10 -9 10h-76q-16 0 -16 15v30
q0 15 16 15z" />
    <glyph glyph-name="uni094D092F.post" horiz-adv-x="538" 
d="M143 403h-182q-15 0 -15 15v30q0 15 15 15h180q65 0 100.5 -30t35.5 -89q0 -122 -137 -122h-15q0 -54 26 -78.5t80 -24.5h41q55 0 85 33t30 82v319q0 10 -10 10h-415q-16 0 -16 15v30q0 15 16 15h580q15 0 15 -15v-30q0 -15 -15 -15h-76q-11 0 -11 -10v-538
q0 -15 -15 -15h-38q-15 0 -15 15v99h-4q-29 -54 -112 -54h-47q-82 0 -123 41.5t-41 114.5v48q0 16 15 16h67q70 0 70 64q0 59 -69 59z" />
    <glyph glyph-name="uni094D0930.post" 
d="M-3 623h239q16 0 16 -15v-30q0 -15 -16 -15h-75q-10 0 -10 -10v-538q0 -15 -15 -15h-39q-15 0 -15 15v194l-177 -203q-11 -12 -25 -12h-44q-12 0 -12 11q0 5 4 10l254 283v255q0 10 -9 10h-76q-16 0 -16 15v30q0 15 16 15z" />
    <glyph glyph-name="uni094D0930" horiz-adv-x="0" 
d="M-279 16h43q10 0 20 -13l121 -160q5 -7 5 -12q0 -11 -14 -11h-46q-11 0 -19 11l-86 119h-5l-86 -119q-8 -11 -19 -11h-46q-14 0 -14 11q0 5 5 12l121 160q10 13 20 13z" />
    <glyph glyph-name="uni0930094D.1" horiz-adv-x="192" 
d="M165 325h-94q-83 0 -138 76q-6 6 -6 13.5t9 14.5q22 17 27.5 17t10.5 -5.5t12 -12.5q22 -22 27 -24.5t12 -6.5t13 -5q20 -5 33 -5h94q28 0 40.5 7t16.5 9t10.5 8t8.5 8q16 16 21 21.5t11 5.5q5 0 20.5 -12t15.5 -19.5t-6 -13.5q-55 -76 -138 -76zM195 563h-198
q-16 0 -16 15v30q0 15 16 15h198q16 0 16 -15v-30q0 -15 -16 -15z" />
    <glyph glyph-name="uni0930094D.2" horiz-adv-x="0" 
d="M-73 623v-34h-78v146q0 65 35.5 99.5t100.5 34.5h29q16 0 16 -15v-30q0 -15 -16 -15h-20q-76 0 -76 -76v-99q0 -11 9 -11z" />
    <glyph glyph-name="uni0930094D0902" horiz-adv-x="0" 
d="M29 740v-38q0 -15 -14 -15h-33q-14 0 -14 15v38q0 14 14 14h33q14 0 14 -14zM-73 623v-34h-78v157q0 64 35.5 98.5t100.5 34.5h29q16 0 16 -15v-30q0 -15 -16 -15h-20q-76 0 -76 -75v-110q0 -11 9 -11z" />
    <glyph glyph-name="uni093E0930094D" 
d="M218 869h29q16 0 16 -15v-30q0 -15 -16 -15h-20q-76 0 -76 -76v-99q0 -11 9 -11h76q16 0 16 -15v-30q0 -15 -16 -15h-75q-10 0 -10 -10v-538q0 -15 -15 -15h-39q-15 0 -15 15v538q0 10 -10 10h-75q-15 0 -15 15v30q0 15 15 15h76q9 0 9 11v101q0 65 35.5 99.5t100.5 34.5
z" />
    <glyph glyph-name="uni093E0930094D0902" 
d="M229 755h33q14 0 14 -15v-37q0 -16 -14 -16h-33q-14 0 -14 16v37q0 15 14 15zM160 623h76q16 0 16 -15v-30q0 -15 -16 -15h-75q-10 0 -10 -10v-538q0 -15 -15 -15h-39q-15 0 -15 15v538q0 10 -10 10h-75q-15 0 -15 15v30q0 15 15 15h76q9 0 9 11v113q0 64 35.5 98.5
t100.5 34.5h29q16 0 16 -15v-29q0 -15 -16 -15h-20q-76 0 -76 -76v-111q0 -11 9 -11z" />
    <glyph glyph-name="uni0930094D.aMatraI" horiz-adv-x="0" 
d="M0 623h-68v75q0 65 35.5 99.5t100.5 34.5h28q16 0 16 -15v-30q0 -15 -16 -15h-20q-76 0 -76 -75v-74z" />
    <glyph glyph-name="uni0902.aMatraI" horiz-adv-x="0" 
d="M113 790v-48q0 -15 -14 -15h-47q-14 0 -14 15v48q0 14 14 14h47q14 0 14 -14z" />
    <glyph glyph-name="uni0930094D0902.aMatraI" horiz-adv-x="0" 
d="M115 702v-37q0 -16 -15 -16h-33q-14 0 -14 16v37q0 15 14 15h33q15 0 15 -15zM0 623h-68v75q0 65 35.5 99.5t100.5 34.5h28q16 0 16 -15v-30q0 -15 -16 -15h-20q-76 0 -76 -75v-74z" />
    <glyph glyph-name="uni09400930094D" 
d="M151 739v-105q0 -11 10 -11h75q16 0 16 -15v-30q0 -15 -16 -15h-75q-10 0 -10 -10v-538q0 -15 -15 -15h-39q-15 0 -15 15v538q0 10 -10 10h-75q-15 0 -15 15v30q0 15 15 15h76q9 0 9 11v106q0 43 -19.5 61t-64 18t-65 -19t-20.5 -66v-30q0 -16 -14 -16h-39q-15 0 -15 16
v32q0 145 152 145q97 0 125 -57q30 56 101 56h32q16 0 16 -15v-30q0 -15 -16 -15h-29q-75 0 -75 -81z" />
    <glyph glyph-name="uni09400902" 
d="M217 804h46q15 0 15 -14v-48q0 -15 -15 -15h-46q-15 0 -15 15v48q0 14 15 14zM161 623h75q16 0 16 -15v-30q0 -15 -16 -15h-75q-10 0 -10 -10v-538q0 -15 -15 -15h-39q-15 0 -15 15v538q0 10 -10 10h-75q-15 0 -15 15v30q0 15 15 15h75q10 0 10 11v100q0 47 -19.5 66
t-64.5 19t-65 -19.5t-20 -65.5v-30q0 -16 -14 -16h-39q-15 0 -15 16v31q0 146 153 146t153 -136v-111q0 -11 10 -11z" />
    <glyph glyph-name="uni09400930094D0902" 
d="M277 740v-37q0 -16 -14 -16h-33q-14 0 -14 16v37q0 15 14 15h33q14 0 14 -15zM151 739v-105q0 -11 10 -11h75q16 0 16 -15v-30q0 -15 -16 -15h-75q-10 0 -10 -10v-538q0 -15 -15 -15h-39q-15 0 -15 15v538q0 10 -10 10h-75q-15 0 -15 15v30q0 15 15 15h76q9 0 9 11v106
q0 43 -19.5 61t-64 18t-65 -19t-20.5 -66v-30q0 -16 -14 -16h-39q-15 0 -15 16v32q0 145 152 145q97 0 125 -57q30 56 101 56h32q16 0 16 -15v-30q0 -15 -16 -15h-29q-75 0 -75 -81z" />
    <glyph glyph-name="uni0940.aLong" 
d="M161 623h75q16 0 16 -15v-30q0 -15 -16 -15h-75q-10 0 -10 -10v-538q0 -15 -15 -15h-39q-15 0 -15 15v538q0 10 -10 10h-75q-15 0 -15 15v30q0 15 15 15h75q10 0 10 11v100q0 47 -19.5 66t-64.5 19h-244q-45 0 -64.5 -19t-19.5 -66v-30q0 -16 -14 -16h-39q-16 0 -16 16
v31q0 146 153 146h243q154 0 154 -136v-111q0 -11 10 -11z" />
    <glyph glyph-name="uni09400930094D.aLong" 
d="M151 634q0 -11 10 -11h75q16 0 16 -15v-30q0 -15 -16 -15h-75q-10 0 -10 -10v-538q0 -15 -15 -15h-39q-15 0 -15 15v538q0 10 -10 10h-75q-15 0 -15 15v30q0 15 15 15h76q9 0 9 11v105q0 43 -20 61.5t-64 18.5h-244q-45 0 -64.5 -19t-19.5 -66v-30q0 -16 -14 -16h-39
q-16 0 -16 16v31q0 146 153 146h243q79 0 118 -46q27 45 103 45h29q16 0 16 -15v-30q0 -15 -16 -15h-20q-76 0 -76 -76v-110z" />
    <glyph glyph-name="uni09400902.aLong" 
d="M227 796h47q14 0 14 -15v-47q0 -16 -14 -16h-47q-14 0 -14 16v47q0 15 14 15zM161 623h75q16 0 16 -15v-30q0 -15 -16 -15h-75q-10 0 -10 -10v-538q0 -15 -15 -15h-39q-15 0 -15 15v538q0 10 -10 10h-75q-15 0 -15 15v30q0 15 15 15h75q10 0 10 11v100q0 47 -19.5 66
t-64.5 19h-244q-45 0 -64.5 -19t-19.5 -66v-30q0 -16 -14 -16h-39q-16 0 -16 16v31q0 146 153 146h243q154 0 154 -136v-111q0 -11 10 -11z" />
    <glyph glyph-name="uni09400930094D0902.aLong" 
d="M151 744v-110q0 -11 10 -11h75q16 0 16 -15v-30q0 -15 -16 -15h-75q-10 0 -10 -10v-538q0 -15 -15 -15h-39q-15 0 -15 15v538q0 10 -10 10h-75q-15 0 -15 15v30q0 15 15 15h76q9 0 9 11v105q0 43 -20 61.5t-64 18.5h-244q-45 0 -64.5 -19t-19.5 -66v-30q0 -16 -14 -16
h-39q-16 0 -16 16v31q0 146 153 146h243q79 0 118 -46q27 45 103 45h29q16 0 16 -15v-30q0 -15 -16 -15h-20q-76 0 -76 -76zM278 740v-37q0 -16 -14 -16h-34q-14 0 -14 16v37q0 15 14 15h34q14 0 14 -15z" />
    <glyph glyph-name="uni09470930094D" horiz-adv-x="0" 
d="M-138 709v55q0 57 32.5 86.5t89.5 29.5h30q16 0 16 -15v-30q0 -15 -16 -15h-23q-73 0 -73 -77v-111q0 -9 8 -9v-30h-43q-81 86 -141 175l-59 87q-4 8 -4 11q0 12 13 12h45q14 0 22 -13l99 -156h4z" />
    <glyph glyph-name="uni09470902" horiz-adv-x="0" 
d="M-76 623h5v-30h-52q-73 76 -140 175l-59 87q-3 6 -3 11q0 12 12 12h45q14 0 22 -13l146 -226q9 -16 24 -16zM2 790v-48q0 -15 -14 -15h-47q-14 0 -14 15v48q0 14 14 14h47q14 0 14 -14z" />
    <glyph glyph-name="uni09470901" horiz-adv-x="0" 
d="M-76 623h5v-30h-48q-69 65 -142 175l-59 87q-4 8 -4 11q0 12 13 12h43q14 0 22 -13l146 -226q9 -16 24 -16zM98 690h-95q-119 0 -119 124v7q0 20 17 20h30q16 0 16 -19v-7q0 -37 14.5 -52t51.5 -15h75q37 0 51.5 15t14.5 52v7q0 19 17 19h28q17 0 17 -20v-6
q0 -125 -118 -125zM82 886v-38q0 -15 -14 -15h-34q-14 0 -14 15v38q0 14 14 14h34q14 0 14 -14z" />
    <glyph glyph-name="uni09470930094D0902" horiz-adv-x="0" 
d="M30 735v-37q0 -16 -15 -16h-33q-14 0 -14 16v37q0 15 14 15h33q15 0 15 -15zM-138 709v55q0 57 32.5 86.5t89.5 29.5h30q16 0 16 -15v-30q0 -15 -16 -15h-23q-73 0 -73 -77v-111q0 -9 8 -9v-30h-44q-81 87 -140 175l-59 87q-4 8 -4 11q0 12 13 12h45q14 0 22 -13l99 -156
h4z" />
    <glyph glyph-name="uni09480930094D" horiz-adv-x="0" 
d="M-74 623v-21h-70q-62 61 -136 166l-59 87q-4 8 -4 11q0 12 13 12h31q20 0 27 -13l142 -227l3 1q-43 87 -53 145q-6 37 -6 79q0 15 15 15h38q15 0 15 -15v-151h4q3 84 34.5 126t83.5 42h20q16 0 16 -15v-30q0 -15 -16 -15h-18q-88 0 -88 -141v-47q0 -9 8 -9z" />
    <glyph glyph-name="uni09480902" horiz-adv-x="0" 
d="M54 772v-47q0 -15 -15 -15h-46q-15 0 -15 15v47q0 15 15 15h46q15 0 15 -15zM-74 623v-21h-57q-75 69 -142 166l-60 87q-4 8 -4 11q0 12 13 12h38q18 0 27 -13l136 -222l3 2q-28 63 -28 189v29q0 15 15 15h36q15 0 15 -15v-231q0 -9 8 -9z" />
    <glyph glyph-name="uni09480901" horiz-adv-x="0" 
d="M185 690h-94q-120 0 -120 124v7q0 20 18 20h29q16 0 16 -19v-7q0 -37 14.5 -52t51.5 -15h75q37 0 51.5 15t14.5 52v7q0 19 17 19h28q18 0 18 -20v-6q0 -125 -119 -125zM169 886v-38q0 -15 -14 -15h-33q-15 0 -15 15v38q0 14 15 14h33q14 0 14 -14zM-74 602h-58
q-75 71 -141 166l-60 87q-4 8 -4 11q0 12 13 12h38q18 0 27 -13l136 -222l3 2q-28 61 -28 189v29q0 15 15 15h36q15 0 15 -15v-229q0 -11 8 -11v-21z" />
    <glyph glyph-name="uni09480930094D0902" horiz-adv-x="0" 
d="M33 745v-38q0 -15 -14 -15h-33q-14 0 -14 15v38q0 15 14 15h33q14 0 14 -15zM-74 623v-21h-70q-62 61 -136 166l-59 87q-4 8 -4 11q0 12 13 12h31q20 0 27 -13l142 -227l3 1q-43 87 -53 145q-6 37 -6 79q0 15 15 15h38q15 0 15 -15v-151h4q3 84 34.5 126t83.5 42h20
q16 0 16 -15v-30q0 -15 -16 -15h-18q-88 0 -88 -141v-47q0 -9 8 -9z" />
    <glyph glyph-name="uni094A0902" 
d="M161 623h75q16 0 16 -15v-30q0 -15 -16 -15h-75q-10 0 -10 -10v-538q0 -15 -15 -15h-39q-15 0 -15 15v538q0 10 -10 10h-75q-15 0 -15 15v30q0 15 15 15h75q10 0 10 12.5t-12 22.5q-12 11 -116 64q-44 23 -63.5 50.5t-19.5 70.5v20q0 15 15 15h37q15 0 15 -15v-16
q0 -31 13.5 -46.5t44.5 -30.5l63 -32q48 -23 70 -44.5t22 -59.5q0 -11 10 -11zM229 727h-46q-15 0 -15 15v48q0 14 15 14h46q15 0 15 -14v-48q0 -15 -15 -15z" />
    <glyph glyph-name="uni094B0930094D" 
d="M217 880h30q16 0 16 -15v-30q0 -15 -16 -15h-23q-73 0 -73 -77v-111q0 -9 8 -9h77q16 0 16 -15v-30q0 -15 -16 -15h-75q-10 0 -10 -10v-538q0 -15 -15 -15h-39q-15 0 -15 15v538q0 10 -10 10h-75q-15 0 -15 15v30q0 15 15 15h91q-58 63 -113 145l-59 87q-3 6 -3 11
q0 12 12 12h45q14 0 22 -13l99 -156h4v56q0 56 32.5 85.5t89.5 29.5z" />
    <glyph glyph-name="uni094B0902" 
d="M158 623h78q16 0 16 -15v-30q0 -15 -16 -15h-75q-10 0 -10 -10v-538q0 -15 -15 -15h-39q-15 0 -15 15v538q0 10 -10 10h-75q-15 0 -15 15v30q0 15 15 15h86v4q-67 77 -110 141l-59 87q-4 8 -4 11q0 12 13 12h43q14 0 22 -13l146 -226q9 -16 24 -16zM212 727h-46
q-15 0 -15 15v48q0 14 15 14h46q15 0 15 -14v-48q0 -15 -15 -15z" />
    <glyph glyph-name="uni094B0930094D0902" 
d="M230 752h33q14 0 14 -15v-37q0 -15 -14 -15h-33q-14 0 -14 15v37q0 15 14 15zM159 623h77q16 0 16 -15v-30q0 -15 -16 -15h-75q-10 0 -10 -10v-538q0 -15 -15 -15h-39q-15 0 -15 15v538q0 10 -10 10h-75q-15 0 -15 15v30q0 15 15 15h91q-58 63 -113 145l-59 87
q-3 6 -3 11q0 12 12 12h45q14 0 22 -13l99 -156h4v56q0 56 32.5 85.5t89.5 29.5h30q16 0 16 -15v-30q0 -15 -16 -15h-23q-73 0 -73 -77v-111q0 -9 8 -9z" />
    </font>
</defs>
</svg>
